<svg width="175" height="171" viewBox="0 0 175 171" fill="none" xmlns="http://www.w3.org/2000/svg">
<g opacity="0.2">
<g clip-path="url(#clip0)">
<path d="M83.5994 33.4927C84.7835 33.5441 85.3466 34.4582 85.3176 35.3466C86.8734 37.6384 87.0729 40.6126 85.3724 42.763C85.0667 43.0463 84.9139 43.188 84.6082 43.4713C92.004 57.5824 95.6658 72.5694 95.6033 88.1361C100.66 73.9723 104.694 59.3194 109.455 45.1428C108.576 44.8081 107.86 44.0356 107.46 42.6837C106.668 39.6838 106.202 35.8082 108.504 33.3874C110.347 31.3915 114.225 30.6701 116.067 33.2708C116.63 34.1849 116.601 35.0733 115.99 35.6399C116.286 35.6528 116.878 35.6785 117.307 36.1419C120.61 39.3992 117.209 43.7 113.609 45.0265C113.599 45.3227 113.599 45.3227 113.589 45.6188C111.936 50.8851 110.282 56.1515 108.628 61.4178C114.082 57.7992 119.812 54.7858 125.829 52.0813C125.982 51.9396 125.839 51.7852 125.992 51.6435C129.574 46.3126 131.257 40.1579 131.021 33.7715C129.245 33.6945 127.65 32.5873 127.269 30.6431C126.649 26.9092 129.621 22.1449 133.469 22.3119C136.582 22.2988 140.028 25.7105 138.442 28.9038C137.984 29.3288 137.831 29.4704 137.525 29.7537C137.353 30.4876 136.885 31.2087 136.426 31.6337C135.958 32.3548 135.204 32.7669 134.296 33.3206C134.296 33.3206 134.439 33.4751 134.287 33.6167C134.542 39.4108 133.471 44.9989 130.939 49.9306C133.794 48.72 136.793 47.6639 139.639 46.7495C139.86 44.5348 140.978 42.0626 142.64 41.0967C144.76 39.706 147.71 40.1306 149.133 41.9717C155.644 46.851 145.222 57.3714 140.526 51.3846C140.382 51.2301 140.096 50.9212 140.106 50.625C128.12 54.5532 116.822 60.1423 106.363 67.2507C106.21 67.3923 105.914 67.3795 105.914 67.3795C101.297 81.7106 96.6796 96.0417 90.7545 109.575C89.149 113.36 87.4002 116.991 85.3555 120.61C87.648 118.485 89.9405 116.36 92.5194 114.544C96.9034 111.917 101.965 111.247 106.854 111.311C107.695 108.234 109.73 104.912 112.996 104.757C116.262 104.602 118.391 107.512 117.416 110.139C117.702 110.448 117.988 110.757 117.969 111.349C118.293 115.07 116.391 118.843 112.514 119.564C109.821 120.337 107.673 118.02 107.168 115.329C101.39 115.226 96.3001 116.785 91.5912 120.287C87.7993 122.94 85.1528 126.829 81.0745 129.172C80.9217 129.314 80.6257 129.301 80.4728 129.443C72.6863 140.967 63.0094 151.372 52.0535 160.09C50.0763 161.635 47.499 158.854 49.4762 157.309C59.8304 148.861 69.0391 139.178 76.5103 128.233C79.0344 119.001 78.5984 109.64 75.4884 100.46C73.7316 99.7907 72.1566 98.0912 72.3673 96.1727C72.6166 93.0696 75.8358 89.7989 79.1017 89.6441C82.2148 89.6309 85.212 93.1715 83.1962 95.9013C83.0434 96.043 82.8905 96.1846 82.5849 96.4679C82.0878 98.0774 81.1514 99.5196 79.4992 100.189C81.5119 106.653 82.1876 113.206 81.8225 119.863C84.4883 115.382 86.7148 110.734 88.7982 105.931C89.7538 103.897 90.4134 101.849 91.2161 99.9564C90.9298 99.6474 90.9394 99.3513 90.9587 98.759C93.3428 80.1791 89.94 61.7929 81.1412 45.2484C79.8043 45.3387 78.7731 45.1456 77.6083 44.502C74.8395 43.0473 74.3633 39.4679 75.6342 36.854C76.9148 33.9439 80.792 33.2225 83.5994 33.4927ZM114.394 39.1294C113.678 38.3569 113.707 37.4685 114.175 36.7474C113.879 36.7345 113.44 36.5672 113.163 35.9621C112.743 35.2024 111.845 35.46 111.387 35.885C110.47 36.7349 110.708 38.5246 110.822 39.5675C110.803 40.1598 110.936 40.6104 111.06 41.3572C111.184 42.104 111.49 41.8207 112.091 41.5502C112.836 41.4343 115.396 40.2108 114.394 39.1294ZM130.736 28.8659C130.726 29.1621 130.564 29.5998 130.554 29.896C130.697 30.0505 130.544 30.1921 130.544 30.1921C131.432 30.2307 132.187 29.8186 132.942 29.4065C133.696 28.9944 134.948 26.9728 133.63 26.4708C133.334 26.4579 133.048 26.1489 132.904 25.9944C131.854 26.3937 131.061 27.9903 130.736 28.8659ZM147.966 45.9246C147.527 45.7573 146.802 45.281 146.678 44.5342L146.534 44.3797C146.391 44.2252 146.248 44.0707 146.105 43.9162C145.666 43.7489 144.921 43.8648 144.462 44.2898C143.545 45.1396 143.335 47.0581 143.592 48.2556C144.126 50.0581 148.052 47.856 147.966 45.9246ZM114.139 115.186C114.76 114.324 114.941 113.293 114.98 112.109C114.111 111.478 113.711 110.126 114.628 109.276C115.249 108.414 113.596 109.083 113.3 109.07C112.699 109.341 112.231 110.062 111.915 110.641C111.294 111.504 111.112 112.534 110.931 113.564C110.921 113.86 110.921 113.86 110.911 114.157C110.758 114.298 110.902 114.453 110.749 114.594C110.681 116.667 113.212 116.332 114.139 115.186ZM76.2252 96.0436C76.3491 96.7904 77.5332 96.8418 77.9821 96.713C79.1854 96.1721 79.0905 94.5369 78.9763 93.4939C78.9763 93.4939 78.8234 93.6356 78.6802 93.4811C77.9354 93.5971 76.111 95.0007 76.2252 96.0436ZM79.357 40.8709C80.2161 41.7978 81.4195 41.2569 82.3269 40.7032C83.3967 39.7117 82.9961 38.3598 82.2899 37.2911C79.912 37.4845 77.2093 38.5534 79.357 40.8709Z" fill="#5B4696"/>
</g>
</g>
<defs>
<clipPath id="clip0">
<rect width="87.8386" height="156.494" transform="matrix(-0.679751 -0.733443 -0.733443 0.679751 174.488 64.4248)" fill="white"/>
</clipPath>
</defs>
</svg>
