<svg width="209" height="298" viewBox="0 0 209 298" fill="none" xmlns="http://www.w3.org/2000/svg">
<g opacity="0.2" filter="url(#filter0_f)">
<g clip-path="url(#clip0)">
<path d="M163.402 127.023C163.665 127.039 163.944 126.794 164.222 126.549C193.873 98.9744 165.198 52.4824 153.075 23.3299C152.387 21.7094 151.338 21.6434 150.272 21.8392C150.01 21.8226 149.764 21.5443 149.764 21.5443C140.403 19.6407 134.844 24.2852 131.514 31.1729C121.989 27.6819 114.153 26.6629 104.413 30.7814C94.9357 34.9164 88.3092 43.9624 85.0763 53.4849C84.781 53.992 85.0103 54.5322 84.9774 55.0558C77.8936 58.8158 71.7602 64.2127 66.8889 70.4777C46.7555 72.3648 31.1748 89.7845 31.2337 109.766C31.2173 110.028 31.2008 110.29 31.4466 110.568C29.5445 111.5 27.8882 112.71 26.232 113.92C24.3958 113.804 22.7231 115.276 23.9192 117.191C36.4057 136.378 53.2883 148.481 74.3198 157.428C91.7614 164.835 111.105 171.31 129.093 161.664C129.634 161.436 130.208 160.683 130.241 160.159C137.061 160.589 143.439 159.676 148.966 155.555C161.944 175.298 175.48 194.551 189.852 213.067C190.064 213.869 189.999 214.917 190.211 215.719C190.391 217.044 191.145 217.618 192.195 217.684C192.686 218.24 193.44 218.813 194.244 218.601C200.34 226.345 206.698 234.106 213.319 241.883C216.253 245.484 219.465 248.841 222.94 252.214C197.221 238.241 171.699 225.331 141.335 226.574C138.958 226.687 138.219 230.058 139.743 230.942C139.727 231.204 139.973 231.483 140.235 231.499C151.772 244.843 166.213 253.901 182.754 258.885C194.377 262.508 215.492 265.94 227.462 259.859C227.708 260.137 227.97 260.154 228.216 260.432C229.232 261.022 230.298 260.826 231.134 260.09C247.361 274.255 266.195 284.641 288.935 283.18C292.099 283.117 291.084 278.321 287.92 278.385C254.605 280.494 230.611 255.851 211.273 232.553C206.619 227.003 202.227 221.469 197.573 215.919C217.187 197.176 217.756 163.04 216.96 138.017C216.797 136.43 215.535 135.562 214.486 135.496C213.486 134.644 211.666 134.267 210.78 135.788C195.822 155.876 188.518 179.863 188.805 204.59C175.908 187.743 163.585 170.144 152.065 152.333C159.609 145.448 162.809 136.449 163.402 127.023ZM180.706 253.762C167.264 249.761 155.397 241.654 145.776 231.322C172.106 231.402 194.842 242.56 217.512 254.764C198.791 250.957 180.742 244.826 163.35 236.634C161.563 235.733 160.578 238.826 162.365 239.727C180.02 247.935 198.331 254.082 217.314 257.906C205.329 260.043 190.018 256.451 180.706 253.762ZM212.516 141.681C212.968 163.79 212.221 192.395 196.919 209.569C200.153 195.841 203.65 182.129 206.901 168.139C207.295 166.061 204.459 165.094 203.802 167.156C200.568 180.884 197.055 194.857 193.821 208.586C192.418 184.84 198.886 161.589 212.516 141.681ZM148.156 26.1746C148.418 26.1911 148.943 26.2242 149.205 26.2407C154.906 40.2685 160.885 54.051 166.324 68.0623C171.516 81.7952 174.725 97.7691 169.146 111.087C167.957 88.1428 160.34 66.897 151.953 45.3399C151.265 43.7194 148.281 45.1088 148.952 46.9911C157.815 69.3667 165.89 91.6928 165.931 116.142C165.914 116.404 165.898 116.665 166.16 116.682C165.291 117.942 164.143 119.446 163.011 120.69C161.117 96.3868 144.174 68.5081 131.49 52.4635C131.507 52.2017 131.523 51.9399 131.523 51.9399C132.133 42.2522 134.106 23.4502 148.156 26.1746ZM106.248 35.1027C113.873 31.114 121.922 32.935 129.381 35.7703C128.708 38.0937 128.018 40.6789 127.591 43.2807C126.92 41.3984 125.986 39.4995 125.052 37.6007C124.118 35.7018 121.134 37.0912 122.068 38.99C123.722 41.9857 125.082 45.4885 126.196 48.713C126.425 49.2532 126.671 49.5315 126.933 49.548C126.917 49.8099 126.9 50.0717 126.9 50.0717C126.638 50.0552 126.622 50.317 126.605 50.5788C122.443 45.5852 118.526 40.87 114.363 35.8764C113.15 34.2229 110.641 36.4307 111.854 38.0842C115.033 41.9645 118.229 45.5829 121.408 49.4631C120.376 49.1352 119.064 49.0527 118.015 48.9866C113.999 45.8424 109.983 42.6981 106.23 39.5703C104.722 38.4239 102.983 40.9431 104.475 42.3513C107.245 44.3657 109.736 46.6255 112.506 48.6399C111.195 48.5573 109.867 48.7366 108.817 48.6706C108.572 48.3922 108.326 48.1139 107.818 47.819C107.293 47.786 106.523 47.4746 105.998 47.4416L105.752 47.1633C104.752 46.3118 103.49 45.4437 102.49 44.5922C100.999 43.184 99.2438 45.965 100.735 47.3732C101.489 47.9464 102.489 48.7979 103.243 49.3711C98.7343 49.8759 94.7007 51.1992 90.6507 52.7843C93.5224 44.8163 98.8854 39.108 106.248 35.1027ZM63.1163 76.0233C61.0658 79.3114 59.5236 82.8945 58.2436 86.494C57.5226 85.3971 56.5228 84.5456 55.5065 83.9559C53.7198 83.0548 51.9811 85.5741 53.7513 86.737C55.2758 87.6215 56.2426 88.9967 56.406 90.5842C56.373 91.1078 56.6189 91.3861 56.8647 91.6645C56.8153 92.45 56.52 92.9571 56.4705 93.7426C54.7827 91.2706 53.0619 89.3222 50.833 87.079C49.3415 85.6708 46.8489 87.6168 48.3238 89.2868C50.7986 91.8084 53.2569 94.5918 55.1741 97.604C55.4199 97.8823 55.4199 97.8823 55.6657 98.1606C55.5669 99.7316 55.468 101.303 55.3691 102.874C53.1237 100.892 51.157 98.6654 49.2069 96.1769C48.273 94.278 45.7639 96.4859 46.9765 98.1394C48.9102 100.89 51.385 103.411 53.8762 105.671C52.827 105.605 51.7778 105.539 50.712 105.735C48.1878 103.999 45.9424 102.017 43.9593 100.052C42.4678 98.6442 40.2375 100.607 41.4501 102.26C42.6793 103.652 44.1708 105.06 45.6787 106.207C42.2192 106.777 39.022 107.365 35.7754 108.738C36.7973 92.5042 47.8844 79.5332 63.1163 76.0233ZM120.241 160.056C119.995 159.777 119.732 159.761 119.47 159.744C91.3054 155.343 68.4241 138.131 47.4613 119.725C45.9698 118.317 43.4607 120.524 44.9521 121.933C64.9151 139.487 86.5509 155.569 112.502 161.671C100.058 162.728 87.4683 157.73 75.6492 153.043C56.6503 145.275 41.2756 134.319 29.6901 117.555C37.4138 111.995 46.776 109.693 56.1862 110.811C68.0176 127.853 83.4897 141.445 101.849 151.012C107.717 154.01 115.143 157.369 122.93 159.173C121.864 159.369 121.044 159.843 120.241 160.056ZM95.0644 141.648C81.1152 133.146 69.4789 121.374 60.0563 107.9C59.2736 95.2334 62.8841 83.8946 69.2483 74.8321C70.0517 74.6198 70.3635 73.8508 70.4129 73.0653C83.0258 56.773 104.883 48.4229 127.341 55.6196C127.604 55.6361 128.128 55.6691 128.39 55.6856C145.45 77.5258 170.668 120.383 151.428 145.721C151.534 123.121 146.049 101.484 135.202 81.3494C134.268 79.4506 131.284 80.8399 132.218 82.7388C142.835 102.333 148.075 123.692 148.002 145.768C137.501 120.135 122.393 96.5779 103.382 76.4549C101.89 75.0467 99.6598 77.0092 100.872 78.6628C119.884 98.7857 134.746 122.065 145.247 147.698C122.397 134.168 102.155 116.859 85.2753 96.3444C84.0626 94.6908 81.5535 96.8987 82.7661 98.5522C100.383 119.902 121.379 137.784 145.524 151.658C145.524 151.658 145.524 151.658 145.262 151.642C121.606 146.735 99.9686 134.859 82.6452 117.208C81.1538 115.8 78.9234 117.762 80.1361 119.416C97.2137 136.788 118.064 148.615 141.408 154.291C127.094 159.961 106.489 148.413 95.0644 141.648Z" fill="#5B4696"/>
</g>
</g>
<defs>
<filter id="filter0_f" x="0" y="0" width="320.101" height="297.788" filterUnits="userSpaceOnUse" color-interpolation-filters="sRGB">
<feFlood flood-opacity="0" result="BackgroundImageFix"/>
<feBlend mode="normal" in="SourceGraphic" in2="BackgroundImageFix" result="shape"/>
<feGaussianBlur stdDeviation="7" result="effect1_foregroundBlur"/>
</filter>
<clipPath id="clip0">
<rect x="29.8878" y="14" width="276.76" height="252.901" transform="rotate(3.60183 29.8878 14)" fill="white"/>
</clipPath>
</defs>
</svg>
