<svg width="126" height="174" viewBox="0 0 126 174" fill="none" xmlns="http://www.w3.org/2000/svg">
<g opacity="0.2">
<g clip-path="url(#clip0)">
<path d="M15.0665 65.9424C15.6647 64.9192 16.7359 64.8479 17.5081 65.2881C20.2611 64.982 22.9846 66.1938 24.0927 68.7014C24.2005 69.104 24.2545 69.3052 24.3623 69.7078C40.294 69.7535 55.2575 73.5104 68.9952 80.8317C58.8291 69.7489 47.7536 59.3412 37.4379 48.5142C36.7319 49.1348 35.7146 49.4074 34.332 49.1307C31.3094 48.4305 27.6642 47.0342 26.5978 43.8682C25.6932 41.3061 26.8649 37.5404 30.0248 37.1252C31.096 37.0539 31.8682 37.4942 32.084 38.2993C32.2335 38.0435 32.5326 37.5319 33.143 37.3683C37.5653 35.9676 39.7814 40.9829 39.274 44.7862C39.5314 44.933 39.5314 44.933 39.7888 45.0798C43.6743 49.0005 47.5599 52.9212 51.4454 56.8419C50.7908 50.3296 50.8005 43.855 51.2172 37.2714C51.1633 37.0702 50.9598 37.1247 50.9059 36.9234C47.8636 31.2666 43.2059 26.9056 37.4475 24.134C36.5503 25.6687 34.827 26.562 32.9296 25.9917C29.3383 24.7967 26.5117 19.945 28.4557 16.6197C29.8971 13.8604 34.5229 12.4052 36.6066 15.2985C36.7684 15.9024 36.8223 16.1037 36.9302 16.5062C37.4989 17.001 37.9181 17.7516 38.0799 18.3555C38.4991 19.1061 38.5114 19.9657 38.5776 21.0266C38.5776 21.0266 38.7811 20.9721 38.835 21.1734C44.0786 23.6516 48.5206 27.2074 51.7001 31.7488C51.9624 28.6582 52.4281 25.5132 52.9478 22.5695C51.092 21.3408 49.4275 19.1981 49.3491 17.2775C49.1088 14.7531 50.8615 12.3419 53.1536 11.9435C60.5078 8.46278 64.9474 22.5901 57.4608 23.949C57.2574 24.0035 56.8504 24.1125 56.593 23.9658C54.4727 36.3991 54.1419 49.0002 55.5466 61.5677C55.6006 61.769 55.451 62.0248 55.451 62.0248C65.9701 72.7973 76.4892 83.5698 85.6919 95.1265C88.2905 98.3134 90.6855 101.555 92.931 105.052C92.122 102.033 91.3131 99.0136 90.911 95.8854C90.6339 90.7821 92.4038 85.9932 94.7424 81.6991C92.4135 79.5186 90.4254 76.1682 91.8129 73.2076C93.2004 70.2471 96.7672 69.7228 98.6352 71.8111C99.0421 71.702 99.449 71.593 99.9638 71.8865C103.406 73.3374 105.855 76.78 104.683 80.5457C104.109 83.2882 101.057 84.106 98.4416 83.2967C95.6544 88.3582 94.6567 93.5873 95.5564 99.3867C96.1326 103.978 98.3364 108.134 98.5056 112.835C98.5596 113.036 98.41 113.292 98.464 113.493C105.022 125.759 109.706 139.173 112.303 152.931C112.746 155.401 109.084 156.383 108.64 153.913C106.002 140.813 101.737 128.149 95.5444 116.433C88.5578 109.891 80.0759 105.908 70.5055 104.373C69.0935 105.615 66.8554 106.214 65.2571 105.132C62.6292 103.463 61.2392 99.0898 62.6266 96.1293C64.068 93.37 68.5982 92.3719 70.0716 95.4288C70.1255 95.6301 70.1794 95.8314 70.2873 96.2339C71.4787 97.4248 72.3171 98.926 72.1381 100.7C78.7937 101.937 84.9051 104.398 90.6218 107.828C87.9032 103.379 84.8315 99.2402 81.5564 95.156C80.2032 93.3612 78.7005 91.8223 77.4012 90.2289C76.9943 90.3379 76.7369 90.1911 76.2221 89.8976C60.9031 79.1168 43.0544 73.5443 24.3158 73.6034C23.7716 74.8279 23.1195 75.6498 22.0066 76.3795C19.4277 78.1492 16.0399 76.8996 14.3214 74.5556C12.3455 72.0648 13.5173 68.2991 15.0665 65.9424ZM34.4251 41.3394C33.4078 41.612 32.6356 41.1717 32.2164 40.4211C32.0668 40.6769 31.7138 40.9872 31.0495 40.9495C30.1817 40.9663 29.9905 41.8805 30.1523 42.4843C30.4759 43.692 32.1698 44.3168 33.1455 44.7025C33.6603 44.9961 34.1212 45.0883 34.8394 45.3273C35.5577 45.5663 35.4498 45.1637 35.4915 44.5054C35.7366 43.7925 35.8494 40.9578 34.4251 41.3394ZM32.9761 22.0961C33.2335 22.2428 33.5449 22.5909 33.8023 22.7376C34.0057 22.6831 34.0597 22.8844 34.0597 22.8844C34.5083 22.117 34.496 21.2574 34.4837 20.3977C34.4715 19.5381 33.2678 17.4876 32.2088 18.4185C32.0593 18.6743 31.6523 18.7834 31.4489 18.8379C31.3116 19.9533 32.3535 21.4 32.9761 22.0961ZM56.1051 14.82C55.7521 15.1303 54.9922 15.5497 54.2739 15.3107L54.0704 15.3652C53.867 15.4197 53.6635 15.4743 53.46 15.5288C53.107 15.8391 52.8619 16.552 53.0237 17.1558C53.3473 18.3635 54.9456 19.4453 56.1248 19.7766C57.9682 20.1456 57.853 15.6461 56.1051 14.82ZM101.57 77.0653C101.096 76.1134 100.27 75.4718 99.2407 74.8848C98.2773 75.3587 96.8947 75.0819 96.5711 73.8743C96.098 72.9224 95.919 74.6962 95.7695 74.952C95.7278 75.6103 96.147 76.3609 96.5123 76.9103C96.9854 77.8621 97.8115 78.5037 98.6377 79.1453C98.8951 79.292 98.8951 79.292 99.1525 79.4388C99.2064 79.6401 99.4099 79.5856 99.4638 79.7868C101.266 80.8142 102.151 78.4197 101.57 77.0653ZM66.9436 101.66C67.6619 101.899 68.26 100.876 68.3556 100.419C68.439 99.1022 66.9485 98.423 65.9728 98.0372C65.9728 98.0372 66.0268 98.2385 65.8233 98.293C65.5782 99.0059 65.9679 101.274 66.9436 101.66ZM19.6115 73.1381C20.8323 72.811 20.9157 71.4943 20.8495 70.4333C20.4719 69.0244 19.0893 68.7476 17.8146 68.8735C16.8757 71.0666 16.5595 73.9559 19.6115 73.1381Z" fill="#5B4696"/>
</g>
</g>
<defs>
<clipPath id="clip0">
<rect width="87.8386" height="156.494" transform="matrix(-0.965926 0.258819 0.258819 0.965926 84.8455 0)" fill="white"/>
</clipPath>
</defs>
</svg>
