<svg width="226" height="388" viewBox="0 0 226 388" fill="none" xmlns="http://www.w3.org/2000/svg">
<g opacity="0.2" filter="url(#filter0_f)">
<g clip-path="url(#clip0)">
<path d="M259.045 172.486C243.135 113.553 208.859 61.1472 164.775 20.1341C162.337 17.6251 158.776 18.5839 156.605 20.565C154.41 19.6663 151.995 20.0371 150.287 22.359C79.1857 140.378 149.682 271.666 231.58 361.245C232.043 361.586 232.506 361.927 232.506 361.927C232.628 362.732 232.286 363.197 231.945 363.661C231.505 366.2 233.017 368.028 234.748 368.585C234.748 368.585 235.211 368.926 234.87 369.391C235.942 373.757 242.722 372.304 241.65 367.937L241.529 367.132C241.87 366.668 242.553 365.739 242.432 364.934C244.685 330.81 259.278 299.323 266.604 266.067C272.905 234.206 266.89 202.587 259.045 172.486ZM228.317 342.386C216.809 328.912 205.643 314.974 195.623 300.448C205.595 309.214 215.226 318.445 224.736 326.871C225.929 332.043 227.123 337.215 228.317 342.386ZM235.219 341.738C234.39 338.982 233.904 335.761 233.075 333.005C233.417 332.541 233.758 332.076 233.978 330.807C234.32 330.342 235.003 329.414 234.881 328.608C237.029 323.748 239.64 319.227 241.787 314.366C239.907 323.717 237.099 332.387 235.219 341.738ZM181.508 277.9C181.045 277.559 180.581 277.218 180.118 276.878C176.388 271.272 173 265.201 169.611 259.131C187.216 272.08 203.455 286.887 218.67 303.087C218.913 304.698 219.498 305.844 219.741 307.454C219.18 309.188 219.765 310.334 220.692 311.015C221.277 312.161 221.057 313.431 221.642 314.577C208.304 302.619 194.504 290.322 181.508 277.9ZM140.983 67.0399C154.54 77.7275 165.121 90.5198 172.507 106.686C172.97 107.027 172.97 107.027 173.092 107.832C173.092 107.832 172.75 108.297 173.214 108.638C172.994 109.907 173.579 111.053 174.042 111.394C175.357 117.371 176.673 123.347 177.988 129.324C164.969 114.023 150.461 99.7739 136.075 86.3301C137.053 79.1773 139.079 73.5112 140.983 67.0399ZM146.962 52.1162C153.668 55.6175 159.35 60.512 164.348 66.3352C165.785 73.1172 167.1 79.094 168.537 85.876C161.662 75.8099 153.421 67.6013 143.229 60.1042C144.473 57.4416 145.718 54.7789 146.962 52.1162ZM189.177 61.6983C183.492 70.3979 179.197 80.1198 176.17 90.0589C175.318 84.4228 174.124 79.2511 172.809 73.2743C175.396 65.8743 177.983 58.4742 180.571 51.0742C183.594 54.7292 186.154 58.0433 189.177 61.6983ZM206.755 85.3619C206.413 85.8263 206.072 86.2907 205.73 86.7551C199.067 102.607 192.868 118.801 186.206 134.653C183.94 125.115 182.138 115.917 179.872 106.379C181.827 92.0735 186.441 79.0074 193.712 67.1807C198.368 73.4683 202.561 79.4151 206.755 85.3619ZM226.72 119.369C225.452 119.152 223.964 120.204 223.744 121.474C215.055 142.992 206.709 164.046 198.02 185.565C195.268 172.806 192.052 159.706 189.3 146.948C196.865 128.897 203.967 110.505 211.533 92.4547C216.896 100.693 222.04 110.202 226.72 119.369ZM241.027 151.361C240.686 151.826 240.344 152.29 240.003 152.755C228.923 177.524 218.649 202.169 207.569 226.938C204.84 217.059 202.916 207.057 200.188 197.178C210.121 172.997 219.712 149.28 229.645 125.099C233.862 133.925 237.615 142.411 241.027 151.361ZM181.326 143.229C184.663 157.134 187.659 171.503 190.996 185.408C173.077 162.209 153.791 140.867 131.529 121.63L131.066 121.289C131.337 112.185 132.413 102.958 133.488 93.7301C150.654 109.219 166.331 125.759 181.326 143.229ZM192.382 200.024C192.163 201.294 193.552 202.316 194.821 202.533C196.721 209.656 198.28 217.243 200.18 224.366C180.894 203.024 159.559 184.469 135.711 168.359C135.711 168.359 135.711 168.359 135.248 168.018C132.959 155.6 131.475 143.058 131.6 130.269C154.105 151.117 174.903 174.286 192.382 200.024ZM202.713 238.394L203.176 238.735C204.491 244.712 205.807 250.689 207.122 256.666C189.568 235.882 168.818 218.472 144.53 204.901C141.581 196.292 138.974 187.218 136.831 178.485C161.263 195.741 183.184 215.442 202.713 238.394ZM210.703 272.181C212.018 278.158 213.675 283.67 214.991 289.647C199.435 273.911 182.049 259.692 163.639 246.866C163.176 246.526 162.713 246.185 162.371 246.649C157.106 236.336 152.646 225.899 148.186 215.462C173.058 230.179 193.71 249.663 210.703 272.181ZM224.256 296.462C222.698 288.875 220.334 281.412 218.775 273.825C224.9 262.586 230.22 251.471 235.881 239.891C239.273 232.368 243.007 224.38 246.399 216.856C248.888 211.531 250.647 201.374 254.746 195.802C255.355 199.828 256.305 203.389 256.913 207.415C246.686 237.82 236.337 267.42 224.256 296.462ZM252.261 187.533C251.919 187.998 251.456 187.657 251.114 188.121C243.576 195.458 240.596 211.156 236.643 220.414C230.2 234.997 223.294 249.239 215.925 263.14C214.244 254.748 211.759 246.479 210.078 238.087C221.377 212.048 232.677 186.01 243.976 159.971C245.511 164.678 247.046 169.385 248.582 174.093C250.117 178.8 251.189 183.167 252.261 187.533ZM175.231 45.7154C173.547 50.9171 171.741 55.3137 170.056 60.5154C167.913 51.7823 166.574 42.9257 164.43 34.1926C168.258 37.7239 171.744 41.7196 175.231 45.7154ZM156.699 32.0844C158.258 39.6716 159.695 46.4536 161.254 54.0407C157.889 50.8501 153.719 47.7832 149.671 45.5214C151.477 41.1248 154.088 36.6046 156.699 32.0844ZM252.772 278.078C251.991 281.081 251.551 283.62 250.77 286.624C249.965 286.747 248.819 287.335 248.135 288.264C242.474 299.844 236.349 311.082 230.688 322.662C229.153 317.954 228.422 313.123 226.887 308.416C228.034 307.828 228.595 306.094 228.352 304.484C239.187 278.104 249.219 251.849 257.518 225.035C258.928 242.531 257.46 260.057 252.772 278.078Z" fill="#5B4696"/>
</g>
</g>
<defs>
<filter id="filter0_f" x="0" y="0" width="396.06" height="387.603" filterUnits="userSpaceOnUse" color-interpolation-filters="sRGB">
<feFlood flood-opacity="0" result="BackgroundImageFix"/>
<feBlend mode="normal" in="SourceGraphic" in2="BackgroundImageFix" result="shape"/>
<feGaussianBlur stdDeviation="7" result="effect1_foregroundBlur"/>
</filter>
<clipPath id="clip0">
<rect x="156.436" y="14" width="280.086" height="240.389" transform="rotate(36.3362 156.436 14)" fill="white"/>
</clipPath>
</defs>
</svg>
