<svg width="333" height="351" viewBox="0 0 333 351" fill="none" xmlns="http://www.w3.org/2000/svg">
<g opacity="0.2" filter="url(#filter0_f)">
<g clip-path="url(#clip0)">
<path d="M188.237 172.864C188.291 173.121 188.602 173.324 188.913 173.527C223.409 194.73 260.546 154.673 285.399 135.2C286.776 134.104 286.559 133.075 286.086 132.101C286.032 131.844 286.234 131.532 286.234 131.532C285.567 122.003 279.606 117.887 272.078 116.519C272.897 106.408 271.785 98.5844 265.213 90.2996C258.696 82.2718 248.208 78.304 238.168 77.7336C237.6 77.5846 237.141 77.9499 236.627 78.0581C231.111 72.2369 224.271 67.7689 216.932 64.7491C209.733 45.8524 188.783 35.4938 169.544 40.8908C169.287 40.9448 169.031 40.9989 168.828 41.3102C167.422 39.7263 165.813 38.4537 164.205 37.181C163.825 35.3808 161.96 34.1622 160.434 35.8268C145.282 52.9867 138.131 72.4898 135.131 95.1474C132.655 113.934 131.585 134.305 145.687 149.061C146.052 149.521 146.93 149.873 147.444 149.765C148.853 156.452 151.437 162.354 156.885 166.578C141.328 184.36 126.393 202.549 112.391 221.347C111.675 221.766 110.648 221.983 109.932 222.402C108.703 222.93 108.352 223.809 108.569 224.838C108.164 225.461 107.813 226.34 108.232 227.058C102.399 235.002 96.6205 243.203 90.8959 251.662C88.209 255.451 85.833 259.444 83.5112 263.693C90.103 235.176 95.7223 207.131 86.4097 178.205C85.6653 175.944 82.2197 176.133 81.7747 177.838C81.518 177.892 81.3155 178.204 81.3697 178.461C71.5947 193.145 66.7257 209.481 66.3433 226.752C65.9582 238.92 68.2941 260.185 77.353 270.094C77.1504 270.406 77.2047 270.663 77.0021 270.974C76.7055 272.111 77.179 273.086 78.1117 273.695C68.7987 293.116 63.8242 314.041 71.3085 335.564C72.2155 338.596 76.5653 336.336 75.6583 333.304C64.7227 301.765 82.0564 272.058 99.3387 247.197C103.443 241.228 107.602 235.517 111.706 229.549C135.01 243.441 168.057 234.866 191.956 227.412C193.442 226.83 193.941 225.382 193.725 224.354C194.278 223.163 194.155 221.308 192.453 220.861C169.098 211.815 144.032 211.188 120.281 218.073C133.068 201.142 146.733 184.564 160.818 168.703C169.469 174.133 178.996 174.811 188.237 172.864ZM70.7331 223.41C70.9956 209.387 75.6364 195.785 83.0211 183.753C89.9806 209.147 85.3055 234.038 79.6035 259.145C78.2688 240.087 79.3528 221.056 82.5988 202.107C82.9896 200.145 79.7465 200.022 79.3558 201.985C76.1639 221.191 75.1341 240.479 76.523 259.794C71.2606 248.816 70.6303 233.101 70.7331 223.41ZM187.239 224.109C166.054 230.453 138.29 237.377 117.651 227.222C131.744 226.67 145.891 226.375 160.241 225.768C162.349 225.593 162.523 222.602 160.361 222.52C146.268 223.072 131.864 223.421 117.771 223.974C140.278 216.276 164.412 216.294 187.239 224.109ZM281.343 131.22C281.397 131.477 281.505 131.992 281.559 132.249C269.565 141.491 257.882 150.937 245.834 159.922C233.988 168.596 219.453 175.956 205.129 174.14C226.92 166.862 245.358 153.844 263.889 140.001C265.267 138.905 263.131 136.401 261.496 137.551C242.303 152.071 222.947 165.819 199.398 172.392C199.142 172.447 198.885 172.501 198.939 172.758C197.493 172.257 195.736 171.553 194.236 170.794C217.148 162.474 239.485 138.697 251.556 122.186C251.813 122.132 252.069 122.078 252.069 122.078C261.568 120.077 280.213 116.954 281.343 131.22ZM261.539 93.2225C267.421 99.504 267.817 107.747 267.078 115.692C264.66 115.665 261.984 115.691 259.363 115.975C260.997 114.825 262.577 113.417 264.158 112.01C265.738 110.603 263.601 108.098 262.021 109.506C259.577 111.901 256.565 114.147 253.755 116.082C253.296 116.448 253.093 116.759 253.148 117.016C252.891 117.07 252.634 117.124 252.634 117.124C252.58 116.867 252.323 116.921 252.067 116.975C255.766 111.629 259.263 106.595 262.963 101.249C264.232 99.6388 261.434 97.811 260.164 99.4214C257.275 103.522 254.642 107.569 251.753 111.669C251.793 110.586 251.522 109.301 251.305 108.272C253.262 103.562 255.219 98.852 257.229 94.3992C257.931 92.6398 255.039 91.6376 254.08 93.4512C252.88 96.6588 251.368 99.6634 250.167 102.871C249.896 101.585 249.368 100.353 249.152 99.3246C249.354 99.0133 249.557 98.702 249.705 98.1336C249.597 97.6192 249.691 96.7936 249.582 96.2792L249.785 95.9679C250.338 94.7769 250.837 93.3287 251.391 92.1377C252.349 90.3242 249.2 89.3761 248.242 91.1896C247.891 92.0694 247.338 93.2604 246.987 94.1401C245.295 89.9303 242.942 86.3971 240.332 82.918C248.778 83.5558 255.712 87.1981 261.539 93.2225ZM210.58 62.5958C206.864 61.4987 202.999 60.9701 199.188 60.6986C200.052 59.7107 200.606 58.5197 200.902 57.3828C201.293 55.4203 198.401 54.4181 197.753 56.4347C197.308 58.1401 196.242 59.4393 194.756 60.021C194.242 60.1292 194.04 60.4405 193.837 60.7518C193.067 60.914 192.499 60.765 191.729 60.9273C193.66 58.6402 195.078 56.4613 196.644 53.7139C197.602 51.9004 195.061 50.0185 193.846 51.8861C192.077 54.9448 190.052 58.0575 187.662 60.71C187.459 61.0212 187.459 61.0212 187.257 61.3325C185.717 61.6571 184.176 61.9816 182.636 62.3062C183.945 59.6129 185.565 57.1227 187.442 54.5784C189.022 53.171 186.224 51.3432 184.955 52.9537C182.821 55.5521 181.053 58.6107 179.541 61.6153C179.325 60.5866 179.108 59.5578 178.634 58.5832C179.633 55.6868 180.942 52.9935 182.305 50.5574C183.264 48.7439 180.776 47.1192 179.507 48.7296C178.495 50.286 177.536 52.0996 176.834 53.859C175.36 50.6779 173.939 47.754 171.749 44.9924C187.665 41.6387 203.127 48.856 210.58 62.5958ZM144.871 140.1C145.073 139.789 145.019 139.532 144.965 139.275C141.679 110.958 152.15 84.3088 164.284 59.1895C165.243 57.376 162.445 55.5482 161.486 57.3617C149.906 81.29 140.19 106.437 141.246 133.075C136.902 121.366 138.354 107.898 139.711 95.2566C142.119 74.8728 148.568 57.1292 161.626 41.4848C169.048 47.4418 173.768 55.8481 175.206 65.2149C161.945 81.1705 152.983 99.7122 148.67 119.96C147.35 126.416 146.097 134.47 146.44 142.456C145.966 141.481 145.29 140.818 144.871 140.1ZM155.881 110.92C160.345 95.2064 168.58 80.8469 179.045 68.1663C191.042 64.0268 202.933 64.4757 213.367 68.1864C213.786 68.9039 214.61 68.9988 215.381 68.8365C234.451 76.6365 248.339 95.4668 247.406 119.032C247.46 119.289 247.568 119.803 247.623 120.06C231.136 142.336 196.577 178.09 167.019 166.322C188.825 160.385 208.209 149.316 224.713 133.483C226.293 132.076 224.157 129.571 222.576 130.979C206.532 146.447 187.35 157.203 166.058 163.033C187.952 146.064 206.615 125.21 220.925 101.512C221.884 99.6983 219.396 98.0736 218.127 99.6841C203.817 123.382 185.357 143.925 163.462 160.894C170.393 135.259 181.663 111.128 196.92 89.3796C198.19 87.7692 195.391 85.9413 194.122 87.5518C178.257 110.234 166.637 135.245 159.72 162.22C159.72 162.22 159.72 162.22 159.666 161.963C158.071 137.856 163.733 113.832 176.113 92.4211C177.071 90.6075 174.584 88.9828 173.314 90.5933C161.138 111.693 155.313 134.945 156.083 158.957C146.793 146.679 152.415 123.737 155.881 110.92Z" fill="#5B4696"/>
</g>
</g>
<defs>
<filter id="filter0_f" x="0" y="0" width="332.531" height="350.958" filterUnits="userSpaceOnUse" color-interpolation-filters="sRGB">
<feFlood flood-opacity="0" result="BackgroundImageFix"/>
<feBlend mode="normal" in="SourceGraphic" in2="BackgroundImageFix" result="shape"/>
<feGaussianBlur stdDeviation="7" result="effect1_foregroundBlur"/>
</filter>
<clipPath id="clip0">
<rect x="261.467" y="14" width="276.76" height="252.901" transform="rotate(78.101 261.467 14)" fill="white"/>
</clipPath>
</defs>
</svg>
