<svg width="172" height="363" viewBox="0 0 172 363" fill="none" xmlns="http://www.w3.org/2000/svg">
<g opacity="0.2" filter="url(#filter0_f)">
<g clip-path="url(#clip0)">
<path d="M65.6499 202.048C89.4392 145.831 94.7411 83.4366 85.2987 23.9699C84.9247 20.4914 81.5294 19.0519 78.5986 19.2741C77.424 17.2138 75.2939 16.0178 72.518 16.7938C-56.2087 65.9206 -81.5985 212.759 -72.3065 333.777C-72.1516 334.331 -71.9968 334.885 -71.9968 334.885C-72.3971 335.594 -72.9523 335.749 -73.5075 335.904C-75.4185 337.633 -75.3543 340.004 -74.3345 341.51C-74.3345 341.51 -74.1797 342.064 -74.7349 342.219C-76.5816 346.319 -70.3462 349.353 -68.4994 345.253L-68.0991 344.544C-67.5439 344.389 -66.4335 344.079 -66.0332 343.37C-43.2293 317.884 -12.3318 302.08 13.9316 280.405C38.5295 259.196 53.2775 230.588 65.6499 202.048ZM-63.2537 316.914C-64.013 299.211 -64.2172 281.352 -63.1561 263.738C-60.7048 276.787 -58.8087 289.992 -56.5124 302.488C-58.7595 307.297 -61.0066 312.105 -63.2537 316.914ZM-57.4186 320.657C-56.3725 317.976 -54.7712 315.139 -53.725 312.458C-53.1698 312.303 -52.6146 312.148 -51.6591 311.283C-51.1039 311.128 -49.9936 310.818 -49.5933 310.109C-44.9063 307.604 -40.0645 305.653 -35.3776 303.149C-42.6214 309.354 -50.1748 314.452 -57.4186 320.657ZM-60.3766 237.282C-60.5315 236.728 -60.6863 236.174 -60.8412 235.62C-60.3238 228.907 -59.2513 222.038 -58.1788 215.169C-52.2944 236.217 -48.6307 257.885 -46.6326 280.019C-47.4332 281.437 -47.6787 282.7 -48.4794 284.119C-49.9901 285.138 -50.2355 286.401 -49.9258 287.509C-50.1713 288.772 -51.1268 289.636 -51.3723 290.899C-54.5072 273.263 -57.7969 255.073 -60.3766 237.282ZM37.655 46.2476C41.7454 63.0194 42.195 79.6147 38.0483 96.8978C38.2031 97.4517 38.2031 97.4517 37.8028 98.1608C37.8028 98.1608 37.2476 98.316 37.4025 98.8699C36.4469 99.7342 36.2015 100.997 36.3563 101.551C33.7089 107.069 31.0614 112.586 28.414 118.104C27.5904 98.03 24.9465 77.868 21.9022 58.415C27.0801 53.3843 32.1674 50.1705 37.655 46.2476ZM51.561 38.1796C54.6844 45.0696 56.1423 52.4254 56.4898 60.0915C53.4421 66.3182 50.7946 71.8358 47.7468 78.0625C48.536 65.8983 47.1045 54.3549 43.6978 42.1694C46.3188 40.8395 48.9399 39.5095 51.561 38.1796ZM78.9013 71.7412C69.0628 75.089 59.689 80.0984 51.18 86.0604C53.9823 81.0967 56.2294 76.2882 58.8769 70.7706C65.4748 66.5372 72.0728 62.3039 78.6708 58.0706C78.7992 62.8121 78.7728 66.9997 78.9013 71.7412ZM78.1613 101.21C77.6061 101.365 77.051 101.52 76.4958 101.676C61.4794 110.054 46.618 118.986 31.6016 127.365C35.6956 118.457 39.9443 110.103 44.0383 101.195C54.394 91.1336 66.0793 83.6864 79.094 78.8535C78.8863 86.6749 78.5238 93.9424 78.1613 101.21ZM72.9271 140.296C72.0622 139.343 70.2418 139.255 69.2863 140.119C49.1827 151.711 29.6343 163.148 9.53067 174.741C15.2259 162.996 20.7663 150.698 26.4616 138.954C43.5438 129.401 60.4711 119.294 77.5533 109.74C76.6999 119.534 74.8909 130.192 72.9271 140.296ZM64.4788 174.308C63.9236 174.463 63.3685 174.618 62.8133 174.774C38.8234 187.452 15.5435 200.53 -8.44634 213.209C-4.50727 203.747 0.141837 194.684 4.08091 185.222C26.8056 172.3 48.9751 159.533 71.6997 146.61C69.5811 156.16 67.3075 165.157 64.4788 174.308ZM22.4732 131.111C16.5325 144.118 10.0366 157.281 4.09587 170.288C4.28065 140.975 2.24469 112.282 -3.43206 83.4132L-3.58692 82.8593C2.23679 75.8565 8.77052 69.2524 15.3043 62.6483C19.2776 85.4246 21.4306 108.113 22.4732 131.111ZM-3.82011 182.653C-4.77562 183.518 -4.31106 185.179 -3.44617 186.132C-6.33911 192.912 -9.78723 199.848 -12.6802 206.629C-14.7161 177.936 -20.0832 150.175 -28.9362 122.791C-28.9362 122.791 -28.9362 122.791 -29.091 122.237C-23.2409 111.047 -16.6808 100.255 -8.70058 90.2607C-3.82448 120.548 -1.7243 151.611 -3.82011 182.653ZM-19.3309 219.237L-19.1761 219.791C-21.8235 225.309 -24.471 230.827 -27.1184 236.344C-28.1347 209.158 -33.7472 182.66 -44.5112 157.004C-41.5277 148.407 -37.9889 139.654 -34.2953 131.456C-25.6878 160.102 -20.5662 189.127 -19.3309 219.237ZM-33.8598 250.77C-36.5073 256.287 -38.5996 261.65 -41.247 267.167C-43.8003 245.188 -48.7292 223.276 -55.3236 201.83C-55.4785 201.276 -55.6334 200.722 -56.1885 200.877C-53.9792 189.51 -51.0599 178.542 -48.1406 167.574C-37.622 194.492 -33.3654 222.564 -33.8598 250.77ZM-38.15 278.245C-34.7019 271.309 -31.9638 263.975 -28.5157 257.039C-16.7662 251.962 -5.72674 246.487 5.86786 240.857C13.1759 237.022 21.039 233.033 28.347 229.198C33.5892 226.538 41.2333 219.623 47.8955 217.761C45.8938 221.306 44.4473 224.697 42.4457 228.242C15.6535 245.885 -10.7384 262.818 -38.15 278.245ZM51.0339 209.717C50.4787 209.872 50.3238 209.319 49.7687 209.474C39.3108 210.606 27.2895 221.133 18.4708 225.987C4.40995 233.501 -9.80572 240.462 -24.1762 246.868C-20.3278 239.223 -17.1894 231.18 -13.3409 223.535C11.6045 209.992 36.5499 196.448 61.4953 182.905C59.8033 187.559 58.1114 192.212 56.4194 196.865C54.7275 201.518 52.8807 205.618 51.0339 209.717ZM77.768 50.5596C73.236 53.6182 69.1042 55.9677 64.5721 59.0263C68.2657 50.8275 72.6693 43.0274 76.3629 34.8286C77.2014 39.9688 77.4847 45.2642 77.768 50.5596ZM71.5739 28.4042C68.1258 35.34 65.078 41.5667 61.6299 48.5025C60.9463 43.9162 59.5526 38.9312 57.7586 34.6553C61.8904 32.3058 66.7321 30.355 71.5739 28.4042ZM-4.363 281.34C-6.82921 283.224 -8.74023 284.952 -11.2065 286.836C-11.9165 286.437 -13.1817 286.194 -14.2921 286.504C-25.8867 292.135 -37.6361 297.211 -49.2308 302.841C-47.5388 298.188 -45.1368 293.933 -43.4449 289.28C-42.1797 289.524 -40.669 288.504 -39.8683 287.086C-15.0778 272.989 9.00275 258.493 32.0635 242.491C22.3914 257.139 10.4343 270.037 -4.363 281.34Z" fill="#5B4696"/>
</g>
</g>
<defs>
<filter id="filter0_f" x="-163" y="0" width="334.924" height="362.467" filterUnits="userSpaceOnUse" color-interpolation-filters="sRGB">
<feFlood flood-opacity="0" result="BackgroundImageFix"/>
<feBlend mode="normal" in="SourceGraphic" in2="BackgroundImageFix" result="shape"/>
<feGaussianBlur stdDeviation="7" result="effect1_foregroundBlur"/>
</filter>
<clipPath id="clip0">
<rect x="82.5112" y="14" width="280.086" height="240.389" transform="rotate(74.3803 82.5112 14)" fill="white"/>
</clipPath>
</defs>
</svg>
