<svg width="162" height="270" viewBox="0 0 162 270" fill="none" xmlns="http://www.w3.org/2000/svg">
<g opacity="0.2" filter="url(#filter0_f)">
<g clip-path="url(#clip0)">
<path d="M23.3864 102.355C24.3148 100.767 25.9776 100.656 27.1762 101.339C31.4493 100.864 35.6767 102.745 37.3966 106.637C37.564 107.262 37.6477 107.575 37.8152 108.199C62.5441 108.27 85.7701 114.102 107.094 125.466C91.314 108.263 74.1227 92.1086 58.1109 75.303C57.0151 76.2664 55.436 76.6895 53.2899 76.2599C48.5983 75.1731 42.9402 73.0058 41.285 68.0916C39.8809 64.1147 41.6996 58.2697 46.6043 57.6252C48.2671 57.5145 49.4657 58.1979 49.8006 59.4476C50.0327 59.0506 50.4969 58.2565 51.4443 58.0026C58.3086 55.8285 61.7484 63.613 60.9608 69.5166C61.3604 69.7444 61.3604 69.7444 61.7599 69.9722C67.7909 76.0578 73.822 82.1435 79.853 88.2291C78.837 78.1209 78.8521 68.0712 79.4989 57.8522C79.4152 57.5398 79.0993 57.6244 79.0156 57.312C74.2935 48.5316 67.0638 41.7626 58.1258 37.4604C56.7331 39.8427 54.0582 41.2291 51.1131 40.344C45.5387 38.4891 41.1514 30.9584 44.1688 25.7968C46.4061 21.5139 53.5862 19.2552 56.8205 23.7462C57.0717 24.6835 57.1554 24.9959 57.3228 25.6208C58.2056 26.3888 58.8562 27.5539 59.1074 28.4912C59.7581 29.6562 59.7771 30.9905 59.8799 32.6373C59.8799 32.6373 60.1957 32.5527 60.2794 32.8651C68.4184 36.7116 75.3132 42.231 80.2484 49.28C80.6555 44.483 81.3784 39.6013 82.185 35.032C79.3046 33.125 76.7209 29.799 76.5991 26.818C76.2262 22.8996 78.9468 19.1569 82.5045 18.5385C93.9195 13.1359 100.811 35.0641 89.1901 37.1733C88.8743 37.2579 88.2426 37.4271 87.8431 37.1993C84.5519 56.4982 84.0384 76.0574 86.2189 95.5645C86.3026 95.8769 86.0705 96.274 86.0705 96.274C102.398 112.995 118.726 129.716 133.01 147.654C137.043 152.601 140.761 157.632 144.246 163.06C142.991 158.374 141.735 153.687 141.111 148.832C140.681 140.911 143.428 133.477 147.058 126.812C143.443 123.428 140.357 118.227 142.511 113.632C144.664 109.036 150.201 108.223 153.1 111.464C153.732 111.295 154.363 111.126 155.163 111.581C160.505 113.833 164.306 119.177 162.487 125.022C161.597 129.279 156.86 130.548 152.8 129.292C148.474 137.148 146.925 145.265 148.321 154.267C149.216 161.394 152.637 167.844 152.899 175.14C152.983 175.453 152.751 175.85 152.834 176.162C163.013 195.201 170.285 216.022 174.314 237.378C175.003 241.211 169.319 242.735 168.63 238.901C164.535 218.567 157.914 198.911 148.303 180.725C137.458 170.572 124.293 164.388 109.438 162.007C107.246 163.933 103.772 164.864 101.291 163.185C97.2123 160.594 95.0548 153.806 97.2084 149.21C99.4457 144.927 106.477 143.378 108.764 148.123C108.848 148.436 108.932 148.748 109.099 149.373C110.948 151.221 112.25 153.551 111.972 156.305C122.303 158.225 131.789 162.045 140.662 167.369C136.442 160.463 131.674 154.039 126.591 147.7C124.49 144.914 122.158 142.525 120.141 140.052C119.51 140.221 119.11 139.993 118.311 139.538C94.5332 122.804 66.8286 114.154 37.7429 114.246C36.8982 116.147 35.8861 117.422 34.1586 118.555C30.1558 121.302 24.8972 119.362 22.2298 115.724C19.1629 111.858 20.9817 106.013 23.3864 102.355ZM53.4344 64.1664C51.8553 64.5896 50.6567 63.9062 50.0061 62.7411C49.774 63.1381 49.226 63.6198 48.1949 63.5613C46.8479 63.5873 46.5511 65.0063 46.8023 65.9435C47.3045 67.8181 49.9338 68.7878 51.4482 69.3866C52.2473 69.8422 52.9626 69.9854 54.0775 70.3564C55.1924 70.7274 55.025 70.1025 55.0897 69.0806C55.4701 67.9741 55.6451 63.5741 53.4344 64.1664ZM51.1854 34.2973C51.5849 34.5251 52.0681 35.0653 52.4677 35.2931C52.7835 35.2085 52.8672 35.5209 52.8672 35.5209C53.5635 34.3298 53.5445 32.9954 53.5254 31.6611C53.5064 30.3268 51.6381 27.144 49.9943 28.589C49.7622 28.9861 49.1306 29.1553 48.8148 29.2399C48.6017 30.9713 50.2189 33.2168 51.1854 34.2973ZM87.0858 23.0035C86.5379 23.4852 85.3583 24.1361 84.2434 23.7651L83.9276 23.8497C83.6118 23.9344 83.296 24.019 82.9802 24.1036C82.4322 24.5853 82.0517 25.6918 82.3029 26.6291C82.8052 28.5036 85.2861 30.1828 87.1163 30.697C89.9777 31.2697 89.7988 24.2857 87.0858 23.0035ZM157.655 119.62C156.921 118.142 155.638 117.146 154.04 116.235C152.545 116.971 150.399 116.541 149.896 114.667C149.162 113.189 148.884 115.942 148.652 116.339C148.587 117.361 149.238 118.526 149.805 119.379C150.54 120.856 151.822 121.852 153.104 122.848C153.504 123.076 153.504 123.076 153.903 123.304C153.987 123.616 154.303 123.531 154.386 123.844C157.183 125.439 158.557 121.722 157.655 119.62ZM103.909 157.795C105.024 158.166 105.952 156.578 106.101 155.869C106.23 153.825 103.917 152.771 102.402 152.172C102.402 152.172 102.486 152.484 102.17 152.569C101.79 153.675 102.395 157.197 103.909 157.795ZM30.441 113.524C32.336 113.016 32.4653 110.972 32.3626 109.326C31.7766 107.139 29.6305 106.709 27.6519 106.904C26.1946 110.309 25.7038 114.793 30.441 113.524Z" fill="#5B4696"/>
</g>
</g>
<defs>
<filter id="filter0_f" x="-14" y="-14" width="222.565" height="297.918" filterUnits="userSpaceOnUse" color-interpolation-filters="sRGB">
<feFlood flood-opacity="0" result="BackgroundImageFix"/>
<feBlend mode="normal" in="SourceGraphic" in2="BackgroundImageFix" result="shape"/>
<feGaussianBlur stdDeviation="7" result="effect1_foregroundBlur"/>
</filter>
<clipPath id="clip0">
<rect width="136.342" height="242.907" transform="matrix(-0.965926 0.258819 0.258819 0.965926 131.696 0)" fill="white"/>
</clipPath>
</defs>
</svg>
