<svg width="132" height="270" viewBox="0 0 132 270" fill="none" xmlns="http://www.w3.org/2000/svg">
<g opacity="0.2" filter="url(#filter0_f)">
<g clip-path="url(#clip0)">
<path d="M108.179 102.355C107.25 100.767 105.587 100.656 104.389 101.339C100.116 100.864 95.8883 102.745 94.1683 106.637C94.0009 107.262 93.9172 107.575 93.7498 108.199C69.0208 108.27 45.7948 114.102 24.4713 125.466C40.251 108.263 57.4423 92.1086 73.454 75.303C74.5499 76.2664 76.129 76.6895 78.275 76.2599C82.9666 75.1731 88.6247 73.0058 90.28 68.0916C91.6841 64.1147 89.8653 58.2697 84.9606 57.6252C83.2978 57.5145 82.0992 58.1979 81.7644 59.4476C81.5323 59.0506 81.0681 58.2565 80.1206 58.0026C73.2563 55.8285 69.8165 63.613 70.6041 69.5166C70.2046 69.7444 70.2046 69.7444 69.805 69.9722C63.774 76.0578 57.743 82.1435 51.7119 88.2291C52.728 78.1209 52.7128 68.0712 52.0661 57.8522C52.1498 57.5398 52.4656 57.6244 52.5493 57.312C57.2715 48.5316 64.5011 41.7626 73.4392 37.4604C74.8318 39.8427 77.5067 41.2291 80.4518 40.344C86.0262 38.4891 90.4135 30.9584 87.3962 25.7968C85.1588 21.5139 77.9787 19.2552 74.7444 23.7462C74.4933 24.6835 74.4096 24.9959 74.2421 25.6208C73.3594 26.3888 72.7087 27.5539 72.4576 28.4912C71.8069 29.6562 71.7878 30.9905 71.6851 32.6373C71.6851 32.6373 71.3693 32.5527 71.2856 32.8651C63.1466 36.7116 56.2518 42.231 51.3166 49.28C50.9095 44.483 50.1866 39.6013 49.3799 35.032C52.2604 33.125 54.844 29.799 54.9658 26.818C55.3387 22.8996 52.6182 19.1569 49.0605 18.5385C37.6454 13.1359 30.7543 35.0641 42.3748 37.1733C42.6907 37.2579 43.3223 37.4271 43.7218 37.1993C47.013 56.4982 47.5265 76.0574 45.346 95.5645C45.2623 95.8769 45.4944 96.274 45.4944 96.274C29.1668 112.995 12.8393 129.716 -1.44501 147.654C-5.4784 152.601 -9.19597 157.632 -12.6814 163.06C-11.4257 158.374 -10.17 153.687 -9.54595 148.832C-9.11591 140.911 -11.8631 133.477 -15.493 126.812C-11.8782 123.428 -8.79226 118.227 -10.9459 113.632C-13.0995 109.036 -18.6358 108.223 -21.5353 111.464C-22.1669 111.295 -22.7985 111.126 -23.5976 111.581C-28.9399 113.833 -32.7412 119.177 -30.9224 125.022C-30.0321 129.279 -25.2948 130.548 -21.2348 129.292C-16.9086 137.148 -15.36 145.265 -16.7565 154.267C-17.6508 161.394 -21.0716 167.844 -21.3342 175.14C-21.4179 175.453 -21.1858 175.85 -21.2695 176.162C-31.4482 195.201 -38.7198 216.022 -42.7495 237.378C-43.4383 241.211 -37.7536 242.735 -37.0648 238.901C-32.9704 218.567 -26.3495 198.911 -16.7378 180.725C-5.89332 170.572 7.27217 164.388 22.1271 162.007C24.3187 163.933 27.7927 164.864 30.2736 163.185C34.3527 160.594 36.5102 153.806 34.3566 149.21C32.1192 144.927 25.0876 143.378 22.8007 148.123C22.717 148.436 22.6333 148.748 22.4658 149.373C20.6166 151.221 19.3152 153.551 19.593 156.305C9.26227 158.225 -0.223732 162.045 -9.09713 167.369C-4.87728 160.463 -0.109503 154.039 4.97409 147.7C7.07449 144.914 9.407 142.525 11.4237 140.052C12.0553 140.221 12.4549 139.993 13.2539 139.538C37.0318 122.804 64.7363 114.154 93.822 114.246C94.6667 116.147 95.6789 117.422 97.4063 118.555C101.409 121.302 106.668 119.362 109.335 115.724C112.402 111.858 110.583 106.013 108.179 102.355ZM78.1305 64.1664C79.7096 64.5896 80.9082 63.9062 81.5589 62.7411C81.791 63.1381 82.3389 63.6198 83.3701 63.5613C84.717 63.5873 85.0138 65.0063 84.7627 65.9435C84.2604 67.8181 81.6311 68.7878 80.1167 69.3866C79.3176 69.8422 78.6023 69.9854 77.4874 70.3564C76.3725 70.7274 76.54 70.1025 76.4753 69.0806C76.0948 67.9741 75.9198 63.5741 78.1305 64.1664ZM80.3796 34.2973C79.9801 34.5251 79.4968 35.0653 79.0973 35.2931C78.7815 35.2085 78.6977 35.5209 78.6977 35.5209C78.0014 34.3298 78.0205 32.9954 78.0395 31.6611C78.0585 30.3268 79.9268 27.144 81.5706 28.589C81.8027 28.9861 82.4344 29.1553 82.7502 29.2399C82.9632 30.9713 81.3461 33.2168 80.3796 34.2973ZM44.4792 23.0035C45.0271 23.4852 46.2066 24.1361 47.3215 23.7651L47.6373 23.8497C47.9532 23.9344 48.269 24.019 48.5848 24.1036C49.1327 24.5853 49.5132 25.6918 49.2621 26.6291C48.7598 28.5036 46.2789 30.1828 44.4487 30.697C41.5873 31.2697 41.7662 24.2857 44.4792 23.0035ZM-26.09 119.62C-25.3556 118.142 -24.0733 117.146 -22.4752 116.235C-20.9798 116.971 -18.8337 116.541 -18.3315 114.667C-17.5971 113.189 -17.3193 115.942 -17.0872 116.339C-17.0225 117.361 -17.6732 118.526 -18.2402 119.379C-18.9746 120.856 -20.2569 121.852 -21.5392 122.848C-21.9387 123.076 -21.9387 123.076 -22.3382 123.304C-22.422 123.616 -22.7378 123.531 -22.8215 123.844C-25.6182 125.439 -26.9918 121.722 -26.09 119.62ZM27.6558 157.795C26.5409 158.166 25.6125 156.578 25.4641 155.869C25.3348 153.825 27.6483 152.771 29.1627 152.172C29.1627 152.172 29.0789 152.484 29.3948 152.569C29.7753 153.675 29.1702 157.197 27.6558 157.795ZM101.124 113.524C99.229 113.016 99.0996 110.972 99.2024 109.326C99.7884 107.139 101.934 106.709 103.913 106.904C105.37 110.309 105.861 114.793 101.124 113.524Z" fill="#5B4696"/>
</g>
</g>
<defs>
<filter id="filter0_f" x="-77" y="-14" width="222.565" height="297.918" filterUnits="userSpaceOnUse" color-interpolation-filters="sRGB">
<feFlood flood-opacity="0" result="BackgroundImageFix"/>
<feBlend mode="normal" in="SourceGraphic" in2="BackgroundImageFix" result="shape"/>
<feGaussianBlur stdDeviation="7" result="effect1_foregroundBlur"/>
</filter>
<clipPath id="clip0">
<rect x="-0.130859" width="136.342" height="242.907" transform="rotate(15 -0.130859 0)" fill="white"/>
</clipPath>
</defs>
</svg>
