<svg width="156" height="145" viewBox="0 0 156 145" fill="none" xmlns="http://www.w3.org/2000/svg">
<g opacity="0.2">
<g clip-path="url(#clip0)">
<path d="M101.304 54.7215C86.4504 31.3657 64.5303 13.3183 39.9057 1.52745C38.5112 0.771155 37.0996 1.66757 36.4277 2.81855C35.3563 2.7263 34.3614 3.21324 33.9361 4.44907C19.1186 65.1415 67.3796 112.433 114.936 140.131C115.183 140.216 115.43 140.301 115.43 140.301C115.591 140.633 115.506 140.88 115.421 141.127C115.574 142.286 116.475 142.872 117.3 142.88C117.3 142.88 117.547 142.965 117.462 143.212C118.516 144.957 121.254 143.411 120.2 141.666L120.038 141.334C120.123 141.087 120.293 140.593 120.132 140.261C116.494 125.187 118.553 109.586 117.227 94.2024C115.647 79.5604 108.769 66.6891 101.304 54.7215ZM110.974 132.41C104.172 128.134 97.4549 123.611 91.1543 118.679C96.6557 121.125 102.072 123.818 107.327 126.179C108.543 128.256 109.759 130.333 110.974 132.41ZM113.874 131.196C113.143 130.115 112.497 128.787 111.766 127.706C111.851 127.459 111.936 127.212 111.859 126.633C111.944 126.386 112.114 125.891 111.953 125.559C112.225 123.165 112.744 120.856 113.016 118.462C113.467 122.763 113.424 126.895 113.874 131.196ZM81.9969 110.828C81.7503 110.743 81.5037 110.659 81.2571 110.574C78.8848 108.652 76.5976 106.482 74.3104 104.313C83.6808 107.538 92.711 111.751 101.486 116.705C101.809 117.369 102.217 117.786 102.54 118.45C102.532 119.277 102.94 119.694 103.433 119.863C103.841 120.28 103.918 120.859 104.326 121.276C96.9366 117.904 89.3009 114.447 81.9969 110.828ZM35.9498 25.0452C43.2624 27.838 49.5715 31.9441 54.9536 37.9426C55.2002 38.0275 55.2002 38.0275 55.3618 38.3595C55.3618 38.3595 55.2767 38.6067 55.5233 38.6915C55.5998 39.2707 56.0079 39.6876 56.2545 39.7725C57.6318 42.1815 59.0092 44.5905 60.3865 46.9994C52.6829 42.1371 44.4776 37.9314 36.4338 34.0577C35.8898 30.8297 36.0006 28.1035 35.9498 25.0452ZM36.5201 17.7778C39.8958 18.3865 43.0164 19.7368 45.9669 21.5814C47.5058 24.3224 48.8832 26.7314 50.4221 29.4724C46.0856 26.0452 41.409 23.6066 35.9841 21.7398C36.1627 20.4191 36.3414 19.0984 36.5201 17.7778ZM56.0863 16.2177C54.8019 20.7515 54.2574 25.54 54.291 30.2509C53.1602 27.9268 51.9444 25.8498 50.5671 23.4408C50.6864 19.8882 50.8057 16.3356 50.9251 12.7831C52.7277 13.9562 54.2837 15.0445 56.0863 16.2177ZM66.8934 24.083C66.8083 24.3302 66.7233 24.5774 66.6382 24.8245C65.8978 32.5863 65.404 40.433 64.6636 48.1948C62.3935 44.3729 60.37 40.6358 58.1 36.8139C57.012 30.3579 57.2421 24.0791 58.7902 17.9774C61.6557 20.0692 64.2745 22.0761 66.8934 24.083ZM80.1321 36.1023C79.5538 36.1798 79.0521 36.8364 79.1286 37.4156C78.2774 47.9036 77.5113 58.1445 76.6601 68.6325C73.7439 63.4825 70.5811 58.2477 67.6649 53.0976C68.4989 44.2623 69.0863 35.3421 69.9204 26.5068C73.3555 29.3475 76.8671 32.7673 80.1321 36.1023ZM90.6497 48.0146C90.5647 48.2617 90.4796 48.5089 90.3945 48.7561C88.948 60.9743 87.8331 73.0302 86.3866 85.2484C83.8699 81.3416 81.6849 77.2725 79.1682 73.3657C80.1981 61.557 81.1429 49.9954 82.1727 38.1867C85.1911 41.4368 87.9629 44.6021 90.6497 48.0146ZM63.7109 52.5663C67.0352 58.1332 70.2745 63.9473 73.5989 69.5142C62.7068 61.896 51.4744 55.2665 39.2386 49.9503L38.992 49.8654C37.8784 45.8886 37.0964 41.7494 36.3144 37.6102C45.8378 41.9931 54.8594 47.0325 63.7109 52.5663ZM76.1749 75.6528C76.2514 76.232 76.9911 76.4866 77.5694 76.4091C79.3548 79.235 81.0553 82.308 82.8407 85.1339C71.6084 78.5044 59.8657 73.3579 47.3662 69.6095C47.3662 69.6095 47.3662 69.6095 47.1196 69.5247C44.45 64.4595 42.112 59.232 40.4373 53.6799C52.9962 59.6602 65.1298 66.8763 76.1749 75.6528ZM85.8334 90.8631L86.08 90.948C87.4574 93.357 88.8347 95.766 90.2121 98.175C79.8045 91.5528 68.47 86.8232 56.1234 84.2332C53.6832 80.9056 51.3281 77.3309 49.2196 73.8409C62.1272 78.0062 74.278 83.5696 85.8334 90.8631ZM93.8595 104.406C95.2368 106.815 96.6992 108.977 98.0766 111.386C89.2165 106.678 79.7696 102.875 70.0676 99.8125C69.821 99.7276 69.5744 99.6428 69.4894 99.8899C65.8162 96.1381 62.4748 92.2239 59.1333 88.3097C71.888 91.3166 83.4605 96.9574 93.8595 104.406ZM103.008 113.083C101.308 110.01 99.2759 107.099 97.5755 104.026C98.7069 98.3338 99.5066 92.8039 100.391 87.0268C100.842 83.3119 101.378 79.3498 101.829 75.6349C102.187 72.9936 101.575 68.3601 102.595 65.3941C103.403 67.0542 104.296 68.4671 105.104 70.1272C104.788 84.6696 104.31 98.8799 103.008 113.083ZM100.402 62.1513C100.317 62.3985 100.07 62.3136 99.9852 62.5608C97.7145 66.7552 98.5472 73.9527 98.0877 78.4939C97.2708 85.6765 96.2073 92.7743 94.8973 99.7872C93.0353 96.3821 90.8417 93.1394 88.9798 89.7343C90.3498 76.9369 91.7198 64.1396 93.0899 51.3422C94.3908 53.172 95.6916 55.0018 96.9925 56.8316C98.2933 58.6614 99.3476 60.4064 100.402 62.1513ZM47.8895 11.1856C47.8638 13.6647 47.6766 15.8117 47.6509 18.2908C45.5423 14.8009 43.7654 11.1486 41.6569 7.65873C43.7911 8.66958 45.8403 9.9276 47.8895 11.1856ZM38.026 7.79146C39.7264 10.8645 41.2653 13.6055 42.9657 16.6786C41.078 15.7526 38.8587 14.9889 36.8009 14.5572C36.9882 12.4102 37.5071 10.1008 38.026 7.79146ZM112.865 101.271C112.933 102.676 113.085 103.834 113.153 105.24C112.822 105.402 112.405 105.812 112.235 106.306C111.35 112.083 110.219 117.775 109.334 123.553C108.033 121.723 107.064 119.731 105.763 117.901C106.18 117.491 106.188 116.665 105.865 116.001C106.989 103.119 107.781 90.3988 107.748 77.6714C110.723 85.0533 112.457 92.8373 112.865 101.271Z" fill="#5B4696"/>
</g>
</g>
<defs>
<clipPath id="clip0">
<rect x="35.467" width="127" height="109" transform="rotate(18.9889 35.467 0)" fill="white"/>
</clipPath>
</defs>
</svg>
