<svg width="121" height="137" viewBox="0 0 121 137" fill="none" xmlns="http://www.w3.org/2000/svg">
<g opacity="0.2">
<g clip-path="url(#clip0)">
<path d="M85.7083 82.5089C100.896 59.3693 108.341 31.9689 108.97 4.67419C109.086 3.0921 107.689 2.1736 106.363 2.03413C106.007 1.01947 105.154 0.312565 103.853 0.432766C42.4332 11.8672 19.1541 75.2996 13.4472 130.038C13.4711 130.298 13.4951 130.557 13.4951 130.557C13.2588 130.841 12.9986 130.865 12.7383 130.889C11.7451 131.505 11.5808 132.567 11.913 133.322C11.913 133.322 11.937 133.582 11.6767 133.606C10.5192 135.284 13.0536 137.145 14.2111 135.467L14.4474 135.183C14.7077 135.159 15.2283 135.111 15.4646 134.828C27.7112 125.316 42.7801 120.781 56.2598 113.251C68.9586 105.793 77.866 94.2327 85.7083 82.5089ZM18.8581 123.253C19.9605 115.294 21.3233 107.312 23.2306 99.5408C23.2616 105.561 23.0324 111.606 23.0395 117.367C21.6457 119.329 20.2519 121.291 18.8581 123.253ZM21.1562 125.398C21.8411 124.287 22.7863 123.152 23.4712 122.041C23.7315 122.017 23.9918 121.993 24.4884 121.685C24.7486 121.661 25.2692 121.613 25.5055 121.329C27.8001 120.594 30.1186 120.118 32.4132 119.382C28.6769 121.56 24.8925 123.219 21.1562 125.398ZM26.6241 87.9661C26.6001 87.7064 26.5761 87.4467 26.5521 87.187C27.3294 84.2345 28.367 81.2578 29.4046 78.2812C30.316 88.1489 30.1862 98.1127 29.2757 108.149C28.8031 108.716 28.5907 109.259 28.1181 109.827C27.3613 110.159 27.149 110.702 27.1969 111.221C26.9846 111.765 26.488 112.073 26.2757 112.616C26.3131 104.494 26.3264 96.1122 26.6241 87.9661ZM85.904 10.7329C86.3633 18.5472 85.2128 25.9864 81.9562 33.3582C81.9802 33.6179 81.9802 33.6179 81.7439 33.9016C81.7439 33.9016 81.4836 33.9257 81.5076 34.1853C81.011 34.4931 80.7987 35.0365 80.8226 35.2962C79.1925 37.5418 77.5624 39.7875 75.9323 42.0332C77.1991 33.0119 77.6611 23.8031 77.8868 14.878C80.606 13.0555 83.1369 12.0361 85.904 10.7329ZM92.7638 8.26613C93.5961 11.5938 93.6477 14.9936 93.1786 18.4415C91.3122 20.9709 89.6821 23.2166 87.8157 25.746C89.158 20.3842 89.4591 15.1186 88.9315 9.40575C90.2089 9.02588 91.4864 8.646 92.7638 8.26613ZM102.227 25.4625C97.5661 26.1549 92.9769 27.6263 88.696 29.5931C90.3501 27.607 91.7439 25.6451 93.374 23.3994C96.6618 22.0482 99.9495 20.697 103.237 19.3457C102.909 21.4712 102.556 23.337 102.227 25.4625ZM99.4981 38.5472C99.2379 38.5712 98.9776 38.5953 98.7173 38.6193C91.337 41.1342 83.9806 43.9088 76.6003 46.4236C79.1516 42.7834 81.727 39.4029 84.2783 35.7627C89.7167 32.1177 95.5353 29.747 101.734 28.6507C101.005 32.1227 100.251 35.3349 99.4981 38.5472ZM93.9815 55.5558C93.6733 55.0605 92.8684 54.8729 92.3718 55.1807C82.4606 58.715 72.8097 62.2253 62.8985 65.7596C66.395 60.9845 69.8676 55.9498 73.3641 51.1747C81.7616 48.304 90.135 45.1736 98.5325 42.3028C97.3546 46.6019 95.68 51.2087 93.9815 55.5558ZM87.4442 70.0398C87.1839 70.0638 86.9236 70.0878 86.6633 70.1119C74.9301 73.8145 63.4812 77.7527 51.748 81.4553C54.2754 77.5554 57.087 73.8912 59.6143 69.9913C70.8029 66.0771 81.7313 62.1869 92.9199 58.2727C91.1974 62.3602 89.4509 66.188 87.4442 70.0398ZM72.2235 47.3517C68.5146 52.6701 64.5455 58.0127 60.8367 63.3311C63.3054 50.2705 64.7331 37.306 64.551 23.9664L64.527 23.7067C67.6948 21.0571 71.1469 18.6432 74.599 16.2292C74.5173 26.7124 73.6306 37.008 72.2235 47.3517ZM56.2991 68.2024C55.8025 68.5101 55.8744 69.2891 56.1827 69.7845C54.3402 72.5735 52.2375 75.3866 50.3951 78.1757C51.8227 65.2112 51.6886 52.391 49.9689 39.4553C49.9689 39.4553 49.9689 39.4553 49.9449 39.1956C53.4654 34.6802 57.2702 30.4005 61.6435 26.592C61.3529 40.499 59.761 54.5262 56.2991 68.2024ZM46.402 83.2585L46.426 83.5182C44.7959 85.7639 43.1658 88.0096 41.5357 90.2553C43.2955 78.0458 42.9491 65.7689 40.2362 53.4488C42.267 49.8566 44.558 46.2404 46.873 42.8839C48.3805 56.363 48.3022 69.7266 46.402 83.2585ZM37.3543 96.1412C35.7241 98.3868 34.3543 100.608 32.7242 102.854C33.3745 92.8423 32.9597 82.6669 31.764 72.5636C31.7401 72.3039 31.7161 72.0442 31.4558 72.0683C33.3666 67.1778 35.5617 62.5229 37.7568 57.868C40.2574 70.7316 39.871 83.5999 37.3543 96.1412ZM33.2039 108.048C35.3066 105.235 37.125 102.186 39.2277 99.3727C44.882 98.0648 50.252 96.5212 55.8823 94.9537C59.4543 93.8381 63.2866 92.6984 66.8586 91.5829C69.4135 90.8231 73.3861 88.3611 76.5095 88.0726C75.328 89.4912 74.4068 90.8857 73.2253 92.3043C59.8381 97.9929 46.6871 103.398 33.2039 108.048ZM78.5643 84.7401C78.304 84.7642 78.28 84.5045 78.0197 84.5285C73.2627 84.1822 67.0434 87.8993 62.7145 89.3467C55.8308 91.5538 48.9231 93.5013 41.9914 95.1891C44.3304 92.0923 46.3851 88.7598 48.7241 85.663C60.9539 81.6526 73.1836 77.6423 85.4134 73.6319C84.2799 75.5698 83.1464 77.5078 82.0128 79.4457C80.8793 81.3836 79.7218 83.0619 78.5643 84.7401ZM103.446 15.9219C101.175 16.9173 99.1411 17.6289 96.8705 18.6243C99.1856 15.2678 101.785 12.147 104.1 8.79045C104.055 11.1516 103.751 13.5367 103.446 15.9219ZM102.487 5.53487C100.384 8.34799 98.5175 10.8774 96.4148 13.6905C96.4832 11.5891 96.2674 9.25198 95.8152 7.19862C97.8495 6.48695 100.168 6.01091 102.487 5.53487ZM48.0231 112.179C46.7697 112.818 45.7765 113.434 44.5231 114.073C44.2388 113.838 43.6942 113.626 43.1737 113.674C37.5434 115.242 31.8891 116.55 26.2588 118.117C27.3923 116.179 28.8101 114.477 29.9437 112.539C30.4882 112.751 31.2451 112.419 31.7177 111.851C43.9235 107.581 55.845 103.076 67.4342 97.8151C61.9274 103.561 55.5438 108.341 48.0231 112.179Z" fill="#5B4696"/>
</g>
</g>
<defs>
<clipPath id="clip0">
<rect x="108.538" width="127" height="109" transform="rotate(84.723 108.538 0)" fill="white"/>
</clipPath>
</defs>
</svg>
