<svg width="391" height="377" viewBox="0 0 391 377" fill="none" xmlns="http://www.w3.org/2000/svg">
<g opacity="0.1" filter="url(#filter0_f)">
<g clip-path="url(#clip0)">
<path d="M253.667 160.193C231.351 103.376 191.5 55.0734 143.16 19.1761C140.459 16.9514 137.026 18.2974 135.087 20.506C132.806 19.855 130.447 20.49 129.006 22.9862C71.3636 148.132 155.918 270.837 247.202 350.831C247.7 351.119 248.198 351.406 248.198 351.406C248.408 352.193 248.12 352.692 247.831 353.191C247.675 355.763 249.379 357.413 251.161 357.776C251.161 357.776 251.659 358.064 251.371 358.563C252.918 362.785 259.497 360.592 257.95 356.371L257.74 355.584C258.028 355.085 258.605 354.086 258.395 353.299C256.868 319.135 267.897 286.229 271.508 252.369C274.254 220.006 264.786 189.245 253.667 160.193ZM241.878 332.447C228.953 320.325 216.317 307.705 204.755 294.373C215.634 301.985 226.225 310.097 236.606 317.422C238.363 322.43 240.121 327.439 241.878 332.447ZM248.666 331.041C247.539 328.393 246.699 325.246 245.572 322.598C245.86 322.099 246.148 321.6 246.226 320.313C246.515 319.814 247.091 318.816 246.881 318.029C248.479 312.961 250.575 308.18 252.173 303.112C251.336 312.613 249.503 321.54 248.666 331.041ZM188.238 273.521C187.74 273.233 187.242 272.946 186.744 272.658C182.418 267.498 178.38 261.838 174.343 256.179C193.269 267.106 211.043 280.031 227.952 294.453C228.372 296.026 229.08 297.101 229.5 298.674C229.133 300.46 229.841 301.534 230.837 302.109C231.545 303.184 231.466 304.47 232.174 305.544C217.599 295.132 202.525 284.432 188.238 273.521ZM124.69 68.421C139.343 77.5471 151.272 89.0936 160.396 104.346C160.894 104.634 160.894 104.634 161.104 105.421C161.104 105.421 160.816 105.92 161.314 106.208C161.236 107.494 161.944 108.568 162.442 108.855C164.409 114.651 166.376 120.446 168.342 126.241C153.714 112.47 137.722 99.9091 121.941 88.135C122.123 80.918 123.511 75.0629 124.69 68.421ZM128.985 52.9286C136.037 55.6685 142.224 59.906 147.834 65.142C150.011 71.724 151.977 77.5192 154.154 84.1012C146.21 74.8552 137.114 67.6063 126.156 61.2799C127.099 58.4961 128.042 55.7124 128.985 52.9286ZM171.999 57.7933C167.309 67.0671 164.113 77.2037 162.202 87.4161C160.733 81.9085 158.976 76.9001 157.009 71.105C158.764 63.4646 160.518 55.8243 162.273 48.1839C165.681 51.4829 168.591 54.4943 171.999 57.7933ZM192.082 79.3724C191.793 79.8717 191.505 80.3709 191.217 80.8701C186.344 97.361 181.97 114.139 177.098 130.63C173.794 121.4 170.987 112.458 167.683 103.228C168.047 88.794 171.19 75.2986 177.112 62.7417C182.434 68.477 187.258 73.9247 192.082 79.3724ZM215.678 110.968C214.393 110.892 213.031 112.103 212.952 113.389C206.692 135.735 200.72 157.581 194.459 179.927C190.315 167.55 185.674 154.885 181.53 142.508C187.057 123.733 192.086 104.67 197.613 85.8945C203.853 93.4909 210.014 102.373 215.678 110.968ZM233.429 141.186C233.14 141.686 232.852 142.185 232.564 142.684C224.286 168.525 216.794 194.154 208.516 219.994C204.713 210.477 201.697 200.748 197.895 191.23C205.098 166.1 212.014 141.47 219.217 116.34C224.383 124.648 229.05 132.667 233.429 141.186ZM173.194 139.693C178.046 153.144 182.609 167.095 187.461 180.546C167.09 159.466 145.567 140.383 121.318 123.721L120.82 123.433C120.085 114.355 120.135 105.065 120.186 95.7753C138.956 109.275 156.363 123.984 173.194 139.693ZM190.451 194.92C190.373 196.206 191.867 197.069 193.152 197.145C195.826 204.015 198.213 211.383 200.888 218.253C179.365 199.17 156.112 183.082 130.632 169.703C130.632 169.703 130.632 169.703 130.134 169.415C126.488 157.326 123.629 145.024 122.342 132.3C147.011 150.536 170.238 171.268 190.451 194.92ZM204.953 231.916L205.451 232.204C207.418 237.999 209.385 243.794 211.352 249.589C191.611 230.87 169.067 215.857 143.43 205.049C139.549 196.817 135.956 188.087 132.862 179.644C159.05 194.098 183.01 211.26 204.953 231.916ZM216.623 264.614C218.59 270.409 220.845 275.705 222.812 281.501C205.615 267.578 186.767 255.364 167.054 244.649C166.556 244.361 166.057 244.074 165.769 244.573C159.398 234.903 153.813 225.023 148.228 215.142C174.573 227.024 197.249 244.11 216.623 264.614ZM232.774 287.252C230.387 279.883 227.214 272.726 224.828 265.357C229.675 253.511 233.735 241.877 238.084 229.743C240.625 221.891 243.455 213.54 245.996 205.688C247.882 200.121 248.509 189.832 251.968 183.841C253.017 187.775 254.355 191.21 255.404 195.144C248.595 226.492 241.575 257.054 232.774 287.252ZM248.585 175.897C248.297 176.397 247.799 176.109 247.511 176.608C240.828 184.732 239.599 200.664 236.691 210.301C231.898 225.506 226.606 240.423 220.815 255.053C218.219 246.897 214.836 238.953 212.24 230.798C220.596 203.671 228.953 176.544 237.309 149.418C239.355 153.927 241.4 158.436 243.445 162.945C245.491 167.454 247.038 171.676 248.585 175.897ZM156.375 43.4471C155.275 48.8029 153.965 53.372 152.865 58.7278C149.771 50.2847 147.462 41.6299 144.368 33.1867C148.562 36.274 152.469 39.8606 156.375 43.4471ZM136.452 31.9446C138.838 39.3134 141.015 45.8954 143.402 53.2641C139.705 50.4644 135.223 47.8763 130.95 46.0751C132.26 41.506 134.356 36.7253 136.452 31.9446ZM259.086 265.833C258.641 268.904 258.485 271.476 258.04 274.547C257.253 274.759 256.179 275.47 255.602 276.468C251.253 288.602 246.406 300.448 242.057 312.581C240.012 308.072 238.753 303.351 236.708 298.842C237.782 298.131 238.149 296.346 237.729 294.772C245.588 267.358 252.66 240.156 257.95 212.59C261.282 229.823 261.757 247.405 259.086 265.833Z" fill="#5B4696"/>
</g>
</g>
<defs>
<filter id="filter0_f" x="0" y="0" width="390.756" height="376.226" filterUnits="userSpaceOnUse" color-interpolation-filters="sRGB">
<feFlood flood-opacity="0" result="BackgroundImageFix"/>
<feBlend mode="normal" in="SourceGraphic" in2="BackgroundImageFix" result="shape"/>
<feGaussianBlur stdDeviation="7" result="effect1_foregroundBlur"/>
</filter>
<clipPath id="clip0">
<rect x="134.194" y="14" width="280.086" height="240.389" transform="rotate(30 134.194 14)" fill="white"/>
</clipPath>
</defs>
</svg>
