<svg width="127" height="270" viewBox="0 0 127 270" fill="none" xmlns="http://www.w3.org/2000/svg">
<g opacity="0.2" filter="url(#filter0_f)">
<g clip-path="url(#clip0)">
<path d="M171.179 102.355C170.25 100.766 168.587 100.656 167.389 101.339C163.116 100.864 158.888 102.745 157.168 106.637C157.001 107.262 156.917 107.574 156.75 108.199C132.021 108.27 108.795 114.102 87.4713 125.466C103.251 108.263 120.442 92.1085 136.454 75.303C137.55 76.2663 139.129 76.6894 141.275 76.2599C145.967 75.173 151.625 73.0057 153.28 68.0915C154.684 64.1146 152.865 58.2696 147.961 57.6251C146.298 57.5144 145.099 58.1978 144.764 59.4475C144.532 59.0505 144.068 58.2564 143.121 58.0025C136.256 55.8284 132.817 63.6129 133.604 69.5165C133.205 69.7443 133.205 69.7443 132.805 69.9721C126.774 76.0578 120.743 82.1434 114.712 88.2291C115.728 78.1208 115.713 68.0711 115.066 57.8522C115.15 57.5397 115.466 57.6243 115.549 57.3119C120.271 48.5316 127.501 41.7625 136.439 37.4604C137.832 39.8426 140.507 41.2291 143.452 40.344C149.026 38.4891 153.413 30.9584 150.396 25.7968C148.159 21.5139 140.979 19.2551 137.744 23.7462C137.493 24.6834 137.41 24.9959 137.242 25.6207C136.359 26.3887 135.709 27.5538 135.458 28.4911C134.807 29.6562 134.788 30.9905 134.685 32.6372C134.685 32.6372 134.369 32.5526 134.286 32.865C126.147 36.7116 119.252 42.2309 114.317 49.2799C113.909 44.4829 113.187 39.6012 112.38 35.032C115.26 33.1249 117.844 29.799 117.966 26.8179C118.339 22.8996 115.618 19.1569 112.06 18.5385C100.645 13.1358 93.7543 35.0641 105.375 37.1732C105.691 37.2578 106.322 37.4271 106.722 37.1993C110.013 56.4982 110.526 76.0574 108.346 95.5644C108.262 95.8768 108.494 96.2739 108.494 96.2739C92.1668 112.995 75.8393 129.716 61.555 147.654C57.5216 152.6 53.804 157.632 50.3186 163.06C51.5743 158.374 52.83 153.687 53.4541 148.832C53.8841 140.91 51.1369 133.477 47.507 126.812C51.1218 123.428 54.2077 118.227 52.0541 113.632C49.9005 109.036 44.3642 108.223 41.4647 111.464C40.8331 111.295 40.2015 111.126 39.4024 111.581C34.0601 113.833 30.2588 119.177 32.0776 125.022C32.9679 129.279 37.7052 130.548 41.7652 129.292C46.0914 137.148 47.64 145.265 46.2435 154.266C45.3492 161.394 41.9284 167.844 41.6658 175.14C41.5821 175.453 41.8142 175.85 41.7305 176.162C31.5518 195.2 24.2802 216.022 20.2505 237.378C19.5617 241.211 25.2464 242.735 25.9352 238.901C30.0296 218.567 36.6505 198.911 46.2622 180.725C57.1067 170.571 70.2722 164.388 85.1271 162.006C87.3187 163.933 90.7927 164.864 93.2736 163.185C97.3527 160.594 99.5102 153.806 97.3566 149.21C95.1192 144.927 88.0876 143.378 85.8007 148.123C85.717 148.435 85.6333 148.748 85.4658 149.373C83.6166 151.221 82.3152 153.551 82.593 156.305C72.2623 158.224 62.7763 162.045 53.9029 167.369C58.1227 160.463 62.8905 154.039 67.9741 147.7C70.0745 144.914 72.407 142.525 74.4237 140.052C75.0553 140.221 75.4549 139.993 76.2539 139.538C100.032 122.804 127.736 114.154 156.822 114.246C157.667 116.147 158.679 117.422 160.406 118.555C164.409 121.302 169.668 119.362 172.335 115.724C175.402 111.858 173.583 106.013 171.179 102.355ZM141.131 64.1664C142.71 64.5895 143.908 63.9061 144.559 62.741C144.791 63.1381 145.339 63.6197 146.37 63.5612C147.717 63.5873 148.014 65.0062 147.763 65.9435C147.26 67.818 144.631 68.7878 143.117 69.3866C142.318 69.8422 141.602 69.9853 140.487 70.3563C139.373 70.7273 139.54 70.1024 139.475 69.0805C139.095 67.974 138.92 63.574 141.131 64.1664ZM143.38 34.2972C142.98 34.525 142.497 35.0652 142.097 35.293C141.781 35.2084 141.698 35.5208 141.698 35.5208C141.001 34.3297 141.02 32.9954 141.04 31.6611C141.059 30.3267 142.927 27.1439 144.571 28.5889C144.803 28.986 145.434 29.1552 145.75 29.2399C145.963 30.9712 144.346 33.2168 143.38 34.2972ZM107.479 23.0034C108.027 23.4851 109.207 24.136 110.322 23.765L110.637 23.8497C110.953 23.9343 111.269 24.0189 111.585 24.1035C112.133 24.5852 112.513 25.6917 112.262 26.629C111.76 28.5035 109.279 30.1828 107.449 30.6969C104.587 31.2696 104.766 24.2856 107.479 23.0034ZM36.91 119.62C37.6444 118.142 38.9267 117.146 40.5248 116.235C42.0202 116.971 44.1663 116.541 44.6685 114.666C45.4029 113.189 45.6807 115.942 45.9128 116.339C45.9775 117.361 45.3268 118.526 44.7598 119.379C44.0254 120.856 42.7431 121.852 41.4608 122.848C41.0613 123.076 41.0613 123.076 40.6618 123.304C40.578 123.616 40.2622 123.531 40.1785 123.844C37.3818 125.438 36.0082 121.722 36.91 119.62ZM90.6558 157.795C89.5409 158.166 88.6125 156.578 88.4641 155.869C88.3348 153.825 90.6483 152.771 92.1627 152.172C92.1627 152.172 92.0789 152.484 92.3948 152.569C92.7753 153.675 92.1702 157.197 90.6558 157.795ZM164.124 113.524C162.229 113.016 162.1 110.972 162.202 109.325C162.788 107.139 164.934 106.709 166.913 106.904C168.37 110.308 168.861 114.793 164.124 113.524Z" fill="#5B4696"/>
</g>
</g>
<defs>
<filter id="filter0_f" x="-13.9999" y="-14" width="222.565" height="297.918" filterUnits="userSpaceOnUse" color-interpolation-filters="sRGB">
<feFlood flood-opacity="0" result="BackgroundImageFix"/>
<feBlend mode="normal" in="SourceGraphic" in2="BackgroundImageFix" result="shape"/>
<feGaussianBlur stdDeviation="7" result="effect1_foregroundBlur"/>
</filter>
<clipPath id="clip0">
<rect x="62.8691" width="136.342" height="242.907" transform="rotate(15 62.8691 0)" fill="white"/>
</clipPath>
</defs>
</svg>
