<svg width="246" height="395" viewBox="0 0 246 395" fill="none" xmlns="http://www.w3.org/2000/svg">
<g opacity="0.2" filter="url(#filter0_f)">
<g clip-path="url(#clip0)">
<path d="M72.8493 187.754C72.9808 187.981 73.3394 188.078 73.698 188.174C113.074 197.61 135.928 147.997 153.5 121.767C154.469 120.297 153.944 119.386 153.191 118.607C153.059 118.379 153.155 118.02 153.155 118.02C149.56 109.17 142.615 107.11 135.035 108.148C132.672 98.2835 129.184 91.1926 120.364 85.3595C111.674 79.754 100.473 79.241 90.7523 81.8182C90.1665 81.853 89.8435 82.3429 89.3891 82.6053C82.3372 78.786 74.4477 76.6642 66.5337 76.074C53.8198 60.3492 30.6881 57.0124 14.0782 68.1196C13.851 68.2508 13.6238 68.3819 13.528 68.7407C11.6993 67.6721 9.77483 66.9622 7.85035 66.2524C6.93045 64.6591 4.77877 64.0804 3.84546 66.1367C-5.22482 87.1549 -5.96234 107.914 -1.77506 130.383C1.70839 149.009 7.02056 168.704 25.009 178.349C25.4991 178.673 26.4435 178.734 26.8979 178.472C30.3147 184.39 34.6046 189.197 41.0953 191.519C31.8334 213.255 23.2888 235.184 15.82 257.402C15.2699 258.023 14.3611 258.548 13.8109 259.169C12.8063 260.052 12.7462 260.997 13.2718 261.908C13.0803 262.626 13.0201 263.571 13.6415 264.122C10.5654 273.486 7.62061 283.077 4.80727 292.895C3.43068 297.332 2.41271 301.865 1.52614 306.626C-1.06846 277.471 -4.44042 249.069 -22.2795 224.467C-23.6894 222.55 -26.9058 223.8 -26.799 225.559C-27.0261 225.69 -27.1219 226.049 -26.9905 226.276C-31.7195 243.271 -31.272 260.311 -26.2694 276.846C-22.8549 288.532 -14.0279 308.018 -2.33853 314.623C-2.43431 314.982 -2.30289 315.209 -2.39867 315.568C-2.32742 316.741 -1.57456 317.52 -0.498721 317.81C-3.31664 339.163 -1.54387 360.598 12.257 378.73C14.0612 381.331 17.4936 377.831 15.6895 375.231C-4.50397 348.65 2.74219 315.028 11.4451 286.028C13.4921 279.08 15.6706 272.359 17.7177 265.411C44.1838 271.375 72.931 252.957 93.3321 238.447C94.5638 237.432 94.5884 235.901 94.0627 234.99C94.2186 233.686 93.5259 231.962 91.7685 232.066C66.7591 230.724 42.7386 237.915 22.3019 251.839C29.196 231.773 37.0345 211.77 45.4944 192.318C55.4041 194.791 64.6702 192.476 72.8493 187.754ZM-23.1354 272.306C-27.2426 258.895 -27.0576 244.525 -23.7764 230.794C-9.27175 252.769 -5.98215 277.88 -3.60134 303.516C-10.7912 285.816 -15.6735 267.39 -18.4754 248.371C-18.7137 246.384 -21.8343 247.275 -21.596 249.262C-18.6627 268.509 -13.649 287.162 -6.32771 305.09C-14.7406 296.29 -20.2221 281.549 -23.1354 272.306ZM87.8215 236.773C69.6567 249.384 45.4178 264.593 22.6448 261.352C35.869 256.449 49.2246 251.773 62.676 246.738C64.6251 245.916 63.8611 243.019 61.7807 243.613C48.5564 248.517 34.9736 253.324 21.7494 258.227C40.7516 243.918 63.6963 236.437 87.8215 236.773ZM148.409 119.243C148.54 119.471 148.803 119.926 148.934 120.154C140.405 132.665 132.235 145.273 123.575 157.557C115.01 169.482 103.481 180.994 89.3011 183.718C107.753 170.03 121.234 151.928 134.547 133.013C135.516 131.543 132.707 129.826 131.511 131.427C117.779 151.191 103.652 170.273 83.3116 183.838C83.0844 183.969 82.8572 184.1 82.9886 184.328C81.4583 184.301 79.5695 184.177 77.9078 183.923C97.1017 168.896 110.945 139.355 117.289 119.911C117.516 119.78 117.744 119.649 117.744 119.649C126.15 114.796 142.903 106.034 148.409 119.243ZM117.78 89.2792C125.322 93.4225 128.26 101.135 130.026 108.916C127.718 109.641 125.183 110.498 122.78 111.582C123.976 109.981 125.041 108.152 126.106 106.323C127.17 104.495 124.362 102.778 123.297 104.607C121.718 107.643 119.552 110.714 117.483 113.426C117.16 113.916 117.064 114.275 117.196 114.502C116.969 114.634 116.741 114.765 116.741 114.765C116.61 114.537 116.383 114.668 116.156 114.8C118.011 108.569 119.771 102.697 121.626 96.4665C122.332 94.5414 119.105 93.6734 118.399 95.5985C116.926 100.394 115.681 105.058 114.209 109.854C113.91 108.812 113.253 107.674 112.728 106.763C113.124 101.679 113.521 96.5939 114.049 91.7367C114.169 89.8463 111.109 89.7924 110.761 91.8139C110.616 95.2359 110.113 98.5615 109.968 101.983C109.311 100.845 108.427 99.8385 107.901 98.928C107.997 98.5692 108.093 98.2104 108.057 97.624C107.794 97.1688 107.627 96.3548 107.364 95.8995L107.46 95.5408C107.616 94.2368 107.64 92.7052 107.796 91.4012C108.144 89.3796 104.856 89.4568 104.509 91.4784C104.449 92.4236 104.293 93.7276 104.232 94.6728C101.317 91.1968 97.9824 88.5696 94.4208 86.0735C102.647 84.0557 110.369 85.3635 117.78 89.2792ZM59.827 76.0008C55.9535 76.1127 52.1156 76.8111 48.4092 77.737C48.9238 76.5295 49.0797 75.2255 49.0084 74.0527C48.7701 72.0658 45.7097 72.0119 45.7208 74.1299C45.8277 75.8891 45.2173 77.4554 43.9856 78.4701C43.5312 78.7324 43.4354 79.0912 43.3396 79.45C42.658 79.8435 42.0722 79.8783 41.3906 80.2718C42.5155 77.4979 43.186 74.9864 43.8208 71.8884C44.1683 69.8669 41.168 68.8677 40.5933 71.0204C39.8627 74.4772 38.9048 78.0651 37.457 81.3289C37.3612 81.6877 37.3612 81.6877 37.2654 82.0465C35.9022 82.8335 34.539 83.6206 33.1758 84.4076C33.5835 81.4408 34.3498 78.5705 35.3432 75.569C36.408 73.7403 33.1804 72.8723 32.4743 74.7975C31.2537 77.9301 30.523 81.3869 30.0196 84.7124C29.4939 83.8019 28.9683 82.8915 28.2154 82.1122C28.2645 79.049 28.6721 76.0822 29.2112 73.3431C29.5587 71.3215 26.6898 70.5499 25.9837 72.4751C25.5047 74.269 25.1572 76.2906 25.0369 78.181C22.647 75.6155 20.3884 73.2776 17.4482 71.3332C31.5345 63.2005 48.474 65.2566 59.827 76.0008ZM21.4497 170.085C21.5455 169.726 21.4141 169.499 21.2827 169.271C9.36186 143.377 11.035 114.793 14.764 87.1469C15.1115 85.1254 11.884 84.2574 11.5365 86.2789C7.96341 112.621 6.542 139.542 15.8211 164.533C8.05424 154.754 5.25007 141.502 2.61296 129.064C-1.43179 108.941 -0.814577 90.0715 6.73658 71.1443C15.6418 74.5006 22.7404 81.0243 27.017 89.4809C19.37 108.767 16.6123 129.175 18.8038 149.761C19.5544 156.308 20.8662 164.352 23.6727 171.836C22.9198 171.057 22.0712 170.637 21.4497 170.085ZM22.8489 138.928C22.2098 122.605 25.5756 106.398 31.5832 91.0934C41.7002 83.4314 53.1424 80.1636 64.2127 80.449C64.8341 81.0007 65.6471 80.8348 66.3287 80.4412C86.8789 81.9302 105.93 95.5138 112.365 118.202C112.496 118.43 112.759 118.885 112.89 119.113C104.141 145.409 82.4005 190.13 50.6487 188.128C69.5306 175.709 84.5169 159.166 95.2844 138.989C96.3492 137.16 93.5404 135.444 92.4757 137.272C82.0311 156.96 67.1407 173.144 48.7131 185.3C64.2518 162.369 75.5117 136.748 81.751 109.777C82.0985 107.755 79.2296 106.984 78.5235 108.909C72.2842 135.88 61.1201 161.142 45.5814 184.074C44.2051 157.554 47.4196 131.116 55.1646 105.703C55.8708 103.778 52.6432 102.91 51.9371 104.835C43.9048 131.324 40.6301 158.708 42.4362 186.496C42.4362 186.496 42.4362 186.496 42.3048 186.269C33.2996 163.85 31.2173 139.256 36.3317 115.059C36.6792 113.037 33.8103 112.266 33.1042 114.191C28.0856 138.029 29.7737 161.941 37.9658 184.525C25.3209 175.741 23.537 152.188 22.8489 138.928Z" fill="#5B4696"/>
</g>
</g>
<defs>
<filter id="filter0_f" x="-139.922" y="0" width="385.399" height="394.131" filterUnits="userSpaceOnUse" color-interpolation-filters="sRGB">
<feFlood flood-opacity="0" result="BackgroundImageFix"/>
<feBlend mode="normal" in="SourceGraphic" in2="BackgroundImageFix" result="shape"/>
<feGaussianBlur stdDeviation="7" result="effect1_foregroundBlur"/>
</filter>
<clipPath id="clip0">
<rect x="93.0969" y="14" width="276.76" height="252.901" transform="rotate(60 93.0969 14)" fill="white"/>
</clipPath>
</defs>
</svg>
