<svg width="58" height="60" viewBox="0 0 58 60" fill="none" xmlns="http://www.w3.org/2000/svg">
<g clip-path="url(#clip0)">
<path d="M27.3824 36.9645C27.5446 37.042 27.7158 37.0787 27.8844 37.0787C28.3215 37.0787 28.7408 36.8322 28.9412 36.4105L29.1352 36.0022C29.4128 35.418 29.1651 34.719 28.582 34.4408C27.9988 34.1628 27.301 34.4107 27.0232 34.9949L26.8292 35.4031C26.5515 35.9874 26.7992 36.6865 27.3824 36.9645ZM15.4741 27.6512C15.0173 27.1937 14.2768 27.1937 13.82 27.6512C12.8504 28.6226 11.2725 28.6226 10.3028 27.6512C9.84601 27.1937 9.10545 27.1937 8.64871 27.6512C8.19197 28.1087 8.19197 28.8505 8.64871 29.308C9.58957 30.2503 10.8255 30.7216 12.0614 30.7216C13.2972 30.7216 14.5331 30.2504 15.4739 29.308C15.9308 28.8506 15.9308 28.1088 15.4741 27.6512ZM54.8994 3.11294C50.7788 -1.0144 44.083 -1.02635 39.946 3.07451C38.6546 2.43232 37.2837 1.88142 35.838 1.42791C31.0956 -0.0600245 27.2159 -0.00482917 26.8794 0.00255364C20.5349 0.00677239 15.0006 2.67349 12.4334 6.96396C12.0946 7.53021 11.8123 8.11708 11.5858 8.72095C10.3767 9.87419 4.92028 15.5227 4.92028 23.532C4.92028 28.8667 2.35861 31.6518 0.831738 32.8373C0.261165 33.2803 -0.047812 33.9759 0.0054196 34.698C0.0586512 35.4205 0.46637 36.0634 1.09614 36.4179C1.67151 36.7418 2.3186 37.0527 2.94427 37.3534C3.49753 37.6193 4.28372 37.9971 4.66711 38.2429V40.3296C4.66711 40.6151 4.6127 40.8938 4.50542 41.1586L4.2154 41.8736C3.81821 42.8526 3.96445 43.9735 4.5948 44.817V45.074C4.5948 45.8342 4.92893 46.5378 5.48547 47.0151V48.3907C5.48547 51.3385 7.8796 53.7367 10.8226 53.7367H14.2759C14.9219 53.7367 15.4455 53.2121 15.4455 52.5651C15.4455 51.9181 14.9219 51.3936 14.2759 51.3936H10.8226C9.16956 51.3936 7.8245 50.0464 7.8245 48.3906V46.3693C7.8245 45.8999 7.54477 45.4759 7.11377 45.2918L7.06323 45.2702C6.98461 45.2366 6.93384 45.1596 6.93384 45.074V44.4127C6.93384 44.15 6.84562 43.8948 6.68347 43.6883L6.4771 43.4256C6.32805 43.236 6.2919 42.9791 6.38257 42.7555L6.67259 42.0403C6.89394 41.4944 7.00625 40.9188 7.00625 40.3296V37.8355C7.00625 36.7066 5.85821 36.1549 3.95614 35.2408C3.4567 35.0008 2.9431 34.7539 2.48882 34.5105C4.36983 32.9728 7.25954 29.6184 7.25954 23.5319C7.25954 19.1278 9.21671 15.4579 10.9146 13.1022C11.0074 15.1435 11.6238 17.2782 12.7646 19.4156C15.7663 25.0391 20.9935 27.3962 25.1937 29.2899C29.1899 31.0918 31.4517 32.2261 31.4699 34.5839C31.4831 36.3153 31.0855 37.5893 30.2882 38.3701C29.3677 39.2717 28.1459 39.2486 28.1385 39.2484C27.746 39.2209 27.3781 39.3926 27.139 39.7052C26.8999 40.0179 26.8455 40.4307 26.9744 40.8028C27.0087 40.9019 27.8372 43.2551 29.734 45.5481C32.1048 48.4139 35.0973 49.9261 38.4341 49.9599L41.5767 59.1892C41.7425 59.6763 42.1969 59.9829 42.6835 59.9829C42.8087 59.9829 42.9361 59.9626 43.0611 59.9197C43.6725 59.7109 43.9991 59.0451 43.7905 58.4328L40.6955 49.3436C46.5303 46.2117 50.6327 41.3532 52.5883 35.2345C54.1472 30.357 54.2218 24.8842 52.9045 19.7007C53.6263 19.2613 54.2951 18.7366 54.8995 18.1313C59.0331 13.9909 59.0331 7.25365 54.8994 3.11294ZM50.3605 34.5205C48.5252 40.2633 44.5847 44.7847 38.9575 47.6096C36.1121 47.7376 33.6304 46.5599 31.5787 44.1058C30.7514 43.1165 30.1526 42.0982 29.7606 41.3273C30.4279 41.1183 31.1943 40.7457 31.8844 40.0837C33.1798 38.8408 33.8274 36.9845 33.8089 34.5662C33.7785 30.5914 30.0748 28.9216 26.1538 27.1536C22.0756 25.3147 17.453 23.2305 14.8273 18.3111C13.1962 15.255 12.8122 12.3491 13.6816 9.8013C13.6852 9.79158 13.6886 9.78173 13.692 9.77201C13.8827 9.22005 14.1312 8.68451 14.4401 8.16829C16.589 4.57662 21.3615 2.34537 26.8949 2.34537C26.9061 2.34537 26.9172 2.34525 26.9286 2.3449C26.965 2.34373 30.6512 2.25548 35.1389 3.66349C41.111 5.53744 45.5103 9.02904 48.2143 14.0414C51.6318 20.3767 52.4341 28.0323 50.3605 34.5205ZM52.2053 17.3591C51.6836 15.836 51.0396 14.3504 50.272 12.9276C48.352 9.36888 45.5782 6.44693 42.0995 4.27697C45.3425 1.55365 50.1974 1.71654 53.2453 4.76962C56.4671 7.99673 56.4671 13.2477 53.2453 16.4748C52.921 16.7997 52.5734 17.0949 52.2053 17.3591ZM30.0025 54.8803L26.3382 48.5229L26.2143 44.1819C26.1107 40.5465 23.3034 37.5827 19.6845 37.2877C17.0234 37.0705 14.4684 38.5487 13.3255 40.9654L13.2677 41.0876C11.7526 44.2909 12.8457 48.166 15.8102 50.1017L19.4579 52.4835L23.4429 59.397C23.6594 59.7729 24.0525 59.983 24.4567 59.9829C24.6552 59.9829 24.8563 59.9322 25.0405 59.8257C25.5999 59.5023 25.7916 58.7858 25.4686 58.2254L21.9285 52.0836L24.7495 50.4521L27.9768 56.0513C28.2996 56.6116 29.0149 56.8036 29.5745 56.4801C30.1339 56.157 30.3256 55.4406 30.0025 54.8803ZM20.3682 50.281L17.0877 48.1391C15.0986 46.8403 14.3652 44.24 15.3818 42.0906L15.4395 41.9685C16.1211 40.5274 17.5903 39.6098 19.1658 39.6098C19.2751 39.6098 19.385 39.6143 19.4951 39.6233C21.9233 39.8211 23.8069 41.8099 23.8763 44.249L23.9888 48.1872L20.3682 50.281ZM30.9285 57.6574C30.6198 57.6574 30.3192 57.7828 30.1016 58.0006C29.884 58.2185 29.759 58.5208 29.759 58.8289C29.759 59.137 29.8841 59.4392 30.1016 59.6572C30.3191 59.8751 30.6197 60.0004 30.9285 60.0004C31.2361 60.0004 31.5378 59.8751 31.7554 59.6572C31.973 59.4394 32.0981 59.137 32.0981 58.8289C32.0981 58.5208 31.9729 58.2186 31.7554 58.0006C31.5378 57.7827 31.2361 57.6574 30.9285 57.6574ZM20.6355 6.25134C18.5728 7.13458 17.0852 8.62345 16.4465 10.4438C15.8066 12.2679 16.0469 14.3161 17.1414 16.3667C17.3521 16.7615 17.7561 16.9861 18.1739 16.9861C18.36 16.9861 18.5487 16.9414 18.7242 16.8474C19.2939 16.5424 19.5088 15.8326 19.2043 15.2619C18.416 13.785 18.2306 12.4252 18.6533 11.2203C19.072 10.027 20.1025 9.02728 21.5551 8.40548C22.149 8.15119 22.4246 7.46283 22.1708 6.86775C21.9167 6.27326 21.2295 5.99705 20.6355 6.25134ZM25.0235 5.39142L24.9579 5.39154C24.3121 5.39529 23.7914 5.92287 23.7953 6.56998C23.799 7.21462 24.3219 7.73458 24.9647 7.73458H24.9717L25.0235 7.73447C25.6694 7.73447 26.193 7.20994 26.193 6.56294C26.193 5.91595 25.6694 5.39142 25.0235 5.39142Z" fill="white"/>
</g>
<defs>
<clipPath id="clip0">
<rect width="58" height="60" fill="white"/>
</clipPath>
</defs>
</svg>
