<svg width="60" height="60" viewBox="0 0 60 60" fill="none" xmlns="http://www.w3.org/2000/svg">
<path d="M40.0727 34.0642C41.4943 34.0642 42.6508 35.077 42.6508 36.3221C42.6508 36.9769 43.1755 37.5079 43.8227 37.5079C44.4698 37.5079 44.9945 36.9769 44.9945 36.3221C44.9945 34.1492 43.3945 32.3221 41.2445 31.8263V31.2095C41.2445 30.5548 40.7198 30.0238 40.0727 30.0238C39.4256 30.0238 38.9008 30.5548 38.9008 31.2095V31.8263C36.7509 32.3221 35.1508 34.1492 35.1508 36.3221C35.1508 38.8747 37.3587 40.9515 40.0727 40.9515C41.4943 40.9515 42.6508 41.9643 42.6508 43.2094C42.6508 44.4545 41.4943 45.4673 40.0727 45.4673C38.6511 45.4673 37.4945 44.4545 37.4945 43.2094C37.4945 42.5546 36.9698 42.0236 36.3227 42.0236C35.6756 42.0236 35.1508 42.5546 35.1508 43.2094C35.1508 45.3823 36.7509 47.2094 38.9008 47.7052V48.2175C38.9008 48.8723 39.4256 49.4033 40.0727 49.4033C40.7198 49.4033 41.2445 48.8723 41.2445 48.2175V47.7052C43.3945 47.2094 44.9945 45.3823 44.9945 43.2094C44.9945 40.6567 42.7866 38.5799 40.0727 38.5799C38.6511 38.5799 37.4945 37.567 37.4945 36.3221C37.4945 35.077 38.6511 34.0642 40.0727 34.0642ZM52.9079 31.5267C51.3771 29.1131 49.2204 27.1817 46.671 25.9416C46.0875 25.6578 45.3873 25.9063 45.107 26.4966C44.8266 27.0869 45.0721 27.7952 45.6555 28.079C50.0981 30.2399 52.9687 34.8572 52.9687 39.8419C52.9687 41.9749 52.449 44.0902 51.4662 45.9594C51.1622 46.5375 51.3789 47.2556 51.9503 47.5632C52.1256 47.6576 52.314 47.7024 52.4997 47.7024C52.919 47.7024 53.3245 47.474 53.5352 47.0733C54.6979 44.8626 55.3124 42.3619 55.3124 39.8419C55.3124 36.8823 54.4809 34.0069 52.9079 31.5267ZM41.8359 26.7985L41.9037 26.7986H41.9093C42.554 26.7986 43.078 26.2714 43.0811 25.6184C43.084 24.9635 42.5618 24.4301 41.9147 24.4271L41.8359 24.4269C41.1887 24.4269 40.664 24.9578 40.664 25.6127C40.664 26.2676 41.1887 26.7985 41.8359 26.7985ZM34.5008 51.6049C30.0582 49.4438 27.1877 44.8266 27.1877 39.8419C27.1877 37.709 27.7073 35.5937 28.6901 33.7244C28.9941 33.1464 28.7774 32.4283 28.206 32.1207C27.6349 31.8131 26.9249 32.0323 26.6211 32.6105C25.4585 34.8214 24.8439 37.3219 24.8439 39.8419C24.8439 42.8016 25.6754 45.6769 27.2484 48.1571C28.7792 50.5708 30.9359 52.5021 33.4853 53.7423C33.649 53.822 33.822 53.8596 33.9923 53.8596C34.4287 53.8596 34.8475 53.6119 35.0493 53.1874C35.3295 52.5971 35.0841 51.8886 34.5008 51.6049ZM38.3205 52.8854L38.2526 52.8852C37.6025 52.884 37.0784 53.4103 37.0755 54.0653C37.0724 54.7202 37.5949 55.2536 38.242 55.2567L38.3205 55.2569C38.9676 55.2569 39.4923 54.7259 39.4923 54.0712C39.4923 53.4164 38.9676 52.8854 38.3205 52.8854ZM45.3994 20.4151C45.2568 20.0713 45.0821 19.7472 44.8787 19.4466H47.9296C50.9019 19.4466 53.3202 16.9997 53.3202 13.9921C53.3202 10.9845 50.9019 8.53753 47.9296 8.53753H38.5452C39.1418 7.65983 39.4921 6.59797 39.4921 5.45453C39.4921 2.44695 37.0738 0 34.1015 0H5.39061C2.41828 0 0 2.44695 0 5.45453C0 8.46212 2.41828 10.9091 5.39061 10.9091H14.775C14.1784 11.7868 13.8281 12.8486 13.8281 13.9921C13.8281 15.1355 14.1783 16.1974 14.775 17.0751H11.7187C8.74639 17.0751 6.32811 19.522 6.32811 22.5296C6.32811 24.2569 7.12663 25.7983 8.36893 26.7984C7.12663 27.7984 6.32811 29.3398 6.32811 31.0671C6.32811 32.7944 7.12663 34.3358 8.36893 35.3359C7.12663 36.336 6.32811 37.8774 6.32811 39.6047C6.32811 41.332 7.12663 42.8734 8.36893 43.8734C7.12663 44.8735 6.32811 46.4149 6.32811 48.1422C6.32811 51.1498 8.74639 53.5967 11.7187 53.5967H25.5292C29.1674 57.5343 34.3431 60 40.0782 60C51.0631 60 60 50.9571 60 39.8419C60 30.5909 53.809 22.7766 45.3994 20.4151ZM47.9296 10.9091C49.6097 10.9091 50.9765 12.2921 50.9765 13.9921C50.9765 15.692 49.6097 17.0751 47.9296 17.0751H19.2187C17.5386 17.0751 16.1718 15.692 16.1718 13.9921C16.1718 12.2921 17.5386 10.9091 19.2187 10.9091H47.9296ZM5.39061 8.53753C3.7105 8.53753 2.34375 7.15445 2.34375 5.45453C2.34375 3.75462 3.7105 2.37154 5.39061 2.37154H34.1015C35.7816 2.37154 37.1484 3.75462 37.1484 5.45453C37.1484 7.15445 35.7816 8.53753 34.1015 8.53753H5.39061ZM11.7187 19.4466H40.4296C40.9016 19.4466 41.3536 19.5576 41.7591 19.7563C41.2048 19.7092 40.6444 19.6839 40.0782 19.6839C34.5768 19.6839 29.5893 21.9521 25.9807 25.6126H11.7187C10.0387 25.6126 8.67186 24.2295 8.67186 22.5296C8.67186 20.8297 10.0387 19.4466 11.7187 19.4466ZM11.7187 27.9841H23.9783C22.648 29.8284 21.6194 31.9084 20.9662 34.1501H11.7187C10.0386 34.1501 8.67186 32.7672 8.67186 31.0671C8.67186 29.3672 10.0386 27.9841 11.7187 27.9841ZM11.7187 36.5217H20.4281C20.2503 37.6023 20.1563 38.7111 20.1563 39.8419C20.1563 40.8079 20.2254 41.7577 20.3558 42.6877H11.7187C10.0386 42.6877 8.67186 41.3047 8.67186 39.6047C8.67186 37.9046 10.0386 36.5217 11.7187 36.5217ZM11.7187 51.2252C10.0386 51.2252 8.67186 49.8422 8.67186 48.1422C8.67186 46.4422 10.0386 45.0592 11.7187 45.0592H20.8343C21.4256 47.29 22.3862 49.369 23.6459 51.2252H11.7187ZM40.0782 57.6285C30.3856 57.6285 22.5001 49.6494 22.5001 39.8419C22.5001 30.0344 30.3856 22.0554 40.0782 22.0554C49.7707 22.0554 57.6563 30.0344 57.6563 39.8419C57.6563 49.6494 49.7707 57.6285 40.0782 57.6285Z" fill="white"/>
</svg>
