<svg width="56" height="61" viewBox="0 0 56 61" fill="none" xmlns="http://www.w3.org/2000/svg">
<path d="M28.104 40.3022C28.4779 40.3022 28.8516 40.1673 29.1496 39.8975L34.074 35.4408C34.4271 35.1216 34.4632 34.5667 34.1559 34.2011C33.848 33.835 33.3122 33.7977 32.9596 34.1169L28.104 38.5101L21.3099 32.3574L22.9629 31.6127L27.443 35.6678C27.6024 35.8119 27.8015 35.8845 28.0004 35.8845C28.1994 35.8845 28.3985 35.8125 28.5579 35.6678L33.0661 31.5889L41.5658 35.3656C43.5608 36.2825 44.8495 38.3356 44.8495 40.5976V42.79C44.8495 43.2751 45.2291 43.6689 45.6972 43.6689C46.1652 43.6689 46.5449 43.2751 46.5449 42.79V40.5976C46.5449 37.6411 44.8601 34.9567 42.2434 33.7544L35.8136 30.898C37.98 29.9817 39.5112 27.7766 39.5112 25.2065V12.8212C39.5112 9.66324 38.325 6.69513 36.171 4.46186C34.0163 2.22984 31.1523 1 28.107 1C21.8191 1 16.704 6.30279 16.704 12.8212V25.2058C16.704 27.7541 18.208 29.9439 20.348 30.8741L13.8746 33.7909C11.1915 34.9622 9.45834 37.6692 9.45834 40.6867V42.7961C9.45834 43.2814 9.83737 43.675 10.3061 43.675C10.774 43.675 11.1538 43.2814 11.1538 42.7961V40.6867C11.1538 38.3778 12.4801 36.3069 14.5417 35.4072L19.5891 33.133L27.0573 39.8969C27.3559 40.1667 27.7296 40.3022 28.104 40.3022ZM32.0359 30.1875L28.0004 33.8392L23.9666 30.1881V27.6741C25.1706 28.3394 26.5434 28.7178 28.0004 28.7178C29.4581 28.7178 30.8314 28.3388 32.0359 27.6728V30.1875ZM37.8158 25.2058C37.8158 27.5764 35.9919 29.5124 33.7313 29.5894V26.443C35.3709 24.9221 36.4446 22.7608 36.586 20.3413H37.2776C37.4643 20.3413 37.6438 20.3132 37.8158 20.2638V25.2058ZM36.6054 18.5835V15.5037H37.2776C37.4572 15.5037 37.6039 15.6551 37.6039 15.8412V18.246C37.6039 18.4321 37.4578 18.5835 37.2776 18.5835H36.6054ZM18.3994 12.8212C18.3994 7.272 22.7539 2.7578 28.107 2.7578C30.6996 2.7578 33.138 3.80452 34.9724 5.70514C36.8056 7.60575 37.8158 10.1332 37.8158 12.8212V13.8234C37.6438 13.774 37.4643 13.7459 37.2776 13.7459C35.5369 13.6648 34.9153 14.1531 32.989 14.1531C29.0659 14.1531 25.6173 11.5565 24.407 7.69122C24.2628 7.22982 23.7847 6.97716 23.3391 7.12669C22.8941 7.27685 22.6498 7.77247 22.7946 8.2345C24.2322 12.8262 28.329 15.9109 32.989 15.9109C33.6349 15.9109 34.277 15.851 34.9082 15.7326V19.7982C34.9082 23.7471 31.8092 26.96 28.0004 26.96C24.191 26.96 21.0921 23.7471 21.0921 19.7982L21.0933 15.2987C21.543 15.129 22.0741 14.8348 22.5485 14.3245C22.7916 14.0621 22.9994 13.7654 23.1655 13.4426C23.3851 13.0142 23.2285 12.4818 22.8153 12.2535C22.4025 12.0259 21.8892 12.1878 21.669 12.6162C21.5766 12.7956 21.4618 12.9598 21.3276 13.1045C20.9284 13.5342 20.4522 13.6898 20.1696 13.7459H18.7249C18.6143 13.7459 18.506 13.7574 18.3994 13.7759V12.8212ZM18.3994 15.8406C18.4 15.6551 18.5455 15.5037 18.7249 15.5037H19.396V18.5841H18.7249C18.5455 18.5841 18.3994 18.4327 18.3994 18.2466V15.8406ZM18.3994 25.2065V20.3121C18.5054 20.3298 18.6137 20.3419 18.7249 20.3419H19.4137C19.555 22.7619 20.6306 24.9244 22.2712 26.446V29.576C20.106 29.3855 18.3994 27.4989 18.3994 25.2065ZM35.0141 50.2979L30.8815 49.6753L29.0335 45.7935C28.8393 45.3857 28.4461 45.1318 28.0069 45.1318C27.5678 45.1318 27.1744 45.3857 26.9802 45.7935L25.1324 49.6753L21.0003 50.2979C20.5658 50.3632 20.2114 50.6732 20.0754 51.106C19.9401 51.5387 20.0513 52.0051 20.3657 52.3231L23.3557 55.3443L22.6498 59.6105C22.5756 60.0591 22.7498 60.5041 23.1054 60.7715C23.3061 60.9229 23.5404 60.9997 23.7771 60.9997C23.9591 60.9997 24.1421 60.9546 24.311 60.8624L28.0069 58.8477L31.7033 60.8624C32.0918 61.0743 32.554 61.0394 32.9089 60.7721C33.264 60.5041 33.4388 60.0591 33.3647 59.6105L32.6588 55.3443L35.6488 52.3231C35.9631 52.0051 36.0738 51.5393 35.9384 51.106C35.8029 50.6732 35.4486 50.3632 35.0141 50.2979ZM31.2677 54.2951C30.9981 54.5679 30.875 54.961 30.9386 55.3454L31.505 58.7683L28.5403 57.1527C28.3731 57.0618 28.19 57.016 28.0069 57.016C27.8238 57.016 27.6407 57.0618 27.4742 57.1527L24.5095 58.7683L25.0758 55.346C25.1394 54.961 25.0163 54.5679 24.7461 54.2951L22.3478 51.8713L25.6627 51.3721C26.0354 51.3159 26.3579 51.0731 26.5246 50.7227L28.0069 47.6081L29.4899 50.7227C29.6564 51.0731 29.9791 51.3154 30.3516 51.3721L33.6667 51.8713L31.2677 54.2951ZM15.9952 50.2979L11.8632 49.6753L10.0152 45.7935C9.82094 45.3857 9.42715 45.1318 8.98799 45.1318C8.54943 45.1318 8.15549 45.3857 7.96123 45.7935L6.11327 49.6753L1.98122 50.2979C1.54628 50.3632 1.19242 50.6732 1.05709 51.106C0.921003 51.5387 1.03237 52.0051 1.34675 52.3231L4.3366 55.3443L3.63085 59.6105C3.5567 60.0591 3.73091 60.5041 4.08583 60.7715C4.44149 61.0394 4.90356 61.0743 5.29208 60.8618L8.98799 58.8477L12.6837 60.8618C12.8533 60.9539 13.0358 60.9997 13.2177 60.9997C13.4543 60.9997 13.6893 60.9229 13.89 60.7715C14.2449 60.5041 14.4199 60.0591 14.3456 59.6105L13.6398 55.3443L16.6298 52.3224C16.9442 52.0051 17.0548 51.5387 16.9195 51.106C16.784 50.6732 16.4297 50.3632 15.9952 50.2979ZM12.2487 54.2951C11.979 54.5679 11.8561 54.9604 11.9197 55.3454L12.486 58.7683L9.52134 57.1527C9.35405 57.0618 9.17094 57.016 8.98799 57.016C8.80488 57.016 8.62177 57.0612 8.45509 57.1521L5.49056 58.7683L6.05676 55.3454C6.12036 54.9604 5.99738 54.5679 5.72716 54.2951L3.32883 51.8713L6.64376 51.3715C7.01645 51.3154 7.33896 51.0731 7.50564 50.7221L8.98799 47.6081L10.4703 50.7221C10.6375 51.0724 10.9595 51.3154 11.3327 51.3715L14.6476 51.8707L12.2487 54.2951ZM54.9432 51.106C54.8073 50.6732 54.4534 50.3632 54.0185 50.2979L49.8864 49.6753L48.0384 45.7942C47.8442 45.3857 47.4508 45.1318 47.0117 45.1318C46.5725 45.1318 46.1793 45.3857 45.9851 45.7935L44.1371 49.6753L40.0045 50.2979C39.57 50.3632 39.2157 50.6732 39.0802 51.106C38.9449 51.5387 39.0555 52.0051 39.3698 52.3231L42.3598 55.3443L41.6541 59.6105C41.5798 60.0591 41.7548 60.5041 42.1097 60.7715C42.4652 61.0394 42.9268 61.0743 43.3159 60.8618L47.0117 58.8477L50.7076 60.8618C50.8765 60.9539 51.0596 60.9997 51.2415 60.9997C51.4782 60.9997 51.7131 60.9229 51.9138 60.7715C52.2688 60.5041 52.443 60.0591 52.3688 59.6105L51.6631 55.3443L54.6529 52.3224C54.9679 52.0051 55.0787 51.5387 54.9432 51.106ZM50.2725 54.2951C50.0029 54.5679 49.8793 54.961 49.9434 55.3454L50.5097 58.7683L47.5446 57.1527C47.3779 57.0618 47.1948 57.016 47.0117 57.016C46.8287 57.016 46.6456 57.0612 46.4789 57.1521L43.5136 58.7683L44.08 55.3454C44.1436 54.9604 44.0206 54.5679 43.751 54.2951L41.3521 51.8713L44.667 51.3721C45.0401 51.3159 45.3628 51.0731 45.5293 50.7227L47.0117 47.6081L48.494 50.7227C48.6613 51.0731 48.9832 51.3154 49.3565 51.3721L52.6714 51.8713L50.2725 54.2951Z" fill="white"/>
</svg>
