<svg width="56" height="60" viewBox="0 0 56 60" fill="none" xmlns="http://www.w3.org/2000/svg">
<path d="M28.104 39.6413C28.4779 39.6413 28.8516 39.5086 29.1496 39.2432L34.074 34.8596C34.4271 34.5456 34.4632 33.9998 34.1559 33.6402C33.848 33.2801 33.3122 33.2434 32.9596 33.5574L28.104 37.8786L21.3099 31.8267L22.9629 31.0942L27.443 35.0829C27.6024 35.2246 27.8015 35.2961 28.0004 35.2961C28.1994 35.2961 28.3985 35.2252 28.5579 35.0829L33.0661 31.0709L41.5658 34.7857C43.5608 35.6875 44.8495 37.707 44.8495 39.9319V42.0883C44.8495 42.5655 45.2291 42.9528 45.6972 42.9528C46.1652 42.9528 46.5449 42.5655 46.5449 42.0883V39.9319C46.5449 37.0238 44.8601 34.3835 42.2434 33.2008L35.8136 30.3913C37.98 29.49 39.5112 27.321 39.5112 24.793V12.6108C39.5112 9.50462 38.325 6.58517 36.171 4.38851C34.0163 2.19308 31.1523 0.983398 28.107 0.983398C21.8191 0.983398 16.704 6.19926 16.704 12.6108V24.7924C16.704 27.2989 18.208 29.4528 20.348 30.3677L13.8746 33.2368C11.1915 34.3888 9.45834 37.0515 9.45834 40.0195V42.0943C9.45834 42.5716 9.83737 42.9588 10.3061 42.9588C10.774 42.9588 11.1538 42.5716 11.1538 42.0943V40.0195C11.1538 37.7484 12.4801 35.7115 14.5417 34.8265L19.5891 32.5896L27.0573 39.2426C27.3559 39.508 27.7296 39.6413 28.104 39.6413ZM32.0359 29.6924L28.0004 33.2843L23.9666 29.6931V27.2202C25.1706 27.8746 26.5434 28.2469 28.0004 28.2469C29.4581 28.2469 30.8314 27.874 32.0359 27.219V29.6924ZM37.8158 24.7924C37.8158 27.1242 35.9919 29.0284 33.7313 29.1041V26.0093C35.3709 24.5133 36.4446 22.3875 36.586 20.0076H37.2776C37.4643 20.0076 37.6438 19.98 37.8158 19.9314V24.7924ZM36.6054 18.2787V15.2493H37.2776C37.4572 15.2493 37.6039 15.3982 37.6039 15.5813V17.9467C37.6039 18.1297 37.4578 18.2787 37.2776 18.2787H36.6054ZM18.3994 12.6108C18.3994 7.15258 22.7539 2.71239 28.107 2.71239C30.6996 2.71239 33.138 3.74194 34.9724 5.6114C36.8056 7.48086 37.8158 9.96691 37.8158 12.6108V13.5966C37.6438 13.548 37.4643 13.5203 37.2776 13.5203C35.5369 13.4406 34.9153 13.9208 32.989 13.9208C29.0659 13.9208 25.6173 11.3669 24.407 7.56493C24.2628 7.11109 23.7847 6.86257 23.3391 7.00965C22.8941 7.15735 22.6498 7.64484 22.7946 8.0993C24.2322 12.6157 28.329 15.6498 32.989 15.6498C33.6349 15.6498 34.277 15.591 34.9082 15.4745V19.4734C34.9082 23.3576 31.8092 26.5179 28.0004 26.5179C24.191 26.5179 21.0921 23.3576 21.0921 19.4734L21.0933 15.0477C21.543 14.8808 22.0741 14.5914 22.5485 14.0894C22.7916 13.8314 22.9994 13.5395 23.1655 13.222C23.3851 12.8006 23.2285 12.277 22.8153 12.0525C22.4025 11.8285 21.8892 11.9878 21.669 12.4092C21.5766 12.5856 21.4618 12.7471 21.3276 12.8894C20.9284 13.3121 20.4522 13.4652 20.1696 13.5203H18.7249C18.6143 13.5203 18.506 13.5317 18.3994 13.5498V12.6108V12.6108ZM18.3994 15.5807C18.4 15.3982 18.5455 15.2493 18.7249 15.2493H19.396V18.2793H18.7249C18.5455 18.2793 18.3994 18.1303 18.3994 17.9473V15.5807ZM18.3994 24.793V19.9789C18.5054 19.9963 18.6137 20.0083 18.7249 20.0083H19.4137C19.555 22.3886 20.6306 24.5156 22.2712 26.0122V29.0909C20.106 28.9036 18.3994 27.0479 18.3994 24.793ZM35.0141 49.4731L30.8815 48.8607L29.0335 45.0426C28.8393 44.6415 28.4461 44.3918 28.0069 44.3918C27.5678 44.3918 27.1744 44.6415 26.9802 45.0426L25.1324 48.8607L21.0003 49.4731C20.5658 49.5374 20.2114 49.8423 20.0754 50.268C19.9401 50.6936 20.0513 51.1523 20.3657 51.4651L23.3557 54.4368L22.6498 58.6331C22.5756 59.0743 22.7498 59.512 23.1054 59.775C23.3061 59.9239 23.5404 59.9995 23.7771 59.9995C23.9591 59.9995 24.1421 59.9551 24.311 59.8644L28.0069 57.8828L31.7033 59.8644C32.0918 60.0728 32.554 60.0386 32.9089 59.7756C33.264 59.512 33.4388 59.0743 33.3647 58.6331L32.6588 54.4368L35.6488 51.4651C35.9631 51.1523 36.0738 50.6942 35.9384 50.268C35.8029 49.8423 35.4486 49.5374 35.0141 49.4731ZM31.2677 53.4048C30.9981 53.6731 30.875 54.0598 30.9386 54.4379L31.505 57.8047L28.5403 56.2156C28.3731 56.1261 28.19 56.0811 28.0069 56.0811C27.8238 56.0811 27.6407 56.1261 27.4742 56.2156L24.5095 57.8047L25.0758 54.4385C25.1394 54.0598 25.0163 53.6731 24.7461 53.4048L22.3478 51.0208L25.6627 50.5297C26.0354 50.4744 26.3579 50.2356 26.5246 49.891L28.0069 46.8274L29.4899 49.891C29.6564 50.2356 29.9791 50.474 30.3516 50.5297L33.6667 51.0208L31.2677 53.4048ZM15.9952 49.4731L11.8632 48.8607L10.0152 45.0426C9.82094 44.6415 9.42714 44.3918 8.98799 44.3918C8.54943 44.3918 8.15549 44.6415 7.96123 45.0426L6.11327 48.8607L1.98122 49.4731C1.54628 49.5374 1.19242 49.8423 1.05709 50.268C0.921003 50.6936 1.03237 51.1523 1.34675 51.4651L4.3366 54.4368L3.63085 58.6331C3.5567 59.0743 3.73091 59.512 4.08583 59.775C4.44149 60.0386 4.90356 60.0728 5.29208 59.8638L8.98799 57.8828L12.6837 59.8638C12.8533 59.9545 13.0358 59.9995 13.2177 59.9995C13.4543 59.9995 13.6893 59.9239 13.89 59.775C14.2449 59.512 14.4199 59.0743 14.3456 58.6331L13.6398 54.4368L16.6298 51.4645C16.9442 51.1523 17.0548 50.6936 16.9195 50.268C16.784 49.8423 16.4297 49.5374 15.9952 49.4731ZM12.2487 53.4048C11.979 53.6731 11.8561 54.0592 11.9197 54.4379L12.486 57.8047L9.52134 56.2156C9.35405 56.1261 9.17094 56.0811 8.98799 56.0811C8.80488 56.0811 8.62177 56.1255 8.45509 56.215L5.49056 57.8047L6.05676 54.4379C6.12036 54.0592 5.99738 53.6731 5.72716 53.4048L3.32883 51.0208L6.64376 50.5291C7.01645 50.474 7.33896 50.2356 7.50564 49.8904L8.98799 46.8274L10.4703 49.8904C10.6375 50.235 10.9595 50.474 11.3327 50.5291L14.6476 51.0202L12.2487 53.4048ZM54.9432 50.268C54.8073 49.8423 54.4534 49.5374 54.0185 49.4731L49.8864 48.8607L48.0384 45.0432C47.8442 44.6415 47.4508 44.3918 47.0117 44.3918C46.5725 44.3918 46.1793 44.6415 45.9851 45.0426L44.1371 48.8607L40.0045 49.4731C39.57 49.5374 39.2157 49.8423 39.0802 50.268C38.9449 50.6936 39.0555 51.1523 39.3698 51.4651L42.3598 54.4368L41.6541 58.6331C41.5798 59.0743 41.7548 59.512 42.1097 59.775C42.4652 60.0386 42.9268 60.0728 43.3159 59.8638L47.0117 57.8828L50.7076 59.8638C50.8765 59.9545 51.0596 59.9995 51.2415 59.9995C51.4782 59.9995 51.7131 59.9239 51.9138 59.775C52.2688 59.512 52.443 59.0743 52.3688 58.6331L51.6631 54.4368L54.6529 51.4645C54.9679 51.1523 55.0787 50.6936 54.9432 50.268ZM50.2725 53.4048C50.0029 53.6731 49.8793 54.0598 49.9434 54.4379L50.5097 57.8047L47.5446 56.2156C47.3779 56.1261 47.1948 56.0811 47.0117 56.0811C46.8287 56.0811 46.6456 56.1255 46.4789 56.215L43.5136 57.8047L44.08 54.4379C44.1436 54.0592 44.0206 53.6731 43.751 53.4048L41.3521 51.0208L44.667 50.5297C45.0402 50.4744 45.3628 50.2356 45.5293 49.891L47.0117 46.8274L48.494 49.891C48.6613 50.2356 48.9832 50.474 49.3565 50.5297L52.6714 51.0208L50.2725 53.4048Z" fill="white"/>
</svg>
