<svg width="94" height="120" viewBox="0 0 94 120" fill="none" xmlns="http://www.w3.org/2000/svg">
<g clip-path="url(#clip0)">
<path d="M60.7085 86.0858C60.4316 85.7608 60.045 85.5633 59.6203 85.5298C59.1968 85.4964 58.783 85.6304 58.4591 85.9081C58.1348 86.1852 57.9378 86.5726 57.9043 86.9985C57.8708 87.4245 58.005 87.8381 58.2818 88.1627L64.4422 95.3925C64.7555 95.7602 65.2065 95.9503 65.6594 95.9503C66.0137 95.9501 66.3698 95.8337 66.6617 95.5952L81.0096 83.8962C81.3403 83.6273 81.5466 83.2453 81.5906 82.8205C81.6343 82.395 81.5103 81.9781 81.2407 81.6464C80.9718 81.3153 80.5904 81.1088 80.1665 81.0649C79.7426 81.0215 79.3266 81.1456 78.9965 81.4152L65.8575 92.1278L60.7085 86.0858ZM93.1555 69.3697L69.7294 56.8591C69.2527 56.6042 68.685 56.6076 68.2117 56.8679L66.9643 57.553V36.6874C67.1774 35.7863 67.1779 34.8495 66.9643 33.9465V25.1012C66.9643 24.2097 66.2434 23.4876 65.3544 23.4876C64.4649 23.4876 63.7444 24.2097 63.7444 25.1012V29.7318C62.8945 29.2233 61.9237 28.8587 60.8776 28.6782C60.4998 26.9967 59.1065 25.6673 57.3394 25.4348C55.4974 25.1921 54.1015 24.116 53.1904 22.2363C52.7639 21.3563 51.9285 20.7783 50.9563 20.6897C49.9831 20.6015 49.0617 21.0182 48.485 21.805C45.7176 25.5798 38.0241 34.0463 24.7393 34.0458C23.7286 34.0458 23.0433 33.9979 22.8046 33.9871C20.3634 33.8398 18.2993 35.7947 18.2993 38.2463V41.9537C18.2993 47.8793 20.7521 53.6241 25.0284 57.7146C26.4467 59.0713 28.0111 60.203 29.6795 61.1054V62.4464H17.0577C16.2195 62.4464 15.5377 61.7629 15.5377 60.9232V24.6664C15.5377 12.9122 25.1001 3.22666 36.6511 3.22666C36.6885 3.22666 36.7258 3.22687 36.7629 3.22709C40.9015 3.24924 45.6798 4.4274 48.936 6.22765C50.9996 7.36924 52.2743 6.46191 54.3122 6.46191C59.2863 6.46191 63.2724 11.588 63.7502 16.1984C63.7532 16.266 63.7603 16.5364 63.7612 17.5723C63.7622 19.1299 65.5175 19.2495 65.3724 19.1846C66.2618 19.1839 66.9817 18.4607 66.9811 17.5697C66.9808 17.2832 66.9832 16.1597 66.9564 15.899C66.309 9.48075 60.8467 3.23483 54.3125 3.23483C51.7605 3.23483 51.3628 3.88317 50.4916 3.40219C46.7993 1.36058 41.4172 0.0249636 36.7803 1.09284e-05C23.415 -0.0864632 12.3178 11.0728 12.3178 24.6664V60.9232C12.3178 63.5425 14.4441 65.6734 17.0579 65.6734H29.6795V66.2592L13.1447 70.3663C13.1228 70.3716 13.1014 70.3779 13.0797 70.3841L11.8718 70.7412C11.8355 70.752 11.7999 70.7638 11.7644 70.7769C9.60868 71.5831 5.83783 73.7108 4.8031 78.9042C-0.0969288 103.574 0.109117 102.52 0.097312 102.605C-0.493138 106.789 1.59694 110.136 6.62424 110.136H24.034C24.9235 110.136 25.644 109.413 25.644 108.522C25.644 107.631 24.9232 106.909 24.034 106.909H17.9754V91.6896C17.9754 90.7982 17.2547 90.0761 16.3655 90.0761C15.4763 90.0761 14.7555 90.7984 14.7555 91.6896V106.909H6.62403C4.48544 106.909 3.24359 106.219 3.22298 103.967C3.21397 102.869 3.17083 103.939 7.96075 79.5353C8.68169 75.9165 11.3036 74.4049 12.8397 73.8196L13.9563 73.4897L23.4515 71.131C34.0142 83.6022 33.3887 82.9414 33.9991 83.5381C37.1021 86.5715 41.3702 86.7453 44.6062 84.0868V87.1237C44.6137 94.3652 46.8974 101.24 50.9073 106.909H31.5474C30.658 106.909 29.9375 107.631 29.9375 108.522C29.9375 109.414 30.6582 110.136 31.5474 110.136H53.5018C56.6792 113.64 60.5999 116.514 65.0996 118.485L68.2609 119.867C68.4633 119.955 68.6805 119.999 68.8979 119.999C69.1138 119.999 69.3298 119.956 69.5309 119.869L73.0892 118.329C85.7909 112.982 93.9988 100.606 94.0001 86.7991V70.7812C94.0001 70.1886 93.6764 69.6478 93.1555 69.3697ZM60.983 32.0073C62.3274 32.408 63.3643 33.296 63.7446 34.3926V36.2413C63.3643 37.3381 62.3274 38.2261 60.983 38.6266V32.0073ZM60.983 42.2349V41.9369C61.9892 41.7506 62.9237 41.3936 63.7446 40.902V59.3214L58.0556 62.4461H49.5453V61.1991C56.3712 57.6225 60.983 50.4613 60.983 42.2349ZM52.1801 65.6732L50.6251 66.5274C50.2725 66.4399 49.9145 66.3508 49.5453 66.2592V65.6734H52.1801V65.6732ZM27.2516 55.38C23.6086 51.895 21.5194 47.0015 21.5194 41.9535C21.6151 38.4403 21.2874 38.0146 21.8467 37.4867C22.0448 37.2996 22.3112 37.191 22.611 37.2082C34.1547 37.9047 44.0836 32.8186 50.6388 24.3027C52.4063 27.4132 54.9984 28.3816 56.9202 28.6348C57.4006 28.698 57.7631 29.1089 57.7631 29.5909V42.2349C57.7629 58.29 38.5854 66.2213 27.2516 55.38ZM44.606 79.3488L43.4139 80.7522C41.1708 83.3931 38.0308 83.386 35.793 80.7388L32.4338 76.7651H44.606V79.3488ZM45.4336 69.3787C44.9232 69.6598 44.6062 70.1972 44.6062 70.7814V73.538H29.7061L26.9393 70.2649L31.6768 69.0879C32.3954 68.9095 32.8994 68.2474 32.8994 67.5057L32.8996 62.5139C37.3296 63.9938 42.0079 63.9777 46.3252 62.5599C46.3554 67.7172 46.2561 67.5991 46.4149 68.054C46.4919 68.275 46.6182 68.4733 46.7787 68.64L45.4336 69.3787ZM90.8092 86.7991C90.8064 99.3196 83.3623 110.54 71.8444 115.384L68.9007 116.659L66.3758 115.554C55.1023 110.615 47.8094 99.4547 47.7967 87.1233V71.7285L68.9894 60.0872L90.8092 71.7404V86.7991Z" fill="white"/>
</g>
<defs>
<clipPath id="clip0">
<rect width="94" height="120" fill="white"/>
</clipPath>
</defs>
</svg>
