<svg width="60" height="60" viewBox="0 0 60 60" fill="none" xmlns="http://www.w3.org/2000/svg">
<path d="M40 33C36.6909 33 34 35.691 34 39C34 40.7733 34.7734 42.3684 36 43.4678V49.0001C36 49.3691 36.203 49.7081 36.529 49.882C36.853 50.0561 37.249 50.036 37.555 49.832L40 48.202L42.445 49.832C42.612 49.943 42.806 50 43 50C43.1619 50 43.324 49.961 43.472 49.882C43.797 49.708 44 49.369 44 49.0001V43.4678C45.2266 42.3684 46.0001 40.7733 46.0001 39C46 35.691 43.309 33 40 33ZM42 47.132L40.554 46.168C40.218 45.943 39.7811 45.943 39.445 46.168L37.9999 47.132V44.6561C38.6258 44.878 39.2987 45 40 45C40.7012 45 41.374 44.878 42 44.6561V47.132ZM40 43C37.7939 43 36 41.2059 36 39C36 36.7939 37.794 35 40 35C42.206 35 43.9999 36.7941 43.9999 39C44 41.2061 42.206 43 40 43ZM35 9.99996H24C23.4477 9.99996 23 10.4476 23 10.9999C23 11.5522 23.4477 11.9999 24 11.9999H35C35.5523 11.9999 36 11.5522 36 10.9999C36 10.4477 35.5523 9.99996 35 9.99996ZM45 16H15C14.4477 16 14 16.4476 14 16.9999C14 17.5522 14.4477 17.9999 15 17.9999H45C45.5523 17.9999 46 17.5522 46 16.9999C46 16.4477 45.5523 16 45 16ZM35 22H15C14.4477 22 14 22.4476 14 22.9999C14 23.5522 14.4477 23.9999 15 23.9999H35C35.5523 23.9999 36 23.5522 36 22.9999C36 22.4477 35.5523 22 35 22ZM41 24H45C45.5523 24 46 23.5523 46 23C46 22.4477 45.5523 22.0001 45 22.0001H41C40.4477 22.0001 40.0001 22.4477 40.0001 23C40 23.5522 40.4477 24 41 24ZM45 28H15C14.4477 28 14 28.4476 14 28.9999C14 29.5522 14.4477 29.9999 15 29.9999H45C45.5523 29.9999 46 29.5522 46 28.9999C46 28.4477 45.5523 28 45 28ZM25 34H15C14.4477 34 14 34.4476 14 34.9999C14 35.5522 14.4477 35.9999 15 35.9999H25C25.5523 35.9999 25.9999 35.5522 25.9999 34.9999C26 34.4477 25.5523 34 25 34ZM18 39H15C14.4477 39 14 39.4477 14 40C14 40.5523 14.4477 40.9999 15 40.9999H18C18.5523 40.9999 19 40.5523 19 40C19 39.4477 18.5523 39 18 39ZM24 41H25C25.5523 41 25.9999 40.5524 25.9999 40.0001C25.9999 39.4478 25.5523 39.0001 25 39.0001H24C23.4477 39.0001 23 39.4478 23 40.0001C23 40.5523 23.4477 41 24 41ZM55 0H13C10.243 0 8.00004 2.24297 8.00004 5.00004V52.0001H0.999961C0.448008 52.0001 0 52.447 0 53V55.0001C0 57.757 2.24297 60 5.00004 60H47C49.757 60 52.0001 57.757 52.0001 55V8.00004H59C59.553 8.00004 60 7.55203 60 7.00008V5.00004C60 2.24297 57.757 0 55 0ZM5.00004 58C3.34605 58 2.00004 56.6539 2.00004 55V54H42V55C42 56.125 42.373 57.1639 43.002 58H5.00004ZM50.8638 2.1941C50.8553 2.20664 50.8471 2.21941 50.8386 2.23207C50.8049 2.28258 50.7721 2.33379 50.7402 2.38559C50.7306 2.40117 50.7211 2.41676 50.7117 2.43234C50.6801 2.48496 50.6495 2.53828 50.6197 2.59219C50.6127 2.60496 50.6054 2.61762 50.5984 2.63051C50.5254 2.76562 50.4584 2.90426 50.3978 3.04641C50.3925 3.05883 50.3876 3.07148 50.3824 3.08402C50.3586 3.14121 50.3358 3.19898 50.314 3.25723C50.3067 3.2768 50.2997 3.29648 50.2925 3.31629C50.2734 3.36961 50.2552 3.4234 50.2379 3.47754C50.2315 3.49781 50.2248 3.51785 50.2186 3.53824C50.2001 3.59859 50.1829 3.65953 50.1666 3.72082C50.1632 3.73383 50.1593 3.7466 50.1559 3.75973C50.1367 3.83496 50.119 3.91078 50.1033 3.9873C50.1007 3.99973 50.0987 4.01238 50.0963 4.02492C50.0838 4.08738 50.0725 4.15031 50.0625 4.21359C50.0586 4.2382 50.0552 4.26293 50.0517 4.28754C50.0442 4.34016 50.0374 4.39289 50.0316 4.44598C50.0285 4.47305 50.0257 4.5 50.0231 4.52719C50.0181 4.58121 50.014 4.63559 50.0107 4.69008C50.0092 4.71457 50.0073 4.73895 50.0061 4.76355C50.0025 4.84195 50.0002 4.92082 50.0002 5.00016V55.0002C50.0002 56.6542 48.6541 58.0002 47.0002 58.0002C45.3462 58.0002 44.0002 56.6542 44.0002 55.0002V53.0002C44.0002 52.4471 43.5532 52.0002 43.0002 52.0002H10.0002V5.00004C10.0002 3.34605 11.3462 2.00004 13.0002 2.00004H51.0022C50.9543 2.06344 50.9086 2.12836 50.8638 2.1941ZM58 6H52V5.00004C52 3.34605 53.346 2.00004 55 2.00004C56.6539 2.00004 58 3.34605 58 5.00004V6Z" fill="white"/>
</svg>
