<svg width="38" height="46" viewBox="0 0 38 46" fill="none" xmlns="http://www.w3.org/2000/svg">
<g clip-path="url(#clip0)">
<path d="M13.8802 26.5568C12.9495 27.4946 11.4354 27.4944 10.5047 26.5568C10.1564 26.2061 9.59188 26.2061 9.24346 26.5568C8.89522 26.9076 8.89522 27.4765 9.24346 27.8275C10.0565 28.6465 11.1245 29.0561 12.1924 29.0561C13.2603 29.0561 14.3282 28.6465 15.1413 27.8275C15.4895 27.4766 15.4895 26.9077 15.1413 26.5568C14.793 26.2061 14.2285 26.2061 13.8802 26.5568ZM27.4954 26.5568C26.5648 27.4943 25.0506 27.4945 24.1199 26.5568C23.7716 26.2061 23.2071 26.2061 22.8586 26.5568C22.5104 26.9076 22.5104 27.4765 22.8586 27.8275C23.6717 28.6465 24.7397 29.0561 25.8075 29.0561C26.8755 29.0561 27.9434 28.6465 28.7565 27.8275C29.1047 27.4766 29.1047 26.9077 28.7565 26.5568C28.4082 26.2061 27.8437 26.2061 27.4954 26.5568ZM23.067 42.5668C21.7842 43.2616 20.4173 43.8019 19.0015 44.1742C10.9099 42.038 5.27778 34.7015 5.27778 26.2549V25.108L5.66267 25.0202C10.7398 23.8626 15.6295 21.7725 20.003 18.9103C23.0093 22.8569 27.6703 25.1886 32.6422 25.1886H32.7448V26.2498C32.7448 29.2981 31.9902 32.3256 30.5624 35.0051C30.3295 35.4423 30.4924 35.987 30.9264 36.2216C31.0606 36.2943 31.2049 36.3286 31.3474 36.3286C31.6653 36.3286 31.973 36.1569 32.1338 35.855C32.7999 34.6049 33.331 33.2855 33.7232 31.9251H34.1415C35.1734 31.9251 36.1432 31.5198 36.8723 30.7841C37.6014 30.0484 38.0018 29.0705 38 28.0308L37.9959 25.7551C37.9923 23.7486 36.4696 22.0929 34.5284 21.8949V20.4843C34.5284 15.2363 31.9481 10.5841 27.9986 7.74738C27.3165 3.30264 23.5224 0 19.0114 0C14.5005 0 10.7063 3.30264 10.024 7.74738C6.0745 10.5841 3.49429 15.2363 3.49429 20.4843V21.8931C1.54235 22.0805 0.00776508 23.7408 0.00410876 25.755L6.53813e-06 28.0308C-0.00186621 29.0704 0.398635 30.0482 1.12767 30.784C1.85679 31.5198 2.82661 31.925 3.8585 31.925H4.29057C6.24947 38.7438 11.6686 44.1853 18.7853 45.9731C18.8562 45.9909 18.9286 45.9998 19.0011 45.9998C19.0734 45.9998 19.1456 45.9909 19.2161 45.9733L19.231 45.9695C20.8627 45.5601 22.4375 44.9478 23.9116 44.1494C24.3454 43.9146 24.5081 43.3697 24.2748 42.9327C24.0417 42.4957 23.5012 42.3319 23.067 42.5668ZM34.5285 26.2496V23.7095C35.4845 23.8943 36.2105 24.7424 36.2124 25.7584L36.2165 28.0339C36.2176 28.5931 36.0022 29.1189 35.6101 29.5145C35.2211 29.9071 34.7048 30.1244 34.1547 30.1277C34.401 28.8525 34.5285 27.5529 34.5285 26.2496ZM19.0114 1.79687C22.0745 1.79687 24.7253 3.69113 25.8058 6.43207C23.7526 5.42043 21.4468 4.85154 19.0114 4.85154C16.5759 4.85154 14.2701 5.42043 12.2169 6.43216C13.2974 3.69113 15.9483 1.79687 19.0114 1.79687ZM5.27795 20.4843C5.27787 12.8552 11.4387 6.64841 19.0114 6.64841C26.5841 6.64841 32.7449 12.8552 32.7449 20.4843V23.3916H32.6423C28.2618 23.3916 24.1525 21.3542 21.4809 17.8998C22.0983 17.4587 22.7046 17.0025 23.2977 16.5301C23.684 16.2223 23.7495 15.6573 23.4442 15.2681C23.1387 14.879 22.5778 14.8129 22.1915 15.1205C17.2591 19.0494 11.4107 21.8658 5.27795 23.2656V20.4843ZM3.8585 30.1282C3.30354 30.1282 2.78211 29.9102 2.38999 29.5146C1.99796 29.119 1.78251 28.5931 1.78358 28.0341L1.78768 25.7585C1.78955 24.7345 2.52715 23.8812 3.49429 23.7055V26.2549C3.49429 27.5751 3.61986 28.8705 3.86055 30.1282H3.8585ZM25.1371 14.6756C25.3486 14.6756 25.5609 14.6003 25.731 14.4472L25.7433 14.4361C26.1105 14.1054 26.1423 13.5375 25.8141 13.1675C25.4859 12.7976 24.9221 12.7655 24.5549 13.0962L24.5426 13.1073C24.1754 13.438 24.1436 14.0059 24.4718 14.3758C24.648 14.5745 24.892 14.6756 25.1371 14.6756ZM30.0781 37.191L28.1835 32.2009C27.8909 31.4305 27.0945 30.9785 26.2884 31.127C22.9261 31.7455 20.2547 34.4369 19.6413 37.8214L19.6375 37.8425C19.4945 38.6316 19.9246 39.4273 20.6603 39.7343L25.5218 41.7633L29.466 45.7369C29.6401 45.9122 29.8683 46 30.0965 46C30.3248 46 30.553 45.9122 30.7271 45.7369C31.0754 45.386 31.0754 44.8171 30.7271 44.4662L27.2882 41.0017L29.3132 38.9616L33.7436 43.425C34.0919 43.7757 34.6564 43.7757 35.0048 43.425C35.3531 43.0742 35.3531 42.5053 35.0048 42.1543L30.0781 37.191ZM25.8178 39.9418L21.404 38.0997C21.8975 35.4879 23.9522 33.4122 26.5421 32.9071L28.2736 37.4677L25.8178 39.9418ZM36.669 44.203C36.4345 44.203 36.2044 44.299 36.0376 44.4662C35.8718 44.6333 35.7772 44.8651 35.7772 45.1014C35.7772 45.3377 35.8718 45.5695 36.0376 45.7365C36.2044 45.9036 36.4345 45.9998 36.669 45.9998C36.9036 45.9998 37.1336 45.9037 37.2995 45.7365C37.4653 45.5695 37.5608 45.3377 37.5608 45.1014C37.5608 44.8651 37.4654 44.6333 37.2995 44.4662C37.1336 44.299 36.9036 44.203 36.669 44.203Z" fill="white"/>
</g>
<defs>
<clipPath id="clip0">
<rect width="38" height="46" fill="white"/>
</clipPath>
</defs>
</svg>
