<svg width="127" height="173" viewBox="0 0 127 173" fill="none" xmlns="http://www.w3.org/2000/svg">
<g opacity="0.2">
<g clip-path="url(#clip0)">
<path d="M110.877 66.2087C110.295 65.1889 109.235 65.1068 108.466 65.5345C105.742 65.2016 103.032 66.3725 101.908 68.8441C101.796 69.2416 101.741 69.4404 101.63 69.8379C85.8504 69.7117 70.9903 73.2714 57.3056 80.3745C67.4934 69.5076 78.5746 59.3191 88.9078 48.7071C89.6003 49.3294 90.6049 49.6103 91.9772 49.3511C94.9783 48.6902 98.6036 47.3465 99.6938 44.2225C100.617 41.6947 99.4974 37.9526 96.3723 37.5073C95.3121 37.4252 94.5426 37.8529 94.3203 38.648C94.1749 38.393 93.8842 37.8831 93.2815 37.7145C88.9167 36.2797 86.6679 41.2229 87.1295 44.9952C86.8729 45.1378 86.873 45.1378 86.6164 45.2804C82.726 49.1216 78.8356 52.9628 74.9452 56.804C75.6636 50.3613 75.7237 43.9489 75.3819 37.424C75.4375 37.2252 75.6384 37.2814 75.694 37.0827C78.7679 31.513 83.4278 27.244 89.1608 24.561C90.0328 26.0907 91.73 26.9939 93.6153 26.4495C97.185 25.3046 100.037 20.53 98.1471 17.2156C96.7493 14.4673 92.1836 12.9763 90.0887 15.8195C89.922 16.4158 89.8664 16.6145 89.7552 17.0121C89.1866 17.496 88.7634 18.2349 88.5966 18.8312C88.1734 19.57 88.152 20.4213 88.075 21.4713C88.075 21.4713 87.8741 21.4151 87.8185 21.6139C82.5986 24.0118 78.161 27.4857 74.9631 31.9492C74.7366 28.8855 74.3092 25.7657 73.8262 22.8446C75.6774 21.6478 77.349 19.5435 77.4474 17.6422C77.7125 15.1447 76.0025 12.7377 73.7368 12.3184C66.4907 8.79203 61.9416 22.7359 69.3417 24.1623C69.5426 24.2185 69.9444 24.3308 70.2009 24.1882C72.1671 36.525 72.3591 49.0087 70.8325 61.4403C70.7769 61.6391 70.9222 61.894 70.9222 61.894C60.3882 72.4498 49.8542 83.0056 40.6154 94.3522C38.0076 97.4805 35.6006 100.665 33.339 104.104C34.1727 101.123 35.0064 98.1415 35.4383 95.0476C35.7677 89.9963 34.0664 85.2344 31.7964 80.9564C34.1264 78.8219 36.1315 75.525 34.7892 72.578C33.447 69.6309 29.9201 69.0733 28.0475 71.1214C27.6457 71.009 27.2438 70.8966 26.7308 71.1818C23.3065 72.5816 20.8439 75.9649 21.9639 79.707C22.5024 82.4293 25.5163 83.2721 28.1156 82.4988C30.8215 87.5416 31.7533 92.7313 30.7998 98.4653C30.1798 103.007 27.9523 107.099 27.7342 111.752C27.6786 111.951 27.8239 112.206 27.7683 112.405C21.1416 124.482 16.3575 137.717 13.6381 151.315C13.172 153.757 16.7887 154.768 17.2548 152.327C20.0083 139.381 24.3692 126.885 30.6283 115.348C37.6182 108.944 46.0615 105.09 55.5564 103.674C56.9415 104.918 59.1517 105.536 60.7463 104.482C63.3669 102.857 64.7907 98.5407 63.4484 95.5937C62.0505 92.8454 57.5746 91.8081 56.0825 94.8198C56.0269 95.0186 55.9714 95.2173 55.8602 95.6149C54.6674 96.7815 53.8209 98.2592 53.979 100.018C47.3741 101.171 41.2949 103.543 35.5961 106.879C38.3366 102.502 41.4233 98.4357 44.7109 94.4259C46.0704 92.663 47.5753 91.155 48.8792 89.5909C49.2811 89.7033 49.5376 89.5607 50.0506 89.2755C65.3385 78.7632 83.0758 73.4363 101.634 73.6967C102.16 74.9152 102.797 75.7363 103.891 76.4709C106.426 78.2513 109.795 77.0503 111.522 74.7472C113.506 72.3016 112.386 68.5595 110.877 66.2087ZM91.9689 41.6337C92.9735 41.9146 93.7431 41.4869 94.1663 40.748C94.3117 41.003 94.6579 41.3141 95.3163 41.2839C96.1756 41.3099 96.3551 42.2173 96.1883 42.8136C95.8548 44.0062 94.1705 44.6067 93.2 44.9783C92.687 45.2634 92.2296 45.3498 91.5156 45.5788C90.8017 45.8078 90.9129 45.4103 90.8787 44.7578C90.6436 44.0491 90.5624 41.2404 91.9689 41.6337ZM93.6111 22.5908C93.3546 22.7334 93.0425 23.0747 92.786 23.2173C92.5851 23.1611 92.5295 23.3599 92.5295 23.3599C92.0935 22.595 92.1149 21.7438 92.1363 20.8925C92.1577 20.0413 93.3719 18.0234 94.4107 18.9568C94.556 19.2118 94.9579 19.3241 95.1588 19.3803C95.2827 20.4865 94.2353 21.9081 93.6111 22.5908ZM70.7826 15.1356C71.1289 15.4468 71.877 15.8703 72.591 15.6413L72.7919 15.6975C72.9928 15.7537 73.1937 15.8098 73.3947 15.866C73.7409 16.1772 73.976 16.8858 73.8093 17.4821C73.4758 18.6747 71.8812 19.729 70.7098 20.0444C68.8801 20.3899 69.0427 15.9349 70.7826 15.1356ZM25.0848 76.2936C25.5636 75.3559 26.3887 74.7294 27.4147 74.1591C28.3638 74.6388 29.7361 74.3796 30.0696 73.187C30.5484 72.2493 30.7065 74.008 30.8519 74.263C30.886 74.9155 30.4628 75.6543 30.0951 76.1945C29.6163 77.1321 28.7912 77.7586 27.9661 78.3851C27.7096 78.5277 27.7096 78.5277 27.4531 78.6703C27.3975 78.869 27.1966 78.8129 27.141 79.0116C25.3454 80.0097 24.4948 77.6287 25.0848 76.2936ZM59.1133 101.025C58.3994 101.254 57.818 100.234 57.7282 99.7805C57.6599 98.4755 59.1434 97.8188 60.1138 97.4472C60.1138 97.4472 60.0582 97.646 60.2591 97.7022C60.4942 98.4109 60.0838 100.653 59.1133 101.025ZM106.298 73.2864C105.092 72.9493 105.024 71.6443 105.101 70.5943C105.49 69.203 106.862 68.9438 108.123 69.0821C109.03 71.2643 109.312 74.1292 106.298 73.2864Z" fill="#5B4696"/>
</g>
</g>
<defs>
<clipPath id="clip0">
<rect x="42.478" y="0.148499" width="87" height="155" transform="rotate(15.6228 42.478 0.148499)" fill="white"/>
</clipPath>
</defs>
</svg>
