<svg width="155" height="186" viewBox="0 0 155 186" fill="none" xmlns="http://www.w3.org/2000/svg">
<g opacity="0.2">
<g clip-path="url(#clip0)">
<path d="M36.6024 94.2826C39.3675 94.4934 41.0773 92.1319 41.2246 89.6767C46.4387 88.6456 51.6358 88.6439 56.866 89.5851L56.816 89.6717C55.7428 91.1305 54.9294 92.7394 54.4258 94.4116C54.3258 94.5848 54.3624 94.7214 54.399 94.858C52.3767 94.9606 50.6437 96.9623 50.6098 99.0212C50.6294 100.187 51.432 100.997 52.348 101.41C52.4712 101.597 52.781 101.66 53.1408 101.637C54.3569 101.531 55.8961 101.265 56.7559 100.376C58.5987 98.7838 57.9033 96.1884 55.898 95.2616C55.948 95.175 56.048 95.0018 56.098 94.9152C56.5516 93.3295 57.3516 91.9439 58.3748 90.5717C58.4748 90.3985 58.5248 90.3119 58.5382 90.0887L58.6748 90.0521C60.8605 89.4664 63.0095 88.7442 65.1219 87.8853C64.4451 89.4576 63.8549 91.0798 63.1782 92.6521C62.7183 92.8485 62.3317 93.3181 62.1683 93.8011C61.9549 94.3707 62.1514 94.8305 62.5344 95.1671C62.571 95.3037 62.6942 95.4903 62.954 95.6403C63.82 96.1403 64.7896 95.6609 65.3262 94.9315C65.5762 94.4985 65.603 94.0521 65.4932 93.6422C65.47 93.2824 65.2602 93.0458 64.9138 92.8458C65.704 90.8772 66.4942 88.9085 67.371 86.9899C73.1485 84.783 78.693 81.9796 84.041 78.7165C84.1776 78.6799 84.4508 78.6067 84.5008 78.5201C84.5508 78.4335 84.5508 78.4335 84.6874 78.3969C83.4071 81.8146 82.0767 85.3189 80.7963 88.7365C80.5231 88.8097 80.1499 89.0562 80.0365 89.4526C79.8999 89.4892 79.7633 89.5258 79.7133 89.6124C76.641 91.5337 73.6054 93.5915 70.5332 95.5128C70.3599 95.4128 70.2367 95.2262 70.0635 95.1262C68.9377 94.4762 67.1619 94.9521 66.5119 96.0779C65.6253 97.4135 66.2511 98.9296 67.5001 99.7662C68.7858 100.739 70.4018 99.9403 71.275 98.8279C71.7116 98.2717 71.7518 97.6021 71.6054 97.0556C74.3544 95.2942 77.0535 93.6193 79.7159 91.8078C78.0953 96.4147 76.5247 100.935 75.0408 105.505C74.9408 105.679 74.9774 105.815 74.8774 105.988C67.7803 109.281 60.5966 112.524 53.4994 115.816C53.3628 115.853 53.3128 115.939 53.3128 115.939C49.838 116.358 46.4497 116.827 42.9248 117.332C42.715 117.095 42.5052 116.859 42.2954 116.622C39.5143 114.439 35.4689 117.646 36.8437 120.865C37.2732 121.921 38.5124 122.174 39.6418 122.018C39.7284 122.068 39.7284 122.068 39.815 122.118C41.2274 122.472 42.5703 121.746 43.3203 120.447C43.5703 120.014 43.5971 119.567 43.6239 119.121C46.4657 118.799 49.271 118.34 52.1128 118.018C50.9262 119.873 50.1726 121.978 49.9521 124.16C48.4494 124.563 47.2762 126.195 47.8521 127.798C48.3913 129.264 49.9537 129.357 51.1099 128.755C51.743 128.658 52.3894 128.339 52.6894 127.819C53.426 126.743 52.9733 125.327 52.0341 124.554C51.9475 124.504 51.8609 124.454 51.7743 124.404C51.9583 122.085 52.7619 119.894 54.3083 118.015C54.4083 117.842 54.5083 117.669 54.5217 117.446L54.6583 117.409C61.2456 114.399 67.8329 111.39 74.4702 108.294C71.8157 116.691 69.5441 125.426 68.0288 134.251C67.8056 134.237 67.569 134.447 67.469 134.62C64.5726 138.837 62.1092 143.304 60.0788 148.02C59.8556 148.007 59.669 148.13 59.4458 148.117C57.2467 148.926 55.2869 151.72 57.4984 153.69C59.0305 155.036 61.0331 153.767 61.4501 152.045C62.0733 151.366 62.4367 150.536 62.2305 149.494C62.1206 149.084 61.9108 148.847 61.701 148.61C63.3546 144.946 65.1814 141.382 67.3546 138.018C65.7393 147.016 65.3266 156.131 66.1299 165.139C65.9933 165.176 65.8067 165.299 65.7067 165.472C64.4835 167.191 63.2969 169.046 62.3335 170.915C60.0551 170.061 57.5756 172.556 58.8175 175.005C59.1371 175.651 59.7799 176.138 60.5728 176.365C60.746 176.465 60.9192 176.565 61.1424 176.578C62.345 176.695 63.6012 175.919 64.028 174.78C64.4414 173.864 64.3218 172.871 63.829 172.125C64.5924 170.603 65.4924 169.044 66.5156 167.671C67.0735 173.305 68.2144 178.929 69.9883 184.457C70.4177 185.513 72.1435 185.124 71.7641 183.981C68.4359 173.745 67.2665 163.371 67.573 153.04C69.5407 156.832 71.5584 160.537 73.5261 164.329C73.1029 164.662 72.7663 165.045 72.6029 165.528C72.0127 167.15 73.0349 168.78 74.5706 169.32C76.0196 169.81 77.649 168.788 77.8294 167.275C77.8794 167.189 77.9294 167.102 77.9428 166.879C78.383 165.516 77.5706 164.124 76.2081 163.683C75.8117 163.57 75.5019 163.507 75.1421 163.53C72.8548 159.092 70.4309 154.69 68.1436 150.252C68.0204 150.065 67.8972 149.878 67.674 149.865C68.0429 142.226 69.218 134.591 70.9262 127.032C73.4769 130.814 75.791 134.806 77.8319 138.871C77.0721 139.587 76.4721 140.626 76.6783 141.669C76.9443 143.208 78.4031 144.282 79.9058 143.879C80.4522 143.733 80.8754 143.4 81.262 142.93C82.195 142.314 82.8316 141.411 82.812 140.245C82.7826 138.496 80.9871 137.806 79.4479 138.072C77.124 133.497 74.5635 129.132 71.6797 124.927C71.6431 124.79 71.5565 124.74 71.4699 124.69C72.9245 118.371 74.7255 112.252 76.663 106.096C78.097 101.612 79.6676 97.0915 81.2748 92.7078C82.5532 95.2935 83.9183 97.9291 85.4199 100.528C85.3699 100.615 85.3565 100.838 85.4797 101.025C85.6994 101.844 85.869 102.75 85.8654 103.557C85.902 103.693 85.9386 103.83 85.9752 103.966C86.3563 110.306 86.824 116.696 87.2051 123.036C86.4721 123.306 85.9855 123.949 85.6721 124.691C85.2819 125.967 85.8577 127.57 87.0835 128.047C87.1701 128.097 87.3933 128.11 87.4799 128.16C87.6031 128.347 87.863 128.497 88.1362 128.424C89.5254 128.417 90.7584 127.282 90.9754 125.906C91.1924 124.53 90.1933 123.26 88.9175 122.87C88.523 116.753 88.1285 110.637 87.6474 104.47C89.7285 107.865 92.0328 111.274 94.4371 114.51C94.2871 114.77 94.1871 114.943 94.1237 115.253C93.5701 117.012 94.8022 118.878 96.6744 119.035C97.1208 119.062 97.6172 119.002 98.077 118.805C99.2431 118.786 100.449 118.097 100.789 116.907C101.393 115.062 100.024 113.232 98.3522 112.729C97.3862 112.402 96.4299 112.658 95.6835 113.151C90.3821 105.933 85.8637 98.3595 81.9551 90.3294C85.0061 82.045 88.1937 73.7239 91.4678 65.4529C92.008 63.9173 92.6848 62.345 93.225 60.8094C96.2382 66.5905 99.9477 71.9653 104.267 76.884L104.354 76.934C104.503 79.6758 104.738 82.4677 104.937 85.123C103.608 85.6256 102.945 86.9746 103.211 88.5139C103.307 89.1469 103.677 89.7067 104.146 90.0933C104.133 90.3165 104.343 90.5531 104.602 90.7031C104.602 90.7031 104.602 90.7031 104.689 90.7531C104.662 91.1995 104.995 91.6227 105.578 91.6129C107.327 91.5835 109.07 90.1648 109.227 88.2926C109.408 86.7801 108.235 85.4105 106.823 85.0569C106.587 82.2651 106.438 79.5232 106.203 76.7314C107.346 76.3519 108.475 76.1957 109.641 76.1761C109.728 76.2261 109.678 76.3127 109.764 76.3627C110.207 77.1957 111.26 77.5725 112.166 77.4029C112.426 77.5529 112.872 77.5797 113.159 77.2833C113.968 76.4807 114.085 75.278 113.606 74.3084C113.003 73.1522 111.491 72.9718 110.471 73.5378C110.098 73.7842 109.862 73.994 109.662 74.3405C108.359 74.3967 107.093 74.5895 105.863 74.9189C105.567 74.6323 105.171 74.5189 104.847 74.6787C103.675 73.3091 102.466 71.8029 101.344 70.3467C105.548 70.4646 115.593 71.0675 117.631 72.9371C117.481 73.1969 117.331 73.4567 117.268 73.7666C116.927 74.9558 117.43 76.2852 118.456 77.1084C118.342 77.5048 118.539 77.9646 119.072 78.0414C120.757 78.3218 122.423 77.4362 123.014 75.8139C123.604 74.1917 122.582 72.5623 121.046 72.0221C120.476 71.8087 119.807 71.7685 119.26 71.9149C118.248 70.8685 116.116 70.5613 114.84 70.1711C109.983 68.9835 105.036 68.5522 100.062 68.5673C97.831 65.4316 95.8865 61.9996 94.1652 58.5809C97.7162 49.4305 101.527 40.43 105.511 31.5296C106.332 36.5071 107.613 41.2882 109.527 45.9728C109.48 48.2549 109.259 50.4369 108.902 52.6556C107.14 52.9082 105.593 54.7867 106.416 56.7625C106.525 57.1723 106.908 57.5089 107.255 57.7089C106.472 58.0651 107.011 59.5312 108.004 59.4116C109.543 59.1455 111.182 58.7063 111.859 57.1341C112.386 55.8216 112.07 54.369 111.094 53.4592C111.008 53.4092 110.834 53.3092 110.798 53.1726C110.848 53.086 110.848 53.086 110.898 52.9994C111.098 52.653 111.024 52.3798 110.901 52.1932C111.118 50.8173 111.249 49.3915 111.379 47.9656C113.038 48.6924 114.783 49.4692 116.392 50.2826C116.539 50.829 116.908 51.3889 117.341 51.6389C117.328 51.8621 117.401 52.1353 117.524 52.3219C118.646 53.7781 120.749 52.3362 121.572 51.3104C122.532 50.248 122.316 48.6221 121.527 47.5891C120.035 45.5731 117.34 46.4417 116.463 48.3604C114.891 47.6836 113.455 46.9702 111.883 46.2934C111.796 46.2434 111.659 46.28 111.573 46.23C111.709 46.1934 111.759 46.1068 111.896 46.0702C112.556 45.5274 113.352 44.948 114.099 44.4551C114.522 44.1221 114.425 43.4891 114.129 43.2025C113.746 42.8659 113.25 42.9257 112.876 43.1721C112.267 43.6283 111.657 44.0846 111.184 44.5042C111.097 44.4542 111.01 44.4042 110.924 44.3542C109.11 39.4963 107.755 34.442 107.171 29.2547C107.134 29.1181 107.098 28.9815 106.974 28.7949C108.628 25.1308 110.368 21.5167 112.108 17.9026C112.622 16.8134 111.063 15.9134 110.549 17.0026C107.482 23.3148 104.552 29.5903 101.795 35.9659C101.485 35.9025 101.212 35.9757 100.975 36.1855C100.639 36.5685 100.352 36.865 99.9289 37.198C95.5308 38.8157 91.0095 40.2467 86.5016 41.4546C85.9356 40.435 85.283 39.3654 84.7169 38.3458C84.8169 38.1726 84.8669 38.086 84.9169 37.9994C85.2437 37.0333 84.4545 36.0003 83.4885 35.6735C82.6091 35.3967 81.5028 35.9128 81.0894 36.8288C80.676 37.7448 81.1055 38.801 82.0215 39.2144C82.3679 39.4144 82.8143 39.4412 83.0875 39.368C83.4071 40.0144 83.7768 40.5742 84.0964 41.2206C81.1581 40.9099 78.2064 40.8223 75.2048 40.8214C74.6289 39.2187 72.9103 37.9955 71.2612 37.8517C68.5462 37.5544 66.6364 40.2623 66.4024 42.6675C66.2416 45.346 68.3103 45.963 70.3959 45.5505C72.378 46.1175 74.7404 44.8257 75.2708 42.707L75.3208 42.6204C77.876 42.5946 80.3813 42.6553 82.9232 42.8527C81.3535 44.3714 79.9571 45.99 78.6473 47.6587C77.7679 47.3819 76.6885 47.4515 75.8555 47.8943C74.426 48.5701 74.0457 50.429 74.2751 51.8316C74.3715 52.4646 74.7277 53.2476 75.3339 53.5976C75.7669 53.8476 76.4 53.7512 76.9464 53.6048C77.033 53.6548 77.033 53.6548 77.1196 53.7048C79.8712 54.1388 81.9078 50.8113 80.1928 48.7819C81.5526 47.0266 83.0356 45.458 84.6552 43.8527C90.0193 42.5618 95.2736 40.8611 100.405 38.9738C97.6975 45.2628 95.0769 51.6018 92.6796 57.9541C92.443 58.1639 92.243 58.5103 92.2662 58.8701C91.676 60.4924 90.9492 62.1512 90.359 63.7735C90.2456 64.1699 90.0456 64.5163 89.8822 64.9993C89.7224 64.6761 89.3394 64.3395 88.793 64.4859C82.8825 65.9232 77.0219 67.2739 71.1114 68.7112C68.5098 68.0174 65.7715 67.3603 63.1698 66.6665C63.194 64.0246 60.4995 61.8916 57.9541 62.5005C55.4452 63.2459 54.488 66.5038 55.7067 68.593C55.9531 68.9662 56.2495 69.2528 56.5459 69.5394L56.6325 69.5894C58.4744 70.9992 61.4796 70.194 62.6662 68.3387C64.7849 68.8691 66.8169 69.3495 68.8856 69.9665C67.416 71.3119 65.983 72.794 64.7232 74.376C63.9803 74.0626 63.1741 74.059 62.4411 74.3287C60.4287 75.0143 59.6849 77.7026 61.1169 79.2222C62.2526 80.4552 64.1748 80.5258 65.3078 79.5633C66.0542 79.0705 66.5042 78.2911 66.6078 77.3117C66.648 76.6421 66.5516 76.009 66.132 75.5358C67.6284 73.744 69.248 72.1387 70.9542 70.5835L71.0042 70.4969L71.1408 70.4603C71.2275 70.5103 71.3641 70.4737 71.5007 70.4371C77.4112 68.9998 83.3217 67.5624 89.2322 66.1251L89.3688 66.0885C88.0518 69.3696 86.7714 72.7873 85.541 76.1184C85.2312 76.055 84.958 76.1282 84.7214 76.338C84.3482 76.5844 84.0116 76.9674 83.6384 77.2139C83.6384 77.2139 83.5018 77.2505 83.4518 77.3371C75.6413 82.0653 67.3514 85.8239 58.682 88.4396C58.682 88.4396 58.682 88.4396 58.5954 88.3896C52.6224 87.1351 46.6691 87.0465 40.7354 88.124C40.6622 87.8508 40.539 87.6642 40.4658 87.391C40.3792 87.341 40.3426 87.2044 40.3426 87.2044C40.1096 86.608 39.3801 86.0714 38.7471 86.1678L38.6105 86.2044C36.7919 85.1544 34.2964 85.6767 32.8366 87.6051C30.6536 90.3862 33.2177 93.9451 36.6024 94.2826ZM39.9526 119.08C39.9026 119.167 39.816 119.117 39.766 119.203C39.6294 119.24 39.5562 118.967 39.9526 119.08ZM70.6005 41.3962C70.6505 41.3096 70.6005 41.3962 70.6005 41.3962V41.3962ZM53.8186 97.0633C53.8686 96.9767 53.8686 96.9767 53.8186 97.0633C53.8686 96.9767 53.8686 96.9767 53.8186 97.0633Z" fill="#5B4696"/>
<path d="M67.6012 54.7912C67.7146 54.3948 67.5182 53.935 67.1718 53.735C66.429 53.4216 65.7594 53.3814 64.9763 53.7376C64.1933 54.0938 63.9165 54.9732 64.0496 55.7429C64.146 56.3759 64.529 56.7125 65.0486 57.0125C65.2218 57.1125 65.395 57.2125 65.5816 57.0893L65.6682 57.1393C66.561 57.1929 67.0976 56.4634 67.2378 55.6206C67.3878 55.3608 67.5378 55.101 67.6012 54.7912Z" fill="#5B4696"/>
<path d="M46.024 73.164C46.0838 73.6604 46.4302 73.8604 46.8632 74.1104C46.8998 74.247 47.073 74.347 47.2462 74.447C47.6792 74.697 48.2256 74.5506 48.4756 74.1176C48.6256 73.8578 48.8256 73.5114 48.889 73.2016C49.189 72.682 48.956 72.0856 48.2998 71.8222C47.7302 71.6088 47.2838 71.582 46.7374 71.7284C46.141 71.9614 45.8776 72.6176 46.024 73.164Z" fill="#5B4696"/>
<path d="M79.3193 61.0948C79.3693 61.0082 79.4193 60.9216 79.4693 60.835C80.0693 59.7957 78.5104 58.8957 77.9104 59.935C77.8604 60.0216 77.8104 60.1082 77.7604 60.1948C77.1604 61.234 78.7193 62.134 79.3193 61.0948Z" fill="#5B4696"/>
<path d="M58.2249 49.0313C58.4714 49.4045 58.9178 49.4313 59.3776 49.2349C60.2972 48.8421 60.7972 47.9761 60.9008 46.9967C60.9642 46.6869 60.7178 46.3136 60.458 46.1636C59.8017 45.9002 59.1321 45.8601 58.5223 46.3163C57.9625 46.6859 57.5625 47.3787 57.6089 48.0983C57.6187 48.6813 57.8285 48.9179 58.2249 49.0313ZM58.4419 47.6555C58.4419 47.6555 58.4919 47.5689 58.5419 47.4823C58.4919 47.5689 58.4919 47.5689 58.4419 47.6555Z" fill="#5B4696"/>
<path d="M60.702 105.541C60.8618 105.864 61.2582 105.977 61.668 105.868C62.6609 105.748 63.3975 104.672 63.2779 103.679C63.1716 102.463 61.9592 101.763 60.7664 102.229C59.6602 102.745 59.1334 104.058 59.9726 105.004C60.1824 105.241 60.4422 105.391 60.702 105.541ZM61.4288 103.882C61.4288 103.882 61.3788 103.969 61.4288 103.882V103.882Z" fill="#5B4696"/>
<path d="M97.953 79.8204C97.8932 79.3239 97.5236 78.7641 96.9906 78.6873C95.7013 78.5204 94.6915 79.6694 94.8343 81.022C94.9075 81.2952 95.204 81.5818 95.5138 81.6452C95.6004 81.6952 95.737 81.6586 95.737 81.6586C95.8236 81.7086 95.7736 81.7952 95.8602 81.8452C96.2432 82.1818 96.7396 82.122 97.1128 81.8756C97.536 81.5426 97.6494 81.1462 97.8128 80.6632C97.8128 80.6632 97.8128 80.6632 97.8628 80.5766C98.0994 80.3668 98.0262 80.0936 97.953 79.8204Z" fill="#5B4696"/>
<path d="M119.076 96.6345C120.425 97.2979 122.264 96.5122 122.581 94.9632C122.694 94.5668 122.535 94.2436 122.275 94.0936C122.165 93.6838 122.055 93.2739 121.759 92.9873C120.846 91.7677 119.121 92.157 118.334 93.3194C117.597 94.3952 117.813 96.0211 119.076 96.6345Z" fill="#5B4696"/>
<path d="M100.652 100.546C100.215 101.103 100.261 101.822 100.818 102.259C101.164 102.459 101.474 102.522 101.797 102.362C101.884 102.412 101.884 102.412 102.02 102.376C102.603 102.366 102.853 101.933 102.88 101.487C102.984 100.507 101.375 99.6937 100.652 100.546ZM101.081 101.603C101.031 101.689 101.118 101.739 101.068 101.826C101.118 101.739 101.031 101.689 101.081 101.603Z" fill="#5B4696"/>
<path d="M80.2403 118.9C79.7207 118.6 79.1243 118.833 78.8743 119.266C78.6243 119.699 78.7707 120.245 79.2037 120.495L79.2903 120.545C79.3769 120.595 79.4635 120.645 79.6367 120.745C80.1197 120.908 80.5429 120.575 80.7063 120.092C80.9563 119.659 80.5867 119.1 80.2403 118.9Z" fill="#5B4696"/>
<path d="M84.5634 153.612C84.55 153.835 84.5866 153.972 84.7598 154.072C85.1428 154.408 85.7258 154.398 86.0124 154.102C86.4856 153.682 86.799 152.94 86.7892 152.356C86.7526 152.22 86.766 151.997 86.7294 151.86C86.6062 151.673 86.6562 151.587 86.5696 151.537C86.3232 151.164 85.8036 150.864 85.3572 150.837C84.7742 150.847 84.4376 151.23 84.101 151.613C83.6143 152.256 83.8706 153.212 84.5634 153.612Z" fill="#5B4696"/>
<path d="M51.3587 142.524C50.7159 142.037 49.7597 142.293 49.1498 142.75C48.49 143.293 48.5963 144.509 49.0525 145.118C49.1757 145.305 49.4355 145.455 49.6087 145.555C49.7819 145.655 49.9551 145.755 50.2649 145.818C51.0211 145.909 51.6809 145.366 52.0309 144.76C52.3077 143.88 52.0881 143.06 51.3587 142.524Z" fill="#5B4696"/>
<path d="M60.7972 120.376C59.758 119.776 58.858 121.335 59.8972 121.935C60.8499 122.485 61.7499 120.926 60.7972 120.376Z" fill="#5B4696"/>
<path d="M38.6336 128.364C37.731 127.728 36.4748 128.504 36.198 129.383C35.8712 130.349 36.6104 131.469 37.6032 131.349L37.7398 131.312C38.0363 131.599 38.6193 131.589 38.9059 131.293C39.7657 130.404 39.6229 129.051 38.6336 128.364ZM37.4238 129.86C37.4604 129.996 37.4604 129.996 37.497 130.133C37.4604 129.996 37.4238 129.86 37.4238 129.86Z" fill="#5B4696"/>
<path d="M105.716 46.7745C105.556 46.4513 105.073 46.2879 104.713 46.3111C103.894 46.5307 103.034 47.4199 103.427 48.3396C103.587 48.6628 103.97 48.9994 104.416 49.0262C104.589 49.1262 104.812 49.1396 104.949 49.103C105.172 49.1164 105.445 49.0432 105.682 48.8333C106.192 48.5503 106.182 47.9673 105.936 47.5941C105.949 47.3709 105.876 47.0977 105.716 46.7745ZM104.15 47.4869C104.1 47.5735 104.1 47.5735 104.15 47.4869V47.4869Z" fill="#5B4696"/>
<path d="M97.9425 29.2384C98.0291 29.2884 98.1157 29.3384 98.2889 29.4384C99.3282 30.0384 100.228 28.4796 99.1889 27.8796C99.1023 27.8296 99.0157 27.7796 98.8425 27.6796C97.8033 27.0796 96.9033 28.6384 97.9425 29.2384Z" fill="#5B4696"/>
</g>
</g>
<defs>
<clipPath id="clip0">
<rect x="71.2739" y="185.43" width="82.3" height="166.6" transform="rotate(-150 71.2739 185.43)" fill="white"/>
</clipPath>
</defs>
</svg>
