<svg width="139" height="151" viewBox="0 0 139 151" fill="none" xmlns="http://www.w3.org/2000/svg">
<g opacity="0.2">
<g clip-path="url(#clip0)">
<path d="M88.1469 97.6952C110.413 81.253 126.892 58.1306 136.941 32.7454C137.599 31.3017 136.606 29.9559 135.411 29.3657C135.429 28.2905 134.874 27.3318 133.611 26.9936C72.0351 16.4338 28.2156 67.8677 3.89229 117.236C3.82479 117.488 3.7573 117.74 3.7573 117.74C3.43732 117.924 3.18484 117.856 2.93236 117.789C1.78742 118.022 1.26496 118.962 1.31496 119.785C1.31496 119.785 1.24746 120.037 0.994981 119.969C-0.672407 121.143 1.05999 123.767 2.72738 122.593L3.04736 122.409C3.29985 122.477 3.80481 122.612 4.12479 122.428C18.9088 117.75 34.6153 118.719 49.8694 116.327C64.3659 113.731 76.7276 105.975 88.1469 97.6952ZM11.3193 112.747C15.1115 105.663 19.1563 98.6477 23.6385 92.0193C21.5811 97.6776 19.2713 103.268 17.2814 108.675C15.294 110.032 13.3067 111.389 11.3193 112.747ZM12.7317 115.555C13.7592 114.75 15.0391 114.013 16.0665 113.209C16.319 113.276 16.5715 113.344 17.1439 113.227C17.3964 113.295 17.9014 113.43 18.2214 113.246C20.6287 113.351 22.9686 113.708 25.3759 113.813C21.1162 114.562 16.9914 114.806 12.7317 115.555ZM30.833 82.338C30.9005 82.0861 30.968 81.8342 31.0355 81.5823C32.7878 79.082 34.7927 76.6495 36.7976 74.2169C34.2328 83.7889 30.658 93.0903 26.3258 102.189C25.6859 102.557 25.2984 102.993 24.6584 103.362C23.8335 103.411 23.446 103.847 23.311 104.351C22.9235 104.787 22.3511 104.903 21.9636 105.339C24.8134 97.7337 27.7307 89.8761 30.833 82.338ZM113.205 30.4351C110.928 37.9243 107.27 44.5037 101.661 50.2901C101.593 50.542 101.593 50.542 101.273 50.7262C101.273 50.7262 101.021 50.6586 100.953 50.9105C100.381 51.027 99.9935 51.4632 99.926 51.7151C97.6186 53.2567 95.3113 54.7982 93.0039 56.3398C97.3186 48.3166 100.943 39.8386 104.248 31.5448C107.43 30.7776 110.158 30.6985 113.205 30.4351ZM120.495 30.4984C120.122 33.9084 118.992 37.1154 117.357 40.187C114.73 41.9128 112.423 43.4544 109.795 45.1803C112.913 40.6159 115.02 35.781 116.505 30.2393C117.835 30.3257 119.165 30.4121 120.495 30.4984ZM123.412 49.9087C118.8 48.9429 113.985 48.7327 109.288 49.094C111.528 47.8043 113.515 46.4469 115.822 44.9054C119.375 44.7773 122.927 44.6492 126.479 44.5211C125.434 46.4009 124.457 48.0289 123.412 49.9087ZM116.317 61.2368C116.065 61.1691 115.813 61.1015 115.56 61.0338C107.766 60.8351 99.9035 60.8884 92.109 60.6897C95.7638 58.1592 99.351 55.8807 103.006 53.3503C109.37 51.8159 115.65 51.6086 121.845 52.7285C119.957 55.7325 118.137 58.4847 116.317 61.2368ZM105.248 75.2795C105.131 74.7081 104.441 74.2532 103.868 74.3698C93.3465 74.2503 83.0771 74.1984 72.5553 74.0789C77.49 70.8115 82.4921 67.2922 87.4268 64.0248C96.2988 64.2421 105.238 64.2076 114.11 64.425C111.515 68.0494 108.348 71.7904 105.248 75.2795ZM94.0965 86.6003C93.844 86.5327 93.5915 86.465 93.339 86.3974C81.0498 85.8043 68.9456 85.5307 56.6563 84.9376C60.3786 82.1553 64.2858 79.6925 68.0081 76.9102C79.8598 77.116 91.4591 77.2543 103.311 77.4602C100.279 80.6974 97.3138 83.6827 94.0965 86.6003ZM87.6818 60.0434C82.3596 63.7469 76.785 67.3828 71.4629 71.0864C78.3049 59.6907 84.137 48.0244 88.5891 35.4484L88.6566 35.1965C92.5464 33.8089 96.6211 32.7409 100.696 31.6729C96.9861 41.4781 92.5864 50.8284 87.6818 60.0434ZM65.5182 74.0832C64.9458 74.1998 64.7433 74.9554 64.8608 75.5269C62.166 77.5046 59.2187 79.4147 56.5238 81.3924C62.3559 69.7261 66.6731 57.6539 69.5429 44.9238C69.5429 44.9238 69.5429 44.9238 69.6104 44.672C74.4776 41.6564 79.5297 38.9605 84.9519 36.9036C79.8597 49.8481 73.5052 62.4543 65.5182 74.0832ZM51.0167 84.7764L50.9492 85.0283C48.6418 86.5699 46.3345 88.1115 44.0272 89.653C49.9092 78.8101 53.839 67.174 55.5638 54.6771C58.7136 52.0114 62.1159 49.4133 65.4507 47.0671C62.1934 60.2333 57.4887 72.7416 51.0167 84.7764ZM38.065 93.7251C35.7577 95.2667 33.7028 96.8759 31.3955 98.4175C35.4752 89.2514 38.6125 79.5628 40.9923 69.6713C41.0598 69.4194 41.1273 69.1675 40.8748 69.0998C44.3621 65.1746 48.0343 61.569 51.7066 57.9633C49.5942 70.8963 44.7721 82.8332 38.065 93.7251ZM30.0456 103.455C32.9929 101.545 35.7552 99.3157 38.7025 97.4056C44.4597 98.1383 50.0318 98.5514 55.8564 99.0322C59.5937 99.2237 63.5834 99.4828 67.3207 99.6742C69.9805 99.847 74.5602 98.9143 77.5901 99.7261C75.9902 100.647 74.6427 101.636 73.0429 102.557C58.5138 103.254 44.3047 103.766 30.0456 103.455ZM80.6724 97.3123C80.4199 97.2446 80.4874 96.9927 80.2349 96.9251C75.8926 94.9516 68.7706 96.283 64.2084 96.1405C56.9863 95.8252 49.8318 95.2581 42.7447 94.439C46.012 92.3447 49.0943 89.9309 52.3616 87.8366C65.2233 88.3131 78.085 88.7896 90.9467 89.2661C89.2118 90.6911 87.4769 92.1161 85.742 93.5411C84.0071 94.966 82.3397 96.1391 80.6724 97.3123ZM127.862 41.3818C125.387 41.5286 123.232 41.4911 120.757 41.6379C124.092 39.2917 127.612 37.2651 130.946 34.9189C130.087 37.1183 128.974 39.25 127.862 41.3818ZM130.561 31.306C127.614 33.2161 124.987 34.9419 122.04 36.852C122.832 34.9045 123.439 32.6374 123.727 30.5546C125.882 30.592 128.222 30.949 130.561 31.306ZM42.5148 112.466C41.1174 112.632 39.9725 112.865 38.5751 113.03C38.3901 112.711 37.9526 112.324 37.4476 112.188C31.623 111.707 25.8659 110.975 20.0412 110.494C21.7761 109.069 23.696 107.964 25.4309 106.539C25.8684 106.926 26.6933 106.877 27.3333 106.508C40.2624 106.733 53.0066 106.638 65.7008 105.72C58.5438 109.202 50.8993 111.473 42.5148 112.466Z" fill="#5B4696"/>
</g>
</g>
<defs>
<clipPath id="clip0">
<rect x="138.156" y="28.2113" width="127" height="109" transform="rotate(105 138.156 28.2113)" fill="white"/>
</clipPath>
</defs>
</svg>
