<svg width="101" height="93" viewBox="0 0 101 93" fill="none" xmlns="http://www.w3.org/2000/svg">
<g opacity="0.2">
<g clip-path="url(#clip0)">
<path d="M64.7865 33.6935C53.9484 18.8279 38.6762 7.84877 21.8928 1.17683C20.9384 0.739878 20.0454 1.40678 19.6523 2.20762C18.9406 2.19814 18.3048 2.5715 18.0783 3.41697C10.9601 44.6437 44.917 73.8595 77.547 90.0334C77.7136 90.078 77.8802 90.1227 77.8802 90.1227C78.0015 90.3364 77.9562 90.5055 77.9109 90.6746C78.0629 91.4403 78.684 91.7879 79.2291 91.7528C79.2291 91.7528 79.3957 91.7974 79.3504 91.9665C80.1235 93.0798 81.8642 91.9151 81.0911 90.8018L80.9698 90.588C81.0151 90.4189 81.1057 90.0808 80.9844 89.867C77.9184 79.9837 78.5924 69.4714 77.0405 59.2689C75.3526 49.5736 70.2435 41.3177 64.7865 33.6935ZM74.5905 85.0728C69.9095 82.5498 65.2737 79.8578 60.8952 76.8722C64.6366 78.2372 68.3326 79.7713 71.9073 81.0916C72.8017 82.4187 73.6961 83.7457 74.5905 85.0728ZM76.4525 84.1218C75.922 83.436 75.4368 82.581 74.9063 81.8951C74.9516 81.7261 74.9969 81.557 74.9209 81.1741C74.9662 81.005 75.0568 80.6668 74.9355 80.4531C75.0101 78.842 75.2513 77.2755 75.3258 75.6643C75.8125 78.5133 75.9659 81.2729 76.4525 84.1218ZM54.5013 72.078C54.3347 72.0334 54.1681 71.9887 54.0015 71.9441C52.3501 70.7766 50.7439 69.4401 49.1378 68.1036C55.4689 69.8 61.6187 72.1728 67.6326 75.0528C67.8752 75.4803 68.1631 75.7387 68.4057 76.1662C68.4364 76.7181 68.7243 76.9765 69.0575 77.0657C69.3454 77.3241 69.4214 77.707 69.7093 77.9653C64.6804 76.0741 59.4849 74.1383 54.5013 72.078ZM20.3141 17.065C25.267 18.5734 29.6148 21.007 33.4336 24.7488C33.6002 24.7934 33.6002 24.7934 33.7215 25.0072C33.7215 25.0072 33.6762 25.1763 33.8428 25.2209C33.9188 25.6037 34.2067 25.8621 34.3733 25.9068C35.389 27.4476 36.4047 28.9884 37.4204 30.5292C32.1182 27.6586 26.5135 25.2506 21.0301 23.0564C20.5288 20.9285 20.4821 19.1036 20.3141 17.065ZM20.3712 12.1869C22.6277 12.4291 24.7483 13.1786 26.7782 14.2662C27.9152 16.0207 28.9309 17.5615 30.0679 19.3161C27.0529 17.2396 23.8567 15.8394 20.1913 14.8573C20.2513 13.9672 20.3112 13.0771 20.3712 12.1869ZM33.2263 10.1944C32.5774 13.2828 32.4283 16.505 32.6576 19.6475C31.8086 18.1514 30.9142 16.8243 29.8985 15.2835C29.821 12.9067 29.7436 10.5299 29.6662 8.15307C30.9085 8.8484 31.9841 9.49909 33.2263 10.1944ZM40.7105 14.9183C40.6651 15.0874 40.6198 15.2565 40.5745 15.4256C40.4268 20.6418 40.4457 25.9027 40.298 31.119C38.6305 28.6786 37.1296 26.2828 35.4621 23.8424C34.4596 19.5867 34.3355 15.385 35.0897 11.2374C37.0744 12.4941 38.8924 13.7062 40.7105 14.9183ZM49.9834 22.2963C49.6049 22.3762 49.3023 22.8388 49.3783 23.2216C49.2773 30.2628 49.2217 37.1348 49.1207 44.1759C46.968 40.8806 44.6487 37.5406 42.496 34.2452C42.6584 28.308 42.6541 22.3261 42.8164 16.3888C45.2103 18.1176 47.6801 20.2293 49.9834 22.2963ZM57.4543 29.7352C57.409 29.9043 57.3637 30.0734 57.3184 30.2425C56.9002 38.4673 56.694 46.5676 56.2759 54.7924C54.4418 52.3074 52.8196 49.6979 50.9855 47.2129C51.1464 39.2816 51.262 31.5195 51.4229 23.5882C53.5596 25.6106 55.5296 27.5884 57.4543 29.7352ZM39.861 34.0829C42.3016 37.6366 44.6969 41.3594 47.1375 44.9131C39.608 40.3583 31.8974 36.4799 23.5816 33.5268L23.415 33.4821C22.5046 30.8821 21.806 28.1577 21.1075 25.4332C27.5906 27.8953 33.7711 30.82 39.861 34.0829ZM49.1089 48.8849C49.1849 49.2677 49.6847 49.4016 50.0633 49.3218C51.3669 51.121 52.6252 53.0893 53.9288 54.8885C46.2181 51.01 38.2356 48.1462 29.8146 46.2523C29.8146 46.2523 29.8146 46.2523 29.648 46.2076C27.6619 42.9569 25.8877 39.5818 24.5374 35.9577C33.0957 39.3383 41.4275 43.5644 49.1089 48.8849ZM56.1574 58.5666L56.3241 58.6113C57.3397 60.1521 58.3554 61.6929 59.3711 63.2337C52.2056 59.3201 44.511 56.7146 36.242 55.5864C34.4839 53.4842 32.7711 51.2129 31.2249 48.9862C39.9337 51.1385 48.2042 54.2607 56.1574 58.5666ZM62.0543 67.2149C63.07 68.7557 64.131 70.1274 65.1467 71.6682C59.0875 68.9572 52.6804 66.878 46.1374 65.306C45.9708 65.2614 45.8042 65.2167 45.7589 65.3858C43.1678 63.0604 40.7885 60.6106 38.4093 58.1607C46.9662 59.5473 54.8581 62.7494 62.0543 67.2149ZM68.4789 72.561C67.2206 70.5928 65.7504 68.7489 64.4921 66.7807C64.9891 62.9266 65.2741 59.1971 65.6045 55.2984C65.739 52.7972 65.9188 50.1268 66.0533 47.6256C66.1732 45.8453 65.5653 42.7827 66.109 40.7535C66.7154 41.8222 67.3673 42.7218 67.9737 43.7905C68.4047 53.5115 68.7144 63.0187 68.4789 72.561ZM64.5174 38.696C64.4721 38.8651 64.3055 38.8204 64.2602 38.9895C62.9448 41.8993 63.8114 46.6624 63.7076 49.7156C63.4839 54.549 63.0936 59.3378 62.5367 64.0819C61.1571 61.8999 59.5656 59.8423 58.186 57.6603C58.5281 49.0527 58.8703 40.4451 59.2124 31.8374C60.1521 32.9954 61.0918 34.1534 62.0315 35.3113C62.9713 36.4693 63.7443 37.5826 64.5174 38.696ZM27.5909 7.23453C27.683 8.89032 27.6537 10.3324 27.7458 11.9881C26.1996 9.76148 24.8653 7.41037 23.3191 5.18372C24.7732 5.75459 26.1821 6.49456 27.5909 7.23453ZM20.9266 5.44884C22.1849 7.41712 23.3219 9.17166 24.5802 11.1399C23.2927 10.6137 21.7932 10.2119 20.415 10.0239C20.4443 8.58184 20.6855 7.01534 20.9266 5.44884ZM74.4696 64.1983C74.5763 65.1331 74.7283 65.8987 74.8349 66.8335C74.623 66.9579 74.3658 67.2515 74.2752 67.5897C73.9448 71.4883 73.4479 75.3424 73.1175 79.241C72.1778 78.083 71.45 76.8006 70.5103 75.6427C70.7675 75.3491 70.7368 74.7972 70.4942 74.3697C70.6698 65.7174 70.6334 57.1896 70.0519 48.697C72.3419 53.479 73.8296 58.5898 74.4696 64.1983Z" fill="#5B4696"/>
</g>
</g>
<defs>
<clipPath id="clip0">
<rect x="18.8938" y="0.373291" width="84" height="73" transform="rotate(15 18.8938 0.373291)" fill="white"/>
</clipPath>
</defs>
</svg>
