<svg width="174" height="159" viewBox="0 0 174 159" fill="none" xmlns="http://www.w3.org/2000/svg">
<g opacity="0.2">
<g clip-path="url(#clip0)">
<path d="M88.2394 65.6444C88.4046 65.6444 88.5698 65.4795 88.7351 65.3145C106.251 46.8415 86.4217 18.8021 77.6639 0.988822C77.1681 -0.000804901 76.5072 -0.000804946 75.8462 0.164133C75.681 0.164133 75.5157 -0.000804946 75.5157 -0.000804946C69.567 -0.825494 66.2621 2.30832 64.4445 6.76164C58.3305 4.94733 53.3733 4.61745 47.4245 7.58633C41.6411 10.5552 37.8405 16.493 36.1881 22.5957C36.0228 22.9255 36.1881 23.2554 36.1881 23.5853C31.8918 26.2243 28.2565 29.8529 25.4473 33.9764C12.8889 35.9556 3.80061 47.5013 4.62682 60.0365C4.62682 60.2015 4.62682 60.3664 4.79207 60.5314C3.63537 61.1911 2.64392 62.0158 1.65247 62.8405C0.495771 62.8405 -0.495682 63.8301 0.330528 64.9847C8.92312 76.5303 19.9943 83.4577 33.5442 88.2409C44.7807 92.1994 57.1738 95.4982 68.0798 88.7357C68.4103 88.5708 68.7408 88.076 68.7408 87.7461C73.0371 87.7461 77.0029 86.9214 80.3077 84.1175C89.2308 95.993 98.4844 107.539 108.234 118.589C108.399 119.084 108.399 119.744 108.564 120.239C108.729 121.064 109.225 121.393 109.886 121.393C110.217 121.723 110.712 122.053 111.208 121.888C115.339 126.506 119.635 131.125 124.097 135.743C126.08 137.887 128.228 139.866 130.541 141.846C113.852 134.094 97.3277 127.001 78.3248 128.981C76.8376 129.145 76.5072 131.29 77.4986 131.784C77.4986 131.949 77.6639 132.114 77.8291 132.114C85.5955 140.031 95.0143 145.144 105.59 147.618C113.026 149.433 126.41 150.752 133.681 146.464C133.846 146.629 134.011 146.629 134.177 146.794C134.838 147.124 135.499 146.959 135.994 146.464C146.735 154.711 158.963 160.484 173.174 158.669C175.157 158.504 174.331 155.536 172.348 155.7C151.527 158.339 135.499 143.825 122.444 129.97C119.305 126.671 116.331 123.373 113.191 120.074C124.758 107.539 123.766 86.0967 122.279 70.4276C122.114 69.438 121.288 68.9432 120.627 68.9432C119.966 68.4484 118.809 68.2834 118.313 69.2731C109.721 82.4681 106.086 97.8073 107.242 113.311C98.4844 103.25 90.057 92.6942 82.1254 81.9733C86.5869 77.355 88.2394 71.5822 88.2394 65.6444ZM104.103 144.485C95.51 142.505 87.7436 137.887 81.2992 131.784C97.8234 130.795 112.53 136.898 127.237 143.66C115.339 142.011 103.772 138.877 92.5357 134.423C91.379 133.929 90.8832 135.908 92.0399 136.403C103.442 140.856 115.174 143.99 127.237 145.639C119.801 147.454 110.051 145.804 104.103 144.485ZM119.635 72.9017C120.792 86.7565 121.453 104.735 112.53 116.115C114.017 107.374 115.67 98.632 117.157 89.7253C117.322 88.4058 115.504 87.911 115.174 89.2305C113.687 97.9722 112.034 106.879 110.547 115.621C108.729 100.776 111.869 85.9318 119.635 72.9017ZM74.6895 2.96807C74.8547 2.96807 75.1852 2.96807 75.3505 2.96807C79.4815 11.5448 83.7778 19.9567 87.7436 28.5334C91.5442 36.9453 94.1881 46.8415 91.2137 55.4183C89.5613 41.0687 83.9431 28.0386 77.8291 14.8436C77.3334 13.854 75.5157 14.8436 76.0114 15.9982C82.4559 29.688 88.4046 43.3778 89.396 58.717C89.396 58.882 89.396 59.0469 89.5613 59.0469C89.0656 59.8716 88.4046 60.8612 87.7436 61.6859C85.5955 46.5116 73.8633 29.688 65.2707 20.1216C65.2707 19.9567 65.2707 19.7917 65.2707 19.7917C65.2707 13.689 65.7664 1.81351 74.6895 2.96807ZM48.7465 10.2253C53.3733 7.42139 58.4958 8.24608 63.2878 9.73052C62.9573 11.215 62.6268 12.8643 62.4616 14.5137C61.9659 13.3592 61.3049 12.2046 60.6439 11.05C59.9829 9.89546 58.1653 10.8851 58.8262 12.0397C59.9829 13.854 60.9744 15.9982 61.8006 17.9774C61.9659 18.3073 62.1311 18.4722 62.2963 18.4722C62.2963 18.6372 62.2963 18.8021 62.2963 18.8021C62.1311 18.8021 62.1311 18.967 62.1311 19.132C59.322 16.1631 56.6781 13.3592 53.869 10.3903C53.0428 9.40065 51.5556 10.8851 52.3818 11.8747C54.53 14.1838 56.6781 16.328 58.8262 18.6372C58.1653 18.4722 57.3391 18.4722 56.6781 18.4722C54.0342 16.6579 51.3904 14.8436 48.9117 13.0293C47.9203 12.3695 46.9288 14.0189 47.9203 14.8436C49.7379 15.9982 51.3904 17.3177 53.208 18.4722C52.3818 18.4722 51.5556 18.6372 50.8946 18.6372C50.7294 18.4722 50.5641 18.3073 50.2337 18.1423C49.9032 18.1423 49.4074 17.9774 49.077 17.9774L48.9117 17.8125C48.2508 17.3177 47.4245 16.8228 46.7636 16.328C45.7721 15.5033 44.7807 17.3177 45.7721 18.1423C46.2678 18.4722 46.9288 18.967 47.4245 19.2969C44.6154 19.7917 42.1368 20.7814 39.6582 21.9359C41.1453 16.8228 44.2849 13.0293 48.7465 10.2253ZM23.2992 37.605C22.1425 39.7492 21.3163 42.0583 20.6553 44.3675C20.1596 43.7077 19.4986 43.2129 18.8377 42.883C17.681 42.3882 16.6895 44.0376 17.8462 44.6973C18.8377 45.1921 19.4986 46.0168 19.6639 47.0065C19.6639 47.3363 19.8291 47.5013 19.9943 47.6662C19.9943 48.161 19.8291 48.4909 19.8291 48.9857C18.6724 47.5013 17.5157 46.3467 16.0285 45.0272C15.0371 44.2025 13.5499 45.522 14.5414 46.5116C16.1938 47.9961 17.8462 49.6455 19.1681 51.4598C19.3334 51.6247 19.3334 51.6247 19.4986 51.7896C19.4986 52.7793 19.4986 53.7689 19.4986 54.7585C18.0114 53.604 16.6895 52.2845 15.3676 50.8C14.7066 49.6455 13.2194 51.1299 14.0456 52.1195C15.3676 53.7689 17.02 55.2533 18.6724 56.5728C18.0114 56.5728 17.3505 56.5728 16.6895 56.7378C15.0371 55.7482 13.5499 54.5936 12.228 53.439C11.2365 52.6143 9.91457 53.9338 10.7408 54.9235C11.567 55.7482 12.5584 56.5728 13.5499 57.2326C11.4018 57.7274 9.41885 58.2222 7.43594 59.2119C7.43594 48.9857 13.8804 40.4089 23.2992 37.605ZM62.4616 88.076C62.2963 87.911 62.1311 87.911 61.9659 87.911C44.1197 86.2616 29.0827 76.3654 15.2023 65.6444C14.2109 64.8197 12.7237 66.3042 13.7151 67.1289C26.9345 77.355 41.1453 86.5915 57.6696 89.3955C49.9032 90.55 41.8063 87.911 34.2052 85.437C21.9773 81.3135 11.8975 75.0459 3.96586 64.9847C8.59264 61.1911 14.3761 59.3768 20.3248 59.7067C28.4217 69.9328 38.6667 77.8498 50.5641 83.1278C54.3647 84.7772 59.1567 86.5915 64.114 87.4162C63.453 87.5811 62.9573 87.911 62.4616 88.076ZM45.9374 77.5199C36.849 72.7367 29.0827 65.8094 22.6382 57.7274C21.6468 49.8104 23.4644 42.5531 27.0998 36.6154C27.5955 36.4504 27.7607 35.9556 27.7607 35.4608C35.0314 24.7399 48.416 18.6372 62.7921 22.2658C62.9573 22.2658 63.2878 22.2658 63.453 22.2658C75.02 35.2959 92.5357 61.1911 81.4644 77.8498C80.6382 63.6652 76.3419 50.3052 68.7408 38.0998C68.0798 36.9453 66.2621 37.9349 66.9231 39.0894C74.359 50.965 78.4901 64.16 79.3163 78.0148C71.7151 62.3457 61.3049 48.161 48.5812 36.2855C47.5898 35.4608 46.2678 36.7803 47.0941 37.7699C59.8177 49.6455 70.0627 63.6652 77.6639 79.3343C62.7921 71.7471 49.4074 61.6859 38.0057 49.4805C37.1795 48.4909 35.6923 49.9753 36.5186 50.965C48.416 63.6652 62.2963 74.0563 77.9943 81.8083C77.9943 81.8083 77.9943 81.8083 77.8291 81.8083C62.7921 79.6641 48.7465 73.0666 37.1795 62.6755C36.1881 61.8509 34.8661 63.1704 35.6923 64.16C47.0941 74.3861 60.6439 80.9836 75.5157 83.6226C66.7579 87.7461 53.3733 81.3135 45.9374 77.5199Z" fill="#5B4696"/>
</g>
</g>
<defs>
<clipPath id="clip0">
<rect width="174" height="159" fill="white"/>
</clipPath>
</defs>
</svg>
