<svg width="157" height="248" viewBox="0 0 157 248" fill="none" xmlns="http://www.w3.org/2000/svg">
<g opacity="0.2">
<g clip-path="url(#clip0)">
<path d="M167.376 128.232C163.706 127.487 161.003 130.374 160.378 133.648C153.21 134.162 146.244 133.296 139.398 131.159L139.48 131.051C141.172 129.27 142.543 127.245 143.509 125.082C143.673 124.866 143.648 124.677 143.623 124.487C146.351 124.687 149.022 122.288 149.427 119.527C149.603 117.958 148.669 116.736 147.513 116.028C147.38 115.756 146.976 115.619 146.49 115.591C144.842 115.53 142.732 115.63 141.425 116.681C138.678 118.512 139.158 122.115 141.684 123.695C141.602 123.803 141.437 124.019 141.355 124.127C140.471 126.181 139.158 127.909 137.547 129.581C137.383 129.797 137.301 129.905 137.244 130.203L137.054 130.229C134.023 130.651 131.017 131.262 128.036 132.063C129.217 130.064 130.29 127.984 131.471 125.984C132.122 125.797 132.722 125.231 133.025 124.61C133.41 123.88 133.227 123.23 132.772 122.713C132.747 122.524 132.615 122.253 132.292 122.008C131.219 121.191 129.836 121.673 128.989 122.564C128.579 123.104 128.465 123.699 128.541 124.268C128.509 124.755 128.749 125.108 129.179 125.434C127.777 127.947 126.375 130.46 124.865 132.891C116.737 134.89 108.817 137.73 101.081 141.221C100.891 141.247 100.512 141.3 100.43 141.408C100.348 141.516 100.348 141.516 100.159 141.542C102.47 137.165 104.864 132.68 107.175 128.302C107.554 128.249 108.097 127.981 108.319 127.467C108.508 127.441 108.697 127.414 108.78 127.307C113.232 125.239 117.659 122.981 122.112 120.913C122.326 121.076 122.459 121.348 122.674 121.511C124.07 122.572 126.533 122.23 127.6 120.826C129.021 119.18 128.446 117.038 126.918 115.706C125.364 114.184 123.059 114.988 121.695 116.336C121.013 117.01 120.842 117.903 120.943 118.662C116.952 120.569 113.043 122.368 109.159 124.357C112.133 118.439 115.026 112.629 117.811 106.737C117.975 106.521 117.95 106.331 118.114 106.115C128.2 102.878 138.393 99.7214 148.479 96.4835C148.669 96.4572 148.751 96.3492 148.751 96.3492C153.481 96.3671 158.104 96.3033 162.917 96.2132C163.157 96.5661 163.397 96.919 163.637 97.2719C166.984 100.669 172.965 97.0364 171.683 92.4831C171.291 90.9925 169.674 90.4449 168.133 90.4661C168.026 90.3845 168.026 90.3845 167.919 90.3029C166.087 89.592 164.161 90.3428 162.929 91.9626C162.519 92.5025 162.405 93.0978 162.292 93.693C158.426 93.6513 154.586 93.7992 150.721 93.7575C152.635 91.4634 154.012 88.7612 154.688 85.8668C156.772 85.5768 158.628 83.5803 158.136 81.3313C157.669 79.2719 155.591 78.885 153.936 79.5014C153.071 79.5252 152.149 79.8466 151.656 80.4946C150.481 81.8168 150.841 83.7945 151.966 84.9901C152.073 85.0717 152.18 85.1533 152.288 85.235C151.637 88.319 150.178 91.1292 147.778 93.3944C147.614 93.6104 147.45 93.8263 147.393 94.1239L147.204 94.1503C137.85 97.0931 128.497 100.036 119.061 103.087C124.082 92.2488 128.648 80.8949 132.217 69.2934C132.514 69.3487 132.867 69.1064 133.031 68.8904C137.648 63.7096 141.728 58.1206 145.271 52.1235C145.568 52.1787 145.839 52.0444 146.136 52.0997C149.225 51.3803 152.338 47.9537 149.717 44.9385C147.898 42.8739 144.993 44.2438 144.134 46.4877C143.181 47.2963 142.549 48.3498 142.644 49.7851C142.72 50.354 142.96 50.7069 143.2 51.0597C140.345 55.7057 137.276 60.1885 133.777 64.3447C137.509 52.5273 139.65 40.3519 140.143 28.1161C140.332 28.0898 140.604 27.9554 140.768 27.7394C142.707 25.635 144.621 23.3409 146.237 20.9915C149.143 22.5187 152.9 19.5818 151.662 16.0845C151.347 15.1628 150.57 14.4017 149.547 13.9647C149.332 13.8014 149.117 13.6382 148.82 13.5829C147.229 13.2249 145.41 14.0573 144.64 15.5164C143.926 16.6779 143.913 18.0316 144.444 19.1166C143.155 21.034 141.678 22.9778 140.067 24.6503C140.301 16.9891 139.751 9.24375 138.337 1.52219C137.945 0.0316123 135.564 0.266276 135.873 1.86484C138.551 16.1703 138.311 30.3022 136.101 44.1289C134.124 38.7065 132.065 33.3922 130.088 27.9698C130.714 27.5931 131.232 27.1348 131.535 26.5132C132.608 24.4326 131.522 22.073 129.558 21.0909C127.701 20.1904 125.339 21.2915 124.834 23.2931C124.752 23.4011 124.67 23.5091 124.613 23.8067C123.785 25.5634 124.632 27.5701 126.381 28.389C126.893 28.6075 127.297 28.7444 127.783 28.7733C130.076 35.1174 132.558 41.4351 134.85 47.7792C134.983 48.0505 135.116 48.3217 135.412 48.377C133.587 58.5771 130.682 68.6378 127.076 78.5064C124.316 72.9998 121.91 67.2509 119.882 61.4493C121.026 60.6143 122.011 59.3185 121.916 57.8832C121.828 55.7711 120.059 54.0858 117.975 54.3757C117.217 54.4811 116.592 54.8578 115.992 55.4241C114.634 56.0958 113.624 57.202 113.447 58.7717C113.182 61.1262 115.468 62.3532 117.577 62.2528C119.895 68.7866 122.567 75.0779 125.699 81.2086C125.724 81.3982 125.832 81.4798 125.939 81.5615C122.889 89.8076 119.409 97.7273 115.739 105.673C113.036 111.457 110.144 117.267 107.226 122.888C105.963 119.201 104.592 115.432 103.032 111.69C103.115 111.582 103.171 111.284 103.039 111.013C102.887 109.875 102.818 108.63 102.963 107.547C102.938 107.358 102.912 107.168 102.887 106.978C103.481 98.398 103.967 89.7361 104.561 81.1557C105.59 80.9159 106.354 80.1337 106.904 79.1881C107.649 77.5394 107.157 75.2904 105.597 74.4452C105.489 74.3635 105.192 74.3083 105.085 74.2266C104.952 73.9554 104.63 73.7105 104.251 73.7632C102.388 73.5396 100.538 74.8592 100.007 76.6712C99.4768 78.4832 100.595 80.3556 102.237 81.0928C101.7 89.3755 101.163 97.6583 100.734 106.023C98.5357 101.114 96.0411 96.1498 93.3822 91.4017C93.6285 91.0778 93.7927 90.8618 93.9317 90.4562C94.9801 88.1859 93.6538 85.4734 91.1718 84.9496C90.5781 84.8391 89.9023 84.8365 89.2518 85.0236C87.6856 84.8552 85.9488 85.5797 85.2856 87.1204C84.1552 89.4987 85.6709 92.1848 87.8245 93.1405C89.0624 93.7409 90.3886 93.5563 91.4749 93.019C97.3231 103.6 102.06 114.529 105.9 125.969C100.367 136.588 94.6453 147.234 88.816 157.798C87.8244 159.771 86.6434 161.77 85.6519 163.742C82.6204 155.473 78.5848 147.633 73.6523 140.305L73.5449 140.223C73.8228 136.515 73.9934 132.725 74.1891 129.125C76.0585 128.672 77.1827 126.97 77.0943 124.858C77.0754 123.992 76.6775 123.178 76.1154 122.58C76.1722 122.283 75.9322 121.93 75.6102 121.685C75.6102 121.685 75.6102 121.685 75.5028 121.603C75.6165 121.008 75.2438 120.384 74.4607 120.3C72.1113 120.047 69.5282 121.662 68.9914 124.151C68.4862 126.152 69.8188 128.188 71.6503 128.899C71.4798 132.689 71.2019 136.397 71.0313 140.187C69.4335 140.505 67.8925 140.527 66.3262 140.358C66.2189 140.277 66.301 140.169 66.1936 140.087C65.7452 138.894 64.4 138.212 63.1558 138.289C62.8337 138.044 62.2401 137.933 61.8043 138.283C60.5791 139.226 60.2127 140.822 60.6864 142.205C61.2927 143.859 63.2884 144.354 64.7536 143.764C65.2968 143.495 65.6505 143.253 65.9789 142.821C67.7346 142.963 69.4651 142.915 71.1703 142.678C71.5176 143.112 72.0292 143.331 72.4902 143.17C73.8228 145.206 75.1807 147.431 76.4312 149.575C70.8166 148.714 57.4592 146.227 55.0529 143.375C55.2992 143.051 55.5455 142.727 55.6845 142.322C56.3476 140.781 55.9055 138.911 54.674 137.634C54.895 137.12 54.7119 136.47 54.0109 136.278C51.8004 135.619 49.4131 136.531 48.3395 138.612C47.2658 140.692 48.3521 143.052 50.3162 144.034C51.0425 144.416 51.933 144.582 52.6909 144.476C53.8656 146.051 56.6697 146.82 58.3118 147.557C64.6147 149.963 71.1703 151.369 77.8395 152.179C80.2837 156.764 82.292 161.699 84.0035 166.579C77.65 178.278 70.9745 189.733 64.0842 201.024C63.8505 194.2 62.9663 187.563 61.2169 180.951C61.6779 177.893 62.3537 174.999 63.2189 172.078C65.6252 172.033 68.0251 169.768 67.2672 166.976C67.1914 166.407 66.7367 165.891 66.3073 165.565C67.4188 165.217 66.9515 163.157 65.5999 163.152C63.4905 163.252 61.2169 163.569 60.0359 165.568C59.1012 167.243 59.2717 169.247 60.4211 170.632C60.5285 170.714 60.7432 170.877 60.7685 171.067C60.6864 171.175 60.6864 171.175 60.6043 171.283C60.2759 171.715 60.3264 172.094 60.459 172.365C59.9285 174.177 59.5054 176.071 59.0822 177.964C56.9854 176.711 54.7813 175.376 52.7666 174.015C52.6656 173.256 52.2677 172.442 51.7309 172.034C51.7877 171.737 51.7372 171.357 51.6046 171.086C50.3541 168.943 47.2847 170.528 46.0027 171.769C44.5311 173.036 44.5374 175.256 45.4153 176.776C47.0637 179.733 50.8278 179.016 52.3372 176.585C54.3266 177.757 56.1265 178.955 58.1159 180.127C58.2233 180.208 58.4128 180.182 58.5201 180.264C58.3307 180.29 58.2486 180.398 58.0591 180.424C57.0802 181.043 55.9118 181.689 54.8255 182.226C54.2003 182.603 54.2192 183.469 54.5666 183.904C55.0213 184.42 55.6971 184.422 56.2402 184.154C57.137 183.643 58.0338 183.132 58.7412 182.647C58.8485 182.729 58.9559 182.81 59.0633 182.892C60.6485 189.721 61.5832 196.736 61.4632 203.802C61.4884 203.992 61.5137 204.182 61.6463 204.453C58.7917 209.099 55.8297 213.663 52.8677 218.228C51.9898 219.605 53.9224 221.074 54.8002 219.697C60.0106 211.73 65.0315 203.789 69.8376 195.685C70.2418 195.822 70.6208 195.769 70.9744 195.526C71.4923 195.068 71.9281 194.718 72.5533 194.341C78.73 192.903 85.0392 191.735 91.2917 190.865C91.8727 192.33 92.5611 193.875 93.1421 195.34C92.9779 195.556 92.8958 195.664 92.8137 195.772C92.2074 197.015 93.0853 198.534 94.3232 199.134C95.4536 199.653 97.0262 199.145 97.7399 197.983C98.4535 196.822 98.062 195.331 96.9062 194.623C96.4768 194.296 95.8831 194.186 95.5042 194.238C95.1884 193.317 94.7905 192.503 94.4747 191.581C98.3588 192.489 102.3 193.1 106.323 193.603C106.815 195.852 108.906 197.782 111.091 198.25C114.678 199.103 117.71 195.784 118.442 192.592C119.124 189.021 116.459 187.847 113.592 188.053C111.034 186.96 107.643 188.301 106.563 191.058L106.481 191.166C103.051 190.774 99.704 190.274 96.3315 189.585C98.6999 187.807 100.853 185.866 102.9 183.843C104.03 184.361 105.489 184.448 106.683 183.992C108.716 183.323 109.55 180.89 109.487 178.967C109.468 178.101 109.127 176.989 108.375 176.418C107.839 176.01 106.973 176.034 106.215 176.139C106.108 176.057 106.108 176.057 106.001 175.976C102.388 174.933 99.0788 179.063 101.024 182.076C98.8956 184.207 96.6347 186.066 94.1842 187.952C86.7697 188.791 79.431 190.198 72.2249 191.876C76.949 183.88 81.5657 175.802 85.8856 167.669C86.2392 167.427 86.5676 166.995 86.5992 166.508C87.6729 164.427 88.936 162.32 90.0096 160.239C90.2307 159.726 90.5591 159.294 90.8622 158.672C91.0201 159.133 91.4749 159.649 92.2327 159.544C100.405 158.6 108.495 157.764 116.668 156.82C120.034 158.187 123.59 159.527 126.956 160.893C126.463 164.438 129.703 167.754 133.221 167.361C136.713 166.778 138.564 162.562 137.294 159.552C137.029 159.009 136.682 158.575 136.334 158.14L136.227 158.059C134.004 155.857 129.836 156.437 127.922 158.731C125.175 157.665 122.535 156.68 119.87 155.506C122.074 153.944 124.253 152.192 126.217 150.277C127.158 150.822 128.238 150.962 129.267 150.722C132.084 150.137 133.549 146.65 131.895 144.37C130.587 142.524 128.023 142.108 126.337 143.211C125.251 143.749 124.512 144.721 124.202 146.019C124.032 146.912 124.051 147.778 124.531 148.484C122.213 150.641 119.762 152.527 117.205 154.332L117.122 154.44L116.933 154.466C116.826 154.384 116.636 154.411 116.447 154.437C108.274 155.381 100.102 156.325 91.9296 157.268L91.7401 157.295C94.0769 153.107 96.3884 148.73 98.6178 144.46C99.022 144.597 99.4009 144.545 99.7546 144.302C100.298 144.033 100.816 143.575 101.359 143.307C101.359 143.307 101.548 143.28 101.63 143.172C112.923 138.125 124.689 134.46 136.764 132.394C136.764 132.394 136.764 132.394 136.871 132.476C144.658 135.158 152.622 136.272 160.763 135.815C160.814 136.194 160.946 136.465 160.997 136.845C161.104 136.926 161.129 137.116 161.129 137.116C161.338 137.956 162.222 138.799 163.087 138.775L163.277 138.749C165.531 140.463 168.967 140.178 171.26 137.831C174.67 134.46 171.853 129.251 167.376 128.232ZM167.205 94.3613C167.287 94.2533 167.394 94.335 167.477 94.227C167.666 94.2006 167.717 94.5799 167.205 94.3613ZM112.594 193.599C112.512 193.707 112.594 193.599 112.594 193.599V193.599ZM144.785 121.622C144.703 121.73 144.703 121.73 144.785 121.622C144.703 121.73 144.703 121.73 144.785 121.622Z" fill="#5B4696"/>
<path d="M118.948 176.106C118.727 176.619 118.91 177.27 119.339 177.596C120.28 178.142 121.171 178.307 122.282 177.96C123.394 177.612 123.918 176.477 123.874 175.421C123.855 174.554 123.4 174.038 122.756 173.548C122.541 173.385 122.326 173.222 122.055 173.356L121.948 173.274C120.76 173.053 119.914 173.944 119.579 175.052C119.333 175.376 119.087 175.7 118.948 176.106Z" fill="#5B4696"/>
<path d="M151.069 155.028C151.075 154.351 150.646 154.025 150.109 153.617C150.083 153.427 149.869 153.264 149.654 153.1C149.117 152.692 148.359 152.798 147.949 153.338C147.703 153.662 147.374 154.094 147.235 154.499C146.743 155.147 146.951 155.987 147.785 156.451C148.511 156.832 149.105 156.943 149.862 156.838C150.702 156.624 151.17 155.787 151.069 155.028Z" fill="#5B4696"/>
<path d="M104.34 165.681C104.258 165.789 104.175 165.897 104.093 166.005C103.108 167.301 105.041 168.77 106.026 167.474C106.108 167.366 106.19 167.258 106.272 167.15C107.257 165.855 105.325 164.385 104.34 165.681Z" fill="#5B4696"/>
<path d="M130.511 185.409C130.246 184.867 129.653 184.756 129.002 184.943C127.701 185.317 126.88 186.397 126.571 187.696C126.432 188.101 126.697 188.644 127.019 188.889C127.853 189.352 128.743 189.518 129.64 189.007C130.455 188.604 131.111 187.74 131.175 186.765C131.263 185.981 131.023 185.628 130.511 185.409ZM129.981 187.221C129.981 187.221 129.899 187.329 129.817 187.437C129.899 187.329 129.899 187.329 129.981 187.221Z" fill="#5B4696"/>
<path d="M137.035 109.084C136.878 108.623 136.366 108.404 135.798 108.484C134.446 108.478 133.271 109.801 133.259 111.154C133.189 112.806 134.692 113.948 136.372 113.522C137.945 113.013 138.88 111.338 137.92 109.927C137.68 109.574 137.358 109.329 137.035 109.084ZM135.772 111.191C135.772 111.191 135.854 111.083 135.772 111.191V111.191Z" fill="#5B4696"/>
<path d="M82.6268 137.415C82.6205 138.091 83.0184 138.905 83.7194 139.097C85.4183 139.537 86.9719 138.162 87.0162 136.321C86.9656 135.942 86.6183 135.507 86.2141 135.37C86.1067 135.289 85.9172 135.315 85.9172 135.315C85.8099 135.234 85.892 135.126 85.7846 135.044C85.3299 134.528 84.6541 134.525 84.111 134.794C83.4857 135.171 83.2647 135.684 82.9616 136.306C82.9616 136.306 82.9616 136.306 82.8795 136.414C82.5258 136.656 82.5763 137.035 82.6268 137.415Z" fill="#5B4696"/>
<path d="M57.2445 111.3C55.5519 110.184 52.9499 110.932 52.2551 112.96C52.0341 113.473 52.192 113.934 52.5141 114.179C52.5899 114.748 52.6656 115.317 53.013 115.751C54.0235 117.542 56.4045 117.307 57.6613 115.877C58.836 114.555 58.8297 112.335 57.2445 111.3Z" fill="#5B4696"/>
<path d="M82.6204 109.122C83.3025 108.447 83.3657 107.473 82.6962 106.794C82.2668 106.467 81.8626 106.33 81.4015 106.491C81.2942 106.409 81.2942 106.409 81.1047 106.436C80.3216 106.351 79.9111 106.891 79.7974 107.487C79.4879 108.785 81.5026 110.146 82.6204 109.122ZM82.2289 107.631C82.311 107.523 82.2036 107.442 82.2857 107.334C82.2036 107.442 82.311 107.523 82.2289 107.631Z" fill="#5B4696"/>
<path d="M113.175 87.8756C113.819 88.3654 114.659 88.1519 115.07 87.612C115.48 87.0721 115.379 86.3136 114.843 85.9055L114.735 85.8238C114.628 85.7422 114.521 85.6606 114.306 85.4973C113.687 85.1971 113.062 85.5738 112.758 86.1954C112.348 86.7353 112.746 87.5491 113.175 87.8756Z" fill="#5B4696"/>
<path d="M113.428 40.5233C113.485 40.2257 113.46 40.0361 113.245 39.8728C112.79 39.3567 112.007 39.2725 111.571 39.6228C110.864 40.1075 110.314 41.053 110.226 41.8379C110.251 42.0275 110.194 42.3251 110.22 42.5147C110.352 42.7859 110.27 42.8939 110.378 42.9756C110.643 43.518 111.287 44.0078 111.881 44.1184C112.664 44.2026 113.182 43.7442 113.7 43.2859C114.464 42.5037 114.287 41.1764 113.428 40.5233Z" fill="#5B4696"/>
<path d="M156.001 60.9631C156.778 61.7241 158.104 61.5396 159.001 61.0286C159.98 60.4096 160.05 58.7583 159.544 57.863C159.412 57.5917 159.09 57.3468 158.875 57.1836C158.66 57.0203 158.445 56.857 158.041 56.7201C157.043 56.4727 156.064 57.0917 155.49 57.8476C154.966 58.9828 155.117 60.1205 156.001 60.9631Z" fill="#5B4696"/>
<path d="M139.492 89.1393C140.781 90.1189 142.258 88.1751 140.97 87.1955C139.789 86.2976 138.311 88.2414 139.492 89.1393Z" fill="#5B4696"/>
<path d="M66.4652 180.51C66.6231 180.971 67.242 181.271 67.7283 181.3C68.8651 181.142 70.1724 180.091 69.8061 178.79C69.6482 178.329 69.1935 177.813 68.5999 177.702C68.3851 177.539 68.0883 177.484 67.8988 177.51C67.602 177.455 67.2231 177.508 66.8694 177.75C66.1368 178.045 66.0484 178.83 66.3136 179.372C66.2568 179.67 66.3073 180.049 66.4652 180.51ZM68.6883 179.815C68.7704 179.707 68.7704 179.707 68.6883 179.815V179.815Z" fill="#5B4696"/>
<path d="M73.8291 205.365C73.7217 205.284 73.6144 205.202 73.3996 205.039C72.1113 204.059 70.6334 206.003 71.9218 206.982C72.0292 207.064 72.1365 207.146 72.3513 207.309C73.6396 208.288 75.1175 206.345 73.8291 205.365Z" fill="#5B4696"/>
</g>
</g>
<defs>
<clipPath id="clip0">
<rect x="136.783" width="111" height="226" transform="rotate(37.2457 136.783 0)" fill="white"/>
</clipPath>
</defs>
</svg>
