<svg width="16" height="16" viewBox="0 0 16 16" fill="none" xmlns="http://www.w3.org/2000/svg">
<g clip-path="url(#clip0)">
<path d="M15.6095 13.7239L9.88553 7.99994L15.6095 2.276C16.1305 1.7553 16.1302 0.911365 15.6095 0.390741C15.0889 -0.130247 14.2452 -0.130247 13.7243 0.390741L8.00026 6.11469L2.27626 0.390741C1.75556 -0.130247 0.911617 -0.129955 0.390989 0.390741C-0.130004 0.911365 -0.130004 1.75501 0.390989 2.276L6.11498 7.99994L0.390989 13.7239C-0.130004 14.2446 -0.130004 15.0885 0.390989 15.6091C0.651303 15.8698 0.992264 16 1.33344 16C1.6747 16 2.01595 15.8698 2.27626 15.6091L8.00026 9.8852L13.7243 15.6091C13.9846 15.8698 14.3258 16 14.6671 16C15.0082 16 15.3492 15.8698 15.6095 15.6091C16.1305 15.0885 16.1305 14.2449 15.6095 13.7239Z" fill="#5B4696"/>
</g>
<defs>
<clipPath id="clip0">
<rect width="16" height="16" fill="white"/>
</clipPath>
</defs>
</svg>
