<svg width="130" height="95" viewBox="0 0 130 95" fill="none" xmlns="http://www.w3.org/2000/svg">
<path d="M1 1H90C111.539 1 129 18.4609 129 40V94H65H40C18.4609 94 1 76.5391 1 55V1Z" stroke="white" stroke-width="2"/>
<path fill-rule="evenodd" clip-rule="evenodd" d="M57.2771 68.355L85.6179 51.7602C88.8589 49.8624 88.8589 45.1376 85.6179 43.2398L57.2771 26.645C54.0249 24.7407 49.9513 27.1097 49.9513 30.9052L49.9513 64.0948C49.9513 67.8903 54.0249 70.2593 57.2771 68.355ZM86.5969 53.4643C91.1344 50.8074 91.1344 44.1926 86.5969 41.5357L58.2561 24.9409C53.7031 22.2749 48 25.5914 48 30.9052L48 64.0948C48 69.4086 53.7031 72.7251 58.2561 70.0591L86.5969 53.4643Z" fill="white"/>
</svg>
