<svg width="0" height="0" class="hidden">
    <symbol id="result-icon-1" viewBox="0 0 56 60" fill="none" xmlns="http://www.w3.org/2000/svg">
        <path d="M28.104 39.6413C28.4779 39.6413 28.8516 39.5086 29.1496 39.2432L34.074 34.8596C34.4271 34.5456 34.4632 33.9998 34.1559 33.6402C33.848 33.2801 33.3122 33.2434 32.9596 33.5574L28.104 37.8786L21.3099 31.8267L22.9629 31.0942L27.443 35.0829C27.6024 35.2246 27.8015 35.2961 28.0004 35.2961C28.1994 35.2961 28.3985 35.2252 28.5579 35.0829L33.0661 31.0709L41.5658 34.7857C43.5608 35.6875 44.8495 37.707 44.8495 39.9319V42.0883C44.8495 42.5655 45.2291 42.9528 45.6972 42.9528C46.1652 42.9528 46.5449 42.5655 46.5449 42.0883V39.9319C46.5449 37.0238 44.8601 34.3835 42.2434 33.2008L35.8136 30.3913C37.98 29.49 39.5112 27.321 39.5112 24.793V12.6108C39.5112 9.50462 38.325 6.58517 36.171 4.38851C34.0163 2.19308 31.1523 0.983398 28.107 0.983398C21.8191 0.983398 16.704 6.19926 16.704 12.6108V24.7924C16.704 27.2989 18.208 29.4528 20.348 30.3677L13.8746 33.2368C11.1915 34.3888 9.45834 37.0515 9.45834 40.0195V42.0943C9.45834 42.5716 9.83737 42.9588 10.3061 42.9588C10.774 42.9588 11.1538 42.5716 11.1538 42.0943V40.0195C11.1538 37.7484 12.4801 35.7115 14.5417 34.8265L19.5891 32.5896L27.0573 39.2426C27.3559 39.508 27.7296 39.6413 28.104 39.6413ZM32.0359 29.6924L28.0004 33.2843L23.9666 29.6931V27.2202C25.1706 27.8746 26.5434 28.2469 28.0004 28.2469C29.4581 28.2469 30.8314 27.874 32.0359 27.219V29.6924ZM37.8158 24.7924C37.8158 27.1242 35.9919 29.0284 33.7313 29.1041V26.0093C35.3709 24.5133 36.4446 22.3875 36.586 20.0076H37.2776C37.4643 20.0076 37.6438 19.98 37.8158 19.9314V24.7924ZM36.6054 18.2787V15.2493H37.2776C37.4572 15.2493 37.6039 15.3982 37.6039 15.5813V17.9467C37.6039 18.1297 37.4578 18.2787 37.2776 18.2787H36.6054ZM18.3994 12.6108C18.3994 7.15258 22.7539 2.71239 28.107 2.71239C30.6996 2.71239 33.138 3.74194 34.9724 5.6114C36.8056 7.48086 37.8158 9.96691 37.8158 12.6108V13.5966C37.6438 13.548 37.4643 13.5203 37.2776 13.5203C35.5369 13.4406 34.9153 13.9208 32.989 13.9208C29.0659 13.9208 25.6173 11.3669 24.407 7.56493C24.2628 7.11109 23.7847 6.86257 23.3391 7.00965C22.8941 7.15735 22.6498 7.64484 22.7946 8.0993C24.2322 12.6157 28.329 15.6498 32.989 15.6498C33.6349 15.6498 34.277 15.591 34.9082 15.4745V19.4734C34.9082 23.3576 31.8092 26.5179 28.0004 26.5179C24.191 26.5179 21.0921 23.3576 21.0921 19.4734L21.0933 15.0477C21.543 14.8808 22.0741 14.5914 22.5485 14.0894C22.7916 13.8314 22.9994 13.5395 23.1655 13.222C23.3851 12.8006 23.2285 12.277 22.8153 12.0525C22.4025 11.8285 21.8892 11.9878 21.669 12.4092C21.5766 12.5856 21.4618 12.7471 21.3276 12.8894C20.9284 13.3121 20.4522 13.4652 20.1696 13.5203H18.7249C18.6143 13.5203 18.506 13.5317 18.3994 13.5498V12.6108V12.6108ZM18.3994 15.5807C18.4 15.3982 18.5455 15.2493 18.7249 15.2493H19.396V18.2793H18.7249C18.5455 18.2793 18.3994 18.1303 18.3994 17.9473V15.5807ZM18.3994 24.793V19.9789C18.5054 19.9963 18.6137 20.0083 18.7249 20.0083H19.4137C19.555 22.3886 20.6306 24.5156 22.2712 26.0122V29.0909C20.106 28.9036 18.3994 27.0479 18.3994 24.793ZM35.0141 49.4731L30.8815 48.8607L29.0335 45.0426C28.8393 44.6415 28.4461 44.3918 28.0069 44.3918C27.5678 44.3918 27.1744 44.6415 26.9802 45.0426L25.1324 48.8607L21.0003 49.4731C20.5658 49.5374 20.2114 49.8423 20.0754 50.268C19.9401 50.6936 20.0513 51.1523 20.3657 51.4651L23.3557 54.4368L22.6498 58.6331C22.5756 59.0743 22.7498 59.512 23.1054 59.775C23.3061 59.9239 23.5404 59.9995 23.7771 59.9995C23.9591 59.9995 24.1421 59.9551 24.311 59.8644L28.0069 57.8828L31.7033 59.8644C32.0918 60.0728 32.554 60.0386 32.9089 59.7756C33.264 59.512 33.4388 59.0743 33.3647 58.6331L32.6588 54.4368L35.6488 51.4651C35.9631 51.1523 36.0738 50.6942 35.9384 50.268C35.8029 49.8423 35.4486 49.5374 35.0141 49.4731ZM31.2677 53.4048C30.9981 53.6731 30.875 54.0598 30.9386 54.4379L31.505 57.8047L28.5403 56.2156C28.3731 56.1261 28.19 56.0811 28.0069 56.0811C27.8238 56.0811 27.6407 56.1261 27.4742 56.2156L24.5095 57.8047L25.0758 54.4385C25.1394 54.0598 25.0163 53.6731 24.7461 53.4048L22.3478 51.0208L25.6627 50.5297C26.0354 50.4744 26.3579 50.2356 26.5246 49.891L28.0069 46.8274L29.4899 49.891C29.6564 50.2356 29.9791 50.474 30.3516 50.5297L33.6667 51.0208L31.2677 53.4048ZM15.9952 49.4731L11.8632 48.8607L10.0152 45.0426C9.82094 44.6415 9.42714 44.3918 8.98799 44.3918C8.54943 44.3918 8.15549 44.6415 7.96123 45.0426L6.11327 48.8607L1.98122 49.4731C1.54628 49.5374 1.19242 49.8423 1.05709 50.268C0.921003 50.6936 1.03237 51.1523 1.34675 51.4651L4.3366 54.4368L3.63085 58.6331C3.5567 59.0743 3.73091 59.512 4.08583 59.775C4.44149 60.0386 4.90356 60.0728 5.29208 59.8638L8.98799 57.8828L12.6837 59.8638C12.8533 59.9545 13.0358 59.9995 13.2177 59.9995C13.4543 59.9995 13.6893 59.9239 13.89 59.775C14.2449 59.512 14.4199 59.0743 14.3456 58.6331L13.6398 54.4368L16.6298 51.4645C16.9442 51.1523 17.0548 50.6936 16.9195 50.268C16.784 49.8423 16.4297 49.5374 15.9952 49.4731ZM12.2487 53.4048C11.979 53.6731 11.8561 54.0592 11.9197 54.4379L12.486 57.8047L9.52134 56.2156C9.35405 56.1261 9.17094 56.0811 8.98799 56.0811C8.80488 56.0811 8.62177 56.1255 8.45509 56.215L5.49056 57.8047L6.05676 54.4379C6.12036 54.0592 5.99738 53.6731 5.72716 53.4048L3.32883 51.0208L6.64376 50.5291C7.01645 50.474 7.33896 50.2356 7.50564 49.8904L8.98799 46.8274L10.4703 49.8904C10.6375 50.235 10.9595 50.474 11.3327 50.5291L14.6476 51.0202L12.2487 53.4048ZM54.9432 50.268C54.8073 49.8423 54.4534 49.5374 54.0185 49.4731L49.8864 48.8607L48.0384 45.0432C47.8442 44.6415 47.4508 44.3918 47.0117 44.3918C46.5725 44.3918 46.1793 44.6415 45.9851 45.0426L44.1371 48.8607L40.0045 49.4731C39.57 49.5374 39.2157 49.8423 39.0802 50.268C38.9449 50.6936 39.0555 51.1523 39.3698 51.4651L42.3598 54.4368L41.6541 58.6331C41.5798 59.0743 41.7548 59.512 42.1097 59.775C42.4652 60.0386 42.9268 60.0728 43.3159 59.8638L47.0117 57.8828L50.7076 59.8638C50.8765 59.9545 51.0596 59.9995 51.2415 59.9995C51.4782 59.9995 51.7131 59.9239 51.9138 59.775C52.2688 59.512 52.443 59.0743 52.3688 58.6331L51.6631 54.4368L54.6529 51.4645C54.9679 51.1523 55.0787 50.6936 54.9432 50.268ZM50.2725 53.4048C50.0029 53.6731 49.8793 54.0598 49.9434 54.4379L50.5097 57.8047L47.5446 56.2156C47.3779 56.1261 47.1948 56.0811 47.0117 56.0811C46.8287 56.0811 46.6456 56.1255 46.4789 56.215L43.5136 57.8047L44.08 54.4379C44.1436 54.0592 44.0206 53.6731 43.751 53.4048L41.3521 51.0208L44.667 50.5297C45.0402 50.4744 45.3628 50.2356 45.5293 49.891L47.0117 46.8274L48.494 49.891C48.6613 50.2356 48.9832 50.474 49.3565 50.5297L52.6714 51.0208L50.2725 53.4048Z" fill="white"/>
    </symbol>
    <symbol id="result-icon-2" viewBox="0 0 60 60" fill="none" xmlns="http://www.w3.org/2000/svg">
        <path d="M40.0727 34.0642C41.4943 34.0642 42.6508 35.077 42.6508 36.3221C42.6508 36.9769 43.1755 37.5079 43.8227 37.5079C44.4698 37.5079 44.9945 36.9769 44.9945 36.3221C44.9945 34.1492 43.3945 32.3221 41.2445 31.8263V31.2095C41.2445 30.5548 40.7198 30.0238 40.0727 30.0238C39.4256 30.0238 38.9008 30.5548 38.9008 31.2095V31.8263C36.7509 32.3221 35.1508 34.1492 35.1508 36.3221C35.1508 38.8747 37.3587 40.9515 40.0727 40.9515C41.4943 40.9515 42.6508 41.9643 42.6508 43.2094C42.6508 44.4545 41.4943 45.4673 40.0727 45.4673C38.6511 45.4673 37.4945 44.4545 37.4945 43.2094C37.4945 42.5546 36.9698 42.0236 36.3227 42.0236C35.6756 42.0236 35.1508 42.5546 35.1508 43.2094C35.1508 45.3823 36.7509 47.2094 38.9008 47.7052V48.2175C38.9008 48.8723 39.4256 49.4033 40.0727 49.4033C40.7198 49.4033 41.2445 48.8723 41.2445 48.2175V47.7052C43.3945 47.2094 44.9945 45.3823 44.9945 43.2094C44.9945 40.6567 42.7866 38.5799 40.0727 38.5799C38.6511 38.5799 37.4945 37.567 37.4945 36.3221C37.4945 35.077 38.6511 34.0642 40.0727 34.0642ZM52.9079 31.5267C51.3771 29.1131 49.2204 27.1817 46.671 25.9416C46.0875 25.6578 45.3873 25.9063 45.107 26.4966C44.8266 27.0869 45.0721 27.7952 45.6555 28.079C50.0981 30.2399 52.9687 34.8572 52.9687 39.8419C52.9687 41.9749 52.449 44.0902 51.4662 45.9594C51.1622 46.5375 51.3789 47.2556 51.9503 47.5632C52.1256 47.6576 52.314 47.7024 52.4997 47.7024C52.919 47.7024 53.3245 47.474 53.5352 47.0733C54.6979 44.8626 55.3124 42.3619 55.3124 39.8419C55.3124 36.8823 54.4809 34.0069 52.9079 31.5267ZM41.8359 26.7985L41.9037 26.7986H41.9093C42.554 26.7986 43.078 26.2714 43.0811 25.6184C43.084 24.9635 42.5618 24.4301 41.9147 24.4271L41.8359 24.4269C41.1887 24.4269 40.664 24.9578 40.664 25.6127C40.664 26.2676 41.1887 26.7985 41.8359 26.7985ZM34.5008 51.6049C30.0582 49.4438 27.1877 44.8266 27.1877 39.8419C27.1877 37.709 27.7073 35.5937 28.6901 33.7244C28.9941 33.1464 28.7774 32.4283 28.206 32.1207C27.6349 31.8131 26.9249 32.0323 26.6211 32.6105C25.4585 34.8214 24.8439 37.3219 24.8439 39.8419C24.8439 42.8016 25.6754 45.6769 27.2484 48.1571C28.7792 50.5708 30.9359 52.5021 33.4853 53.7423C33.649 53.822 33.822 53.8596 33.9923 53.8596C34.4287 53.8596 34.8475 53.6119 35.0493 53.1874C35.3295 52.5971 35.0841 51.8886 34.5008 51.6049ZM38.3205 52.8854L38.2526 52.8852C37.6025 52.884 37.0784 53.4103 37.0755 54.0653C37.0724 54.7202 37.5949 55.2536 38.242 55.2567L38.3205 55.2569C38.9676 55.2569 39.4923 54.7259 39.4923 54.0712C39.4923 53.4164 38.9676 52.8854 38.3205 52.8854ZM45.3994 20.4151C45.2568 20.0713 45.0821 19.7472 44.8787 19.4466H47.9296C50.9019 19.4466 53.3202 16.9997 53.3202 13.9921C53.3202 10.9845 50.9019 8.53753 47.9296 8.53753H38.5452C39.1418 7.65983 39.4921 6.59797 39.4921 5.45453C39.4921 2.44695 37.0738 0 34.1015 0H5.39061C2.41828 0 0 2.44695 0 5.45453C0 8.46212 2.41828 10.9091 5.39061 10.9091H14.775C14.1784 11.7868 13.8281 12.8486 13.8281 13.9921C13.8281 15.1355 14.1783 16.1974 14.775 17.0751H11.7187C8.74639 17.0751 6.32811 19.522 6.32811 22.5296C6.32811 24.2569 7.12663 25.7983 8.36893 26.7984C7.12663 27.7984 6.32811 29.3398 6.32811 31.0671C6.32811 32.7944 7.12663 34.3358 8.36893 35.3359C7.12663 36.336 6.32811 37.8774 6.32811 39.6047C6.32811 41.332 7.12663 42.8734 8.36893 43.8734C7.12663 44.8735 6.32811 46.4149 6.32811 48.1422C6.32811 51.1498 8.74639 53.5967 11.7187 53.5967H25.5292C29.1674 57.5343 34.3431 60 40.0782 60C51.0631 60 60 50.9571 60 39.8419C60 30.5909 53.809 22.7766 45.3994 20.4151ZM47.9296 10.9091C49.6097 10.9091 50.9765 12.2921 50.9765 13.9921C50.9765 15.692 49.6097 17.0751 47.9296 17.0751H19.2187C17.5386 17.0751 16.1718 15.692 16.1718 13.9921C16.1718 12.2921 17.5386 10.9091 19.2187 10.9091H47.9296ZM5.39061 8.53753C3.7105 8.53753 2.34375 7.15445 2.34375 5.45453C2.34375 3.75462 3.7105 2.37154 5.39061 2.37154H34.1015C35.7816 2.37154 37.1484 3.75462 37.1484 5.45453C37.1484 7.15445 35.7816 8.53753 34.1015 8.53753H5.39061ZM11.7187 19.4466H40.4296C40.9016 19.4466 41.3536 19.5576 41.7591 19.7563C41.2048 19.7092 40.6444 19.6839 40.0782 19.6839C34.5768 19.6839 29.5893 21.9521 25.9807 25.6126H11.7187C10.0387 25.6126 8.67186 24.2295 8.67186 22.5296C8.67186 20.8297 10.0387 19.4466 11.7187 19.4466ZM11.7187 27.9841H23.9783C22.648 29.8284 21.6194 31.9084 20.9662 34.1501H11.7187C10.0386 34.1501 8.67186 32.7672 8.67186 31.0671C8.67186 29.3672 10.0386 27.9841 11.7187 27.9841ZM11.7187 36.5217H20.4281C20.2503 37.6023 20.1563 38.7111 20.1563 39.8419C20.1563 40.8079 20.2254 41.7577 20.3558 42.6877H11.7187C10.0386 42.6877 8.67186 41.3047 8.67186 39.6047C8.67186 37.9046 10.0386 36.5217 11.7187 36.5217ZM11.7187 51.2252C10.0386 51.2252 8.67186 49.8422 8.67186 48.1422C8.67186 46.4422 10.0386 45.0592 11.7187 45.0592H20.8343C21.4256 47.29 22.3862 49.369 23.6459 51.2252H11.7187ZM40.0782 57.6285C30.3856 57.6285 22.5001 49.6494 22.5001 39.8419C22.5001 30.0344 30.3856 22.0554 40.0782 22.0554C49.7707 22.0554 57.6563 30.0344 57.6563 39.8419C57.6563 49.6494 49.7707 57.6285 40.0782 57.6285Z" fill="white"/>
    </symbol>
    <symbol id="result-icon-3" viewBox="0 0 60 60" fill="none" xmlns="http://www.w3.org/2000/svg">
        <path d="M40 33C36.6909 33 34 35.691 34 39C34 40.7733 34.7734 42.3684 36 43.4678V49.0001C36 49.3691 36.203 49.7081 36.529 49.882C36.853 50.0561 37.249 50.036 37.555 49.832L40 48.202L42.445 49.832C42.612 49.943 42.806 50 43 50C43.1619 50 43.324 49.961 43.472 49.882C43.797 49.708 44 49.369 44 49.0001V43.4678C45.2266 42.3684 46.0001 40.7733 46.0001 39C46 35.691 43.309 33 40 33ZM42 47.132L40.554 46.168C40.218 45.943 39.7811 45.943 39.445 46.168L37.9999 47.132V44.6561C38.6258 44.878 39.2987 45 40 45C40.7012 45 41.374 44.878 42 44.6561V47.132ZM40 43C37.7939 43 36 41.2059 36 39C36 36.7939 37.794 35 40 35C42.206 35 43.9999 36.7941 43.9999 39C44 41.2061 42.206 43 40 43ZM35 9.99996H24C23.4477 9.99996 23 10.4476 23 10.9999C23 11.5522 23.4477 11.9999 24 11.9999H35C35.5523 11.9999 36 11.5522 36 10.9999C36 10.4477 35.5523 9.99996 35 9.99996ZM45 16H15C14.4477 16 14 16.4476 14 16.9999C14 17.5522 14.4477 17.9999 15 17.9999H45C45.5523 17.9999 46 17.5522 46 16.9999C46 16.4477 45.5523 16 45 16ZM35 22H15C14.4477 22 14 22.4476 14 22.9999C14 23.5522 14.4477 23.9999 15 23.9999H35C35.5523 23.9999 36 23.5522 36 22.9999C36 22.4477 35.5523 22 35 22ZM41 24H45C45.5523 24 46 23.5523 46 23C46 22.4477 45.5523 22.0001 45 22.0001H41C40.4477 22.0001 40.0001 22.4477 40.0001 23C40 23.5522 40.4477 24 41 24ZM45 28H15C14.4477 28 14 28.4476 14 28.9999C14 29.5522 14.4477 29.9999 15 29.9999H45C45.5523 29.9999 46 29.5522 46 28.9999C46 28.4477 45.5523 28 45 28ZM25 34H15C14.4477 34 14 34.4476 14 34.9999C14 35.5522 14.4477 35.9999 15 35.9999H25C25.5523 35.9999 25.9999 35.5522 25.9999 34.9999C26 34.4477 25.5523 34 25 34ZM18 39H15C14.4477 39 14 39.4477 14 40C14 40.5523 14.4477 40.9999 15 40.9999H18C18.5523 40.9999 19 40.5523 19 40C19 39.4477 18.5523 39 18 39ZM24 41H25C25.5523 41 25.9999 40.5524 25.9999 40.0001C25.9999 39.4478 25.5523 39.0001 25 39.0001H24C23.4477 39.0001 23 39.4478 23 40.0001C23 40.5523 23.4477 41 24 41ZM55 0H13C10.243 0 8.00004 2.24297 8.00004 5.00004V52.0001H0.999961C0.448008 52.0001 0 52.447 0 53V55.0001C0 57.757 2.24297 60 5.00004 60H47C49.757 60 52.0001 57.757 52.0001 55V8.00004H59C59.553 8.00004 60 7.55203 60 7.00008V5.00004C60 2.24297 57.757 0 55 0ZM5.00004 58C3.34605 58 2.00004 56.6539 2.00004 55V54H42V55C42 56.125 42.373 57.1639 43.002 58H5.00004ZM50.8638 2.1941C50.8553 2.20664 50.8471 2.21941 50.8386 2.23207C50.8049 2.28258 50.7721 2.33379 50.7402 2.38559C50.7306 2.40117 50.7211 2.41676 50.7117 2.43234C50.6801 2.48496 50.6495 2.53828 50.6197 2.59219C50.6127 2.60496 50.6054 2.61762 50.5984 2.63051C50.5254 2.76562 50.4584 2.90426 50.3978 3.04641C50.3925 3.05883 50.3876 3.07148 50.3824 3.08402C50.3586 3.14121 50.3358 3.19898 50.314 3.25723C50.3067 3.2768 50.2997 3.29648 50.2925 3.31629C50.2734 3.36961 50.2552 3.4234 50.2379 3.47754C50.2315 3.49781 50.2248 3.51785 50.2186 3.53824C50.2001 3.59859 50.1829 3.65953 50.1666 3.72082C50.1632 3.73383 50.1593 3.7466 50.1559 3.75973C50.1367 3.83496 50.119 3.91078 50.1033 3.9873C50.1007 3.99973 50.0987 4.01238 50.0963 4.02492C50.0838 4.08738 50.0725 4.15031 50.0625 4.21359C50.0586 4.2382 50.0552 4.26293 50.0517 4.28754C50.0442 4.34016 50.0374 4.39289 50.0316 4.44598C50.0285 4.47305 50.0257 4.5 50.0231 4.52719C50.0181 4.58121 50.014 4.63559 50.0107 4.69008C50.0092 4.71457 50.0073 4.73895 50.0061 4.76355C50.0025 4.84195 50.0002 4.92082 50.0002 5.00016V55.0002C50.0002 56.6542 48.6541 58.0002 47.0002 58.0002C45.3462 58.0002 44.0002 56.6542 44.0002 55.0002V53.0002C44.0002 52.4471 43.5532 52.0002 43.0002 52.0002H10.0002V5.00004C10.0002 3.34605 11.3462 2.00004 13.0002 2.00004H51.0022C50.9543 2.06344 50.9086 2.12836 50.8638 2.1941ZM58 6H52V5.00004C52 3.34605 53.346 2.00004 55 2.00004C56.6539 2.00004 58 3.34605 58 5.00004V6Z" fill="white"/>
    </symbol>
    <symbol id="result-icon-4" viewBox="0 0 58 60" fill="none" xmlns="http://www.w3.org/2000/svg">
        <g clip-path="url(#clip0)">
            <path d="M27.3824 36.9645C27.5446 37.042 27.7158 37.0787 27.8844 37.0787C28.3215 37.0787 28.7408 36.8322 28.9412 36.4105L29.1352 36.0022C29.4128 35.418 29.1651 34.719 28.582 34.4408C27.9988 34.1628 27.301 34.4107 27.0232 34.9949L26.8292 35.4031C26.5515 35.9874 26.7992 36.6865 27.3824 36.9645ZM15.4741 27.6512C15.0173 27.1937 14.2768 27.1937 13.82 27.6512C12.8504 28.6226 11.2725 28.6226 10.3028 27.6512C9.84601 27.1937 9.10545 27.1937 8.64871 27.6512C8.19197 28.1087 8.19197 28.8505 8.64871 29.308C9.58957 30.2503 10.8255 30.7216 12.0614 30.7216C13.2972 30.7216 14.5331 30.2504 15.4739 29.308C15.9308 28.8506 15.9308 28.1088 15.4741 27.6512ZM54.8994 3.11294C50.7788 -1.0144 44.083 -1.02635 39.946 3.07451C38.6546 2.43232 37.2837 1.88142 35.838 1.42791C31.0956 -0.0600245 27.2159 -0.00482917 26.8794 0.00255364C20.5349 0.00677239 15.0006 2.67349 12.4334 6.96396C12.0946 7.53021 11.8123 8.11708 11.5858 8.72095C10.3767 9.87419 4.92028 15.5227 4.92028 23.532C4.92028 28.8667 2.35861 31.6518 0.831738 32.8373C0.261165 33.2803 -0.047812 33.9759 0.0054196 34.698C0.0586512 35.4205 0.46637 36.0634 1.09614 36.4179C1.67151 36.7418 2.3186 37.0527 2.94427 37.3534C3.49753 37.6193 4.28372 37.9971 4.66711 38.2429V40.3296C4.66711 40.6151 4.6127 40.8938 4.50542 41.1586L4.2154 41.8736C3.81821 42.8526 3.96445 43.9735 4.5948 44.817V45.074C4.5948 45.8342 4.92893 46.5378 5.48547 47.0151V48.3907C5.48547 51.3385 7.8796 53.7367 10.8226 53.7367H14.2759C14.9219 53.7367 15.4455 53.2121 15.4455 52.5651C15.4455 51.9181 14.9219 51.3936 14.2759 51.3936H10.8226C9.16956 51.3936 7.8245 50.0464 7.8245 48.3906V46.3693C7.8245 45.8999 7.54477 45.4759 7.11377 45.2918L7.06323 45.2702C6.98461 45.2366 6.93384 45.1596 6.93384 45.074V44.4127C6.93384 44.15 6.84562 43.8948 6.68347 43.6883L6.4771 43.4256C6.32805 43.236 6.2919 42.9791 6.38257 42.7555L6.67259 42.0403C6.89394 41.4944 7.00625 40.9188 7.00625 40.3296V37.8355C7.00625 36.7066 5.85821 36.1549 3.95614 35.2408C3.4567 35.0008 2.9431 34.7539 2.48882 34.5105C4.36983 32.9728 7.25954 29.6184 7.25954 23.5319C7.25954 19.1278 9.21671 15.4579 10.9146 13.1022C11.0074 15.1435 11.6238 17.2782 12.7646 19.4156C15.7663 25.0391 20.9935 27.3962 25.1937 29.2899C29.1899 31.0918 31.4517 32.2261 31.4699 34.5839C31.4831 36.3153 31.0855 37.5893 30.2882 38.3701C29.3677 39.2717 28.1459 39.2486 28.1385 39.2484C27.746 39.2209 27.3781 39.3926 27.139 39.7052C26.8999 40.0179 26.8455 40.4307 26.9744 40.8028C27.0087 40.9019 27.8372 43.2551 29.734 45.5481C32.1048 48.4139 35.0973 49.9261 38.4341 49.9599L41.5767 59.1892C41.7425 59.6763 42.1969 59.9829 42.6835 59.9829C42.8087 59.9829 42.9361 59.9626 43.0611 59.9197C43.6725 59.7109 43.9991 59.0451 43.7905 58.4328L40.6955 49.3436C46.5303 46.2117 50.6327 41.3532 52.5883 35.2345C54.1472 30.357 54.2218 24.8842 52.9045 19.7007C53.6263 19.2613 54.2951 18.7366 54.8995 18.1313C59.0331 13.9909 59.0331 7.25365 54.8994 3.11294ZM50.3605 34.5205C48.5252 40.2633 44.5847 44.7847 38.9575 47.6096C36.1121 47.7376 33.6304 46.5599 31.5787 44.1058C30.7514 43.1165 30.1526 42.0982 29.7606 41.3273C30.4279 41.1183 31.1943 40.7457 31.8844 40.0837C33.1798 38.8408 33.8274 36.9845 33.8089 34.5662C33.7785 30.5914 30.0748 28.9216 26.1538 27.1536C22.0756 25.3147 17.453 23.2305 14.8273 18.3111C13.1962 15.255 12.8122 12.3491 13.6816 9.8013C13.6852 9.79158 13.6886 9.78173 13.692 9.77201C13.8827 9.22005 14.1312 8.68451 14.4401 8.16829C16.589 4.57662 21.3615 2.34537 26.8949 2.34537C26.9061 2.34537 26.9172 2.34525 26.9286 2.3449C26.965 2.34373 30.6512 2.25548 35.1389 3.66349C41.111 5.53744 45.5103 9.02904 48.2143 14.0414C51.6318 20.3767 52.4341 28.0323 50.3605 34.5205ZM52.2053 17.3591C51.6836 15.836 51.0396 14.3504 50.272 12.9276C48.352 9.36888 45.5782 6.44693 42.0995 4.27697C45.3425 1.55365 50.1974 1.71654 53.2453 4.76962C56.4671 7.99673 56.4671 13.2477 53.2453 16.4748C52.921 16.7997 52.5734 17.0949 52.2053 17.3591ZM30.0025 54.8803L26.3382 48.5229L26.2143 44.1819C26.1107 40.5465 23.3034 37.5827 19.6845 37.2877C17.0234 37.0705 14.4684 38.5487 13.3255 40.9654L13.2677 41.0876C11.7526 44.2909 12.8457 48.166 15.8102 50.1017L19.4579 52.4835L23.4429 59.397C23.6594 59.7729 24.0525 59.983 24.4567 59.9829C24.6552 59.9829 24.8563 59.9322 25.0405 59.8257C25.5999 59.5023 25.7916 58.7858 25.4686 58.2254L21.9285 52.0836L24.7495 50.4521L27.9768 56.0513C28.2996 56.6116 29.0149 56.8036 29.5745 56.4801C30.1339 56.157 30.3256 55.4406 30.0025 54.8803ZM20.3682 50.281L17.0877 48.1391C15.0986 46.8403 14.3652 44.24 15.3818 42.0906L15.4395 41.9685C16.1211 40.5274 17.5903 39.6098 19.1658 39.6098C19.2751 39.6098 19.385 39.6143 19.4951 39.6233C21.9233 39.8211 23.8069 41.8099 23.8763 44.249L23.9888 48.1872L20.3682 50.281ZM30.9285 57.6574C30.6198 57.6574 30.3192 57.7828 30.1016 58.0006C29.884 58.2185 29.759 58.5208 29.759 58.8289C29.759 59.137 29.8841 59.4392 30.1016 59.6572C30.3191 59.8751 30.6197 60.0004 30.9285 60.0004C31.2361 60.0004 31.5378 59.8751 31.7554 59.6572C31.973 59.4394 32.0981 59.137 32.0981 58.8289C32.0981 58.5208 31.9729 58.2186 31.7554 58.0006C31.5378 57.7827 31.2361 57.6574 30.9285 57.6574ZM20.6355 6.25134C18.5728 7.13458 17.0852 8.62345 16.4465 10.4438C15.8066 12.2679 16.0469 14.3161 17.1414 16.3667C17.3521 16.7615 17.7561 16.9861 18.1739 16.9861C18.36 16.9861 18.5487 16.9414 18.7242 16.8474C19.2939 16.5424 19.5088 15.8326 19.2043 15.2619C18.416 13.785 18.2306 12.4252 18.6533 11.2203C19.072 10.027 20.1025 9.02728 21.5551 8.40548C22.149 8.15119 22.4246 7.46283 22.1708 6.86775C21.9167 6.27326 21.2295 5.99705 20.6355 6.25134ZM25.0235 5.39142L24.9579 5.39154C24.3121 5.39529 23.7914 5.92287 23.7953 6.56998C23.799 7.21462 24.3219 7.73458 24.9647 7.73458H24.9717L25.0235 7.73447C25.6694 7.73447 26.193 7.20994 26.193 6.56294C26.193 5.91595 25.6694 5.39142 25.0235 5.39142Z" fill="white"/>
        </g>
        <defs>
            <clipPath id="clip0">
                <rect width="58" height="60" fill="white"/>
            </clipPath>
        </defs>
    </symbol>
    <symbol id="result-icon-5" viewBox="0 0 56 61" fill="none" xmlns="http://www.w3.org/2000/svg">
        <path d="M28.104 40.3022C28.4779 40.3022 28.8516 40.1673 29.1496 39.8975L34.074 35.4408C34.4271 35.1216 34.4632 34.5667 34.1559 34.2011C33.848 33.835 33.3122 33.7977 32.9596 34.1169L28.104 38.5101L21.3099 32.3574L22.9629 31.6127L27.443 35.6678C27.6024 35.8119 27.8015 35.8845 28.0004 35.8845C28.1994 35.8845 28.3985 35.8125 28.5579 35.6678L33.0661 31.5889L41.5658 35.3656C43.5608 36.2825 44.8495 38.3356 44.8495 40.5976V42.79C44.8495 43.2751 45.2291 43.6689 45.6972 43.6689C46.1652 43.6689 46.5449 43.2751 46.5449 42.79V40.5976C46.5449 37.6411 44.8601 34.9567 42.2434 33.7544L35.8136 30.898C37.98 29.9817 39.5112 27.7766 39.5112 25.2065V12.8212C39.5112 9.66324 38.325 6.69513 36.171 4.46186C34.0163 2.22984 31.1523 1 28.107 1C21.8191 1 16.704 6.30279 16.704 12.8212V25.2058C16.704 27.7541 18.208 29.9439 20.348 30.8741L13.8746 33.7909C11.1915 34.9622 9.45834 37.6692 9.45834 40.6867V42.7961C9.45834 43.2814 9.83737 43.675 10.3061 43.675C10.774 43.675 11.1538 43.2814 11.1538 42.7961V40.6867C11.1538 38.3778 12.4801 36.3069 14.5417 35.4072L19.5891 33.133L27.0573 39.8969C27.3559 40.1667 27.7296 40.3022 28.104 40.3022ZM32.0359 30.1875L28.0004 33.8392L23.9666 30.1881V27.6741C25.1706 28.3394 26.5434 28.7178 28.0004 28.7178C29.4581 28.7178 30.8314 28.3388 32.0359 27.6728V30.1875ZM37.8158 25.2058C37.8158 27.5764 35.9919 29.5124 33.7313 29.5894V26.443C35.3709 24.9221 36.4446 22.7608 36.586 20.3413H37.2776C37.4643 20.3413 37.6438 20.3132 37.8158 20.2638V25.2058ZM36.6054 18.5835V15.5037H37.2776C37.4572 15.5037 37.6039 15.6551 37.6039 15.8412V18.246C37.6039 18.4321 37.4578 18.5835 37.2776 18.5835H36.6054ZM18.3994 12.8212C18.3994 7.272 22.7539 2.7578 28.107 2.7578C30.6996 2.7578 33.138 3.80452 34.9724 5.70514C36.8056 7.60575 37.8158 10.1332 37.8158 12.8212V13.8234C37.6438 13.774 37.4643 13.7459 37.2776 13.7459C35.5369 13.6648 34.9153 14.1531 32.989 14.1531C29.0659 14.1531 25.6173 11.5565 24.407 7.69122C24.2628 7.22982 23.7847 6.97716 23.3391 7.12669C22.8941 7.27685 22.6498 7.77247 22.7946 8.2345C24.2322 12.8262 28.329 15.9109 32.989 15.9109C33.6349 15.9109 34.277 15.851 34.9082 15.7326V19.7982C34.9082 23.7471 31.8092 26.96 28.0004 26.96C24.191 26.96 21.0921 23.7471 21.0921 19.7982L21.0933 15.2987C21.543 15.129 22.0741 14.8348 22.5485 14.3245C22.7916 14.0621 22.9994 13.7654 23.1655 13.4426C23.3851 13.0142 23.2285 12.4818 22.8153 12.2535C22.4025 12.0259 21.8892 12.1878 21.669 12.6162C21.5766 12.7956 21.4618 12.9598 21.3276 13.1045C20.9284 13.5342 20.4522 13.6898 20.1696 13.7459H18.7249C18.6143 13.7459 18.506 13.7574 18.3994 13.7759V12.8212ZM18.3994 15.8406C18.4 15.6551 18.5455 15.5037 18.7249 15.5037H19.396V18.5841H18.7249C18.5455 18.5841 18.3994 18.4327 18.3994 18.2466V15.8406ZM18.3994 25.2065V20.3121C18.5054 20.3298 18.6137 20.3419 18.7249 20.3419H19.4137C19.555 22.7619 20.6306 24.9244 22.2712 26.446V29.576C20.106 29.3855 18.3994 27.4989 18.3994 25.2065ZM35.0141 50.2979L30.8815 49.6753L29.0335 45.7935C28.8393 45.3857 28.4461 45.1318 28.0069 45.1318C27.5678 45.1318 27.1744 45.3857 26.9802 45.7935L25.1324 49.6753L21.0003 50.2979C20.5658 50.3632 20.2114 50.6732 20.0754 51.106C19.9401 51.5387 20.0513 52.0051 20.3657 52.3231L23.3557 55.3443L22.6498 59.6105C22.5756 60.0591 22.7498 60.5041 23.1054 60.7715C23.3061 60.9229 23.5404 60.9997 23.7771 60.9997C23.9591 60.9997 24.1421 60.9546 24.311 60.8624L28.0069 58.8477L31.7033 60.8624C32.0918 61.0743 32.554 61.0394 32.9089 60.7721C33.264 60.5041 33.4388 60.0591 33.3647 59.6105L32.6588 55.3443L35.6488 52.3231C35.9631 52.0051 36.0738 51.5393 35.9384 51.106C35.8029 50.6732 35.4486 50.3632 35.0141 50.2979ZM31.2677 54.2951C30.9981 54.5679 30.875 54.961 30.9386 55.3454L31.505 58.7683L28.5403 57.1527C28.3731 57.0618 28.19 57.016 28.0069 57.016C27.8238 57.016 27.6407 57.0618 27.4742 57.1527L24.5095 58.7683L25.0758 55.346C25.1394 54.961 25.0163 54.5679 24.7461 54.2951L22.3478 51.8713L25.6627 51.3721C26.0354 51.3159 26.3579 51.0731 26.5246 50.7227L28.0069 47.6081L29.4899 50.7227C29.6564 51.0731 29.9791 51.3154 30.3516 51.3721L33.6667 51.8713L31.2677 54.2951ZM15.9952 50.2979L11.8632 49.6753L10.0152 45.7935C9.82094 45.3857 9.42715 45.1318 8.98799 45.1318C8.54943 45.1318 8.15549 45.3857 7.96123 45.7935L6.11327 49.6753L1.98122 50.2979C1.54628 50.3632 1.19242 50.6732 1.05709 51.106C0.921003 51.5387 1.03237 52.0051 1.34675 52.3231L4.3366 55.3443L3.63085 59.6105C3.5567 60.0591 3.73091 60.5041 4.08583 60.7715C4.44149 61.0394 4.90356 61.0743 5.29208 60.8618L8.98799 58.8477L12.6837 60.8618C12.8533 60.9539 13.0358 60.9997 13.2177 60.9997C13.4543 60.9997 13.6893 60.9229 13.89 60.7715C14.2449 60.5041 14.4199 60.0591 14.3456 59.6105L13.6398 55.3443L16.6298 52.3224C16.9442 52.0051 17.0548 51.5387 16.9195 51.106C16.784 50.6732 16.4297 50.3632 15.9952 50.2979ZM12.2487 54.2951C11.979 54.5679 11.8561 54.9604 11.9197 55.3454L12.486 58.7683L9.52134 57.1527C9.35405 57.0618 9.17094 57.016 8.98799 57.016C8.80488 57.016 8.62177 57.0612 8.45509 57.1521L5.49056 58.7683L6.05676 55.3454C6.12036 54.9604 5.99738 54.5679 5.72716 54.2951L3.32883 51.8713L6.64376 51.3715C7.01645 51.3154 7.33896 51.0731 7.50564 50.7221L8.98799 47.6081L10.4703 50.7221C10.6375 51.0724 10.9595 51.3154 11.3327 51.3715L14.6476 51.8707L12.2487 54.2951ZM54.9432 51.106C54.8073 50.6732 54.4534 50.3632 54.0185 50.2979L49.8864 49.6753L48.0384 45.7942C47.8442 45.3857 47.4508 45.1318 47.0117 45.1318C46.5725 45.1318 46.1793 45.3857 45.9851 45.7935L44.1371 49.6753L40.0045 50.2979C39.57 50.3632 39.2157 50.6732 39.0802 51.106C38.9449 51.5387 39.0555 52.0051 39.3698 52.3231L42.3598 55.3443L41.6541 59.6105C41.5798 60.0591 41.7548 60.5041 42.1097 60.7715C42.4652 61.0394 42.9268 61.0743 43.3159 60.8618L47.0117 58.8477L50.7076 60.8618C50.8765 60.9539 51.0596 60.9997 51.2415 60.9997C51.4782 60.9997 51.7131 60.9229 51.9138 60.7715C52.2688 60.5041 52.443 60.0591 52.3688 59.6105L51.6631 55.3443L54.6529 52.3224C54.9679 52.0051 55.0787 51.5387 54.9432 51.106ZM50.2725 54.2951C50.0029 54.5679 49.8793 54.961 49.9434 55.3454L50.5097 58.7683L47.5446 57.1527C47.3779 57.0618 47.1948 57.016 47.0117 57.016C46.8287 57.016 46.6456 57.0612 46.4789 57.1521L43.5136 58.7683L44.08 55.3454C44.1436 54.9604 44.0206 54.5679 43.751 54.2951L41.3521 51.8713L44.667 51.3721C45.0401 51.3159 45.3628 51.0731 45.5293 50.7227L47.0117 47.6081L48.494 50.7227C48.6613 51.0731 48.9832 51.3154 49.3565 51.3721L52.6714 51.8713L50.2725 54.2951Z" fill="white"/>
    </symbol>
    <symbol id="result-icon-6" viewBox="0 0 60 60" fill="none" xmlns="http://www.w3.org/2000/svg">
        <path d="M40.0727 34.0642C41.4943 34.0642 42.6508 35.077 42.6508 36.3221C42.6508 36.9769 43.1755 37.5079 43.8227 37.5079C44.4698 37.5079 44.9945 36.9769 44.9945 36.3221C44.9945 34.1492 43.3945 32.3222 41.2445 31.8263V31.2095C41.2445 30.5548 40.7198 30.0238 40.0727 30.0238C39.4256 30.0238 38.9008 30.5548 38.9008 31.2095V31.8263C36.7509 32.3222 35.1508 34.1492 35.1508 36.3221C35.1508 38.8747 37.3587 40.9515 40.0727 40.9515C41.4943 40.9515 42.6508 41.9643 42.6508 43.2094C42.6508 44.4545 41.4943 45.4673 40.0727 45.4673C38.6511 45.4673 37.4945 44.4545 37.4945 43.2094C37.4945 42.5546 36.9698 42.0236 36.3227 42.0236C35.6756 42.0236 35.1508 42.5546 35.1508 43.2094C35.1508 45.3823 36.7509 47.2094 38.9008 47.7052V48.2175C38.9008 48.8723 39.4256 49.4033 40.0727 49.4033C40.7198 49.4033 41.2445 48.8723 41.2445 48.2175V47.7052C43.3945 47.2094 44.9945 45.3823 44.9945 43.2094C44.9945 40.6567 42.7866 38.5799 40.0727 38.5799C38.6511 38.5799 37.4945 37.567 37.4945 36.3221C37.4945 35.077 38.6511 34.0642 40.0727 34.0642ZM52.9079 31.5267C51.3771 29.1131 49.2204 27.1817 46.671 25.9416C46.0875 25.6578 45.3873 25.9063 45.107 26.4966C44.8266 27.0869 45.0721 27.7952 45.6555 28.079C50.0981 30.2399 52.9687 34.8572 52.9687 39.8419C52.9687 41.9749 52.449 44.0902 51.4662 45.9594C51.1622 46.5375 51.3789 47.2556 51.9503 47.5632C52.1256 47.6576 52.314 47.7024 52.4997 47.7024C52.919 47.7024 53.3245 47.474 53.5352 47.0733C54.6979 44.8626 55.3124 42.3619 55.3124 39.8419C55.3124 36.8823 54.4809 34.0069 52.9079 31.5267ZM41.8359 26.7985L41.9037 26.7986H41.9093C42.554 26.7986 43.078 26.2714 43.0811 25.6184C43.084 24.9635 42.5618 24.4301 41.9147 24.4271L41.8359 24.4269C41.1888 24.4269 40.664 24.9578 40.664 25.6127C40.664 26.2676 41.1888 26.7985 41.8359 26.7985ZM34.5008 51.6049C30.0582 49.4438 27.1877 44.8266 27.1877 39.8419C27.1877 37.709 27.7073 35.5937 28.6901 33.7244C28.9941 33.1464 28.7774 32.4283 28.206 32.1207C27.6349 31.8131 26.9249 32.0323 26.6211 32.6105C25.4585 34.8214 24.8439 37.3219 24.8439 39.8419C24.8439 42.8016 25.6754 45.6769 27.2484 48.1571C28.7792 50.5708 30.9359 52.5021 33.4853 53.7423C33.649 53.822 33.822 53.8596 33.9923 53.8596C34.4287 53.8596 34.8475 53.6119 35.0493 53.1874C35.3295 52.5971 35.0841 51.8886 34.5008 51.6049ZM38.3205 52.8854L38.2526 52.8852C37.6025 52.884 37.0784 53.4103 37.0755 54.0653C37.0724 54.7202 37.5948 55.2536 38.242 55.2567L38.3205 55.2569C38.9676 55.2569 39.4923 54.7259 39.4923 54.0712C39.4923 53.4164 38.9676 52.8854 38.3205 52.8854ZM45.3994 20.4151C45.2568 20.0713 45.0821 19.7472 44.8787 19.4466H47.9296C50.9019 19.4466 53.3202 16.9997 53.3202 13.9921C53.3202 10.9845 50.9019 8.53753 47.9296 8.53753H38.5452C39.1418 7.65983 39.4921 6.59797 39.4921 5.45453C39.4921 2.44695 37.0738 0 34.1015 0H5.39061C2.41828 0 0 2.44695 0 5.45453C0 8.46212 2.41828 10.9091 5.39061 10.9091H14.775C14.1784 11.7868 13.8281 12.8486 13.8281 13.9921C13.8281 15.1355 14.1783 16.1974 14.775 17.0751H11.7187C8.74639 17.0751 6.32811 19.522 6.32811 22.5296C6.32811 24.2569 7.12663 25.7983 8.36893 26.7984C7.12663 27.7984 6.32811 29.3398 6.32811 31.0671C6.32811 32.7944 7.12663 34.3358 8.36893 35.3359C7.12663 36.336 6.32811 37.8774 6.32811 39.6047C6.32811 41.332 7.12663 42.8734 8.36893 43.8734C7.12663 44.8735 6.32811 46.4149 6.32811 48.1422C6.32811 51.1498 8.74639 53.5967 11.7187 53.5967H25.5292C29.1674 57.5343 34.3431 60 40.0782 60C51.0631 60 60 50.9571 60 39.8419C60 30.5909 53.809 22.7766 45.3994 20.4151ZM47.9296 10.9091C49.6097 10.9091 50.9765 12.2921 50.9765 13.9921C50.9765 15.692 49.6097 17.0751 47.9296 17.0751H19.2187C17.5386 17.0751 16.1718 15.692 16.1718 13.9921C16.1718 12.2921 17.5386 10.9091 19.2187 10.9091H47.9296ZM5.39061 8.53753C3.7105 8.53753 2.34375 7.15445 2.34375 5.45453C2.34375 3.75462 3.7105 2.37154 5.39061 2.37154H34.1015C35.7816 2.37154 37.1484 3.75462 37.1484 5.45453C37.1484 7.15445 35.7816 8.53753 34.1015 8.53753H5.39061ZM11.7187 19.4466H40.4296C40.9016 19.4466 41.3536 19.5576 41.7591 19.7563C41.2048 19.7092 40.6444 19.6839 40.0782 19.6839C34.5768 19.6839 29.5893 21.9521 25.9807 25.6126H11.7187C10.0387 25.6126 8.67186 24.2295 8.67186 22.5296C8.67186 20.8297 10.0387 19.4466 11.7187 19.4466ZM11.7187 27.9841H23.9783C22.648 29.8284 21.6194 31.9084 20.9662 34.1501H11.7187C10.0386 34.1501 8.67186 32.7672 8.67186 31.0671C8.67186 29.3672 10.0386 27.9841 11.7187 27.9841ZM11.7187 36.5217H20.4281C20.2503 37.6023 20.1563 38.7111 20.1563 39.8419C20.1563 40.8079 20.2254 41.7577 20.3558 42.6877H11.7187C10.0386 42.6877 8.67186 41.3047 8.67186 39.6047C8.67186 37.9046 10.0386 36.5217 11.7187 36.5217ZM11.7187 51.2252C10.0386 51.2252 8.67186 49.8422 8.67186 48.1422C8.67186 46.4422 10.0386 45.0592 11.7187 45.0592H20.8343C21.4256 47.29 22.3862 49.369 23.6459 51.2252H11.7187ZM40.0782 57.6285C30.3856 57.6285 22.5001 49.6494 22.5001 39.8419C22.5001 30.0344 30.3856 22.0554 40.0782 22.0554C49.7707 22.0554 57.6563 30.0344 57.6563 39.8419C57.6563 49.6494 49.7707 57.6285 40.0782 57.6285Z" fill="white"/>
    </symbol>
    <symbol id="view-image" viewBox="0 0 130 95" fill="none" xmlns="http://www.w3.org/2000/svg">
        <g clip-path="url(#clip0)">
            <path d="M96.5637 71.6088L79.6066 54.6552C87.4423 42.9785 84.3432 27.1615 72.6641 19.3274C60.9849 11.4933 45.1646 14.5917 37.3289 26.2685C29.4932 37.9452 32.5923 53.7622 44.2714 61.5963C52.8515 67.3603 64.084 67.3603 72.6641 61.5963L89.6212 78.5499C91.5429 80.4712 94.642 80.4712 96.5637 78.5499C98.4854 76.6286 98.4854 73.5301 96.5637 71.6088ZM58.4948 63.7612C45.6518 63.7477 35.2312 53.3293 35.2177 40.4889C35.2177 27.635 45.6383 17.2166 58.4948 17.2166C71.3513 17.2166 81.7719 27.635 81.7719 40.4889C81.7719 53.3428 71.3378 63.7612 58.4948 63.7612ZM95.0344 77.021C94.5202 77.5351 93.8165 77.8193 93.0857 77.8193C92.3549 77.8193 91.6647 77.5351 91.1504 77.021L74.6399 60.5139L78.5239 56.6307L95.048 73.1513C96.1036 74.2066 96.1036 75.9521 95.0344 77.021ZM60.2 19.4492C59.5775 19.395 59.0497 19.8821 59.0361 20.5045C59.0226 21.0728 59.4557 21.5599 60.0241 21.614C64.896 22.0064 69.4432 24.266 72.6776 27.9327C73.0565 28.3657 73.7061 28.4198 74.1527 28.068C74.6399 27.6892 74.694 26.972 74.2881 26.4985C70.6882 22.4123 65.6268 19.8821 60.2 19.4492ZM75.3978 31.9106C75.6549 32.4248 76.2774 32.6413 76.8052 32.4113C77.3736 32.1542 77.6172 31.4912 77.333 30.9365C77.2789 30.8417 77.2248 30.7335 77.1706 30.6388C76.8864 30.0976 76.1962 29.8946 75.6549 30.2193C75.1677 30.517 74.9918 31.1394 75.2624 31.6536C75.303 31.7347 75.3436 31.8295 75.3978 31.9106Z" fill="white"/>
        </g>
        <path d="M1 1H90C111.539 1 129 18.4609 129 40V94H65H40C18.4609 94 1 76.5391 1 55V1Z" stroke="white" stroke-width="2"/>
        <defs>
            <clipPath id="clip0">
                <rect x="33" y="15" width="65" height="65" fill="white"/>
            </clipPath>
        </defs>
    </symbol>
    <symbol id="play-pre" viewBox="0 0 130 95" fill="none" xmlns="http://www.w3.org/2000/svg">
        <path fill-rule="evenodd" clip-rule="evenodd" d="M57.2771 68.355L85.6179 51.7602C88.8589 49.8624 88.8589 45.1376 85.6179 43.2398L57.2771 26.645C54.0249 24.7407 49.9513 27.1097 49.9513 30.9052L49.9513 64.0948C49.9513 67.8903 54.0249 70.2593 57.2771 68.355ZM86.5969 53.4643C91.1344 50.8074 91.1344 44.1926 86.5969 41.5357L58.2561 24.9409C53.7031 22.2749 48 25.5914 48 30.9052L48 64.0948C48 69.4086 53.7031 72.7251 58.2561 70.0591L86.5969 53.4643Z" fill="white"/>
    </symbol>
    <symbol id="play" viewBox="0 0 130 95" fill="none" xmlns="http://www.w3.org/2000/svg">
        <path d="M1 1H90C111.539 1 129 18.4609 129 40V94H65H40C18.4609 94 1 76.5391 1 55V1Z" stroke="white" stroke-width="2"/>
        <path fill-rule="evenodd" clip-rule="evenodd" d="M57.2771 68.355L85.6179 51.7602C88.8589 49.8624 88.8589 45.1376 85.6179 43.2398L57.2771 26.645C54.0249 24.7407 49.9513 27.1097 49.9513 30.9052L49.9513 64.0948C49.9513 67.8903 54.0249 70.2593 57.2771 68.355ZM86.5969 53.4643C91.1344 50.8074 91.1344 44.1926 86.5969 41.5357L58.2561 24.9409C53.7031 22.2749 48 25.5914 48 30.9052L48 64.0948C48 69.4086 53.7031 72.7251 58.2561 70.0591L86.5969 53.4643Z" fill="white"/>
    </symbol>
</svg>