<svg width="130" height="95" viewBox="0 0 130 95" fill="none" xmlns="http://www.w3.org/2000/svg">
<g clip-path="url(#clip0)">
<path d="M96.5637 71.6088L79.6066 54.6552C87.4423 42.9785 84.3432 27.1615 72.6641 19.3274C60.9849 11.4933 45.1646 14.5917 37.3289 26.2685C29.4932 37.9452 32.5923 53.7622 44.2714 61.5963C52.8515 67.3603 64.084 67.3603 72.6641 61.5963L89.6212 78.5499C91.5429 80.4712 94.642 80.4712 96.5637 78.5499C98.4854 76.6286 98.4854 73.5301 96.5637 71.6088ZM58.4948 63.7612C45.6518 63.7477 35.2312 53.3293 35.2177 40.4889C35.2177 27.635 45.6383 17.2166 58.4948 17.2166C71.3513 17.2166 81.7719 27.635 81.7719 40.4889C81.7719 53.3428 71.3378 63.7612 58.4948 63.7612ZM95.0344 77.021C94.5202 77.5351 93.8165 77.8193 93.0857 77.8193C92.3549 77.8193 91.6647 77.5351 91.1504 77.021L74.6399 60.5139L78.5239 56.6307L95.048 73.1513C96.1036 74.2066 96.1036 75.9521 95.0344 77.021ZM60.2 19.4492C59.5775 19.395 59.0497 19.8821 59.0361 20.5045C59.0226 21.0728 59.4557 21.5599 60.0241 21.614C64.896 22.0064 69.4432 24.266 72.6776 27.9327C73.0565 28.3657 73.7061 28.4198 74.1527 28.068C74.6399 27.6892 74.694 26.972 74.2881 26.4985C70.6882 22.4123 65.6268 19.8821 60.2 19.4492ZM75.3978 31.9106C75.6549 32.4248 76.2774 32.6413 76.8052 32.4113C77.3736 32.1542 77.6172 31.4912 77.333 30.9365C77.2789 30.8417 77.2248 30.7335 77.1706 30.6388C76.8864 30.0976 76.1962 29.8946 75.6549 30.2193C75.1677 30.517 74.9918 31.1394 75.2624 31.6536C75.303 31.7347 75.3436 31.8295 75.3978 31.9106Z" fill="white"/>
</g>
<path d="M1 1H90C111.539 1 129 18.4609 129 40V94H65H40C18.4609 94 1 76.5391 1 55V1Z" stroke="white" stroke-width="2"/>
<defs>
<clipPath id="clip0">
<rect x="33" y="15" width="65" height="65" fill="white"/>
</clipPath>
</defs>
</svg>
