<svg width="158" height="360" viewBox="0 0 158 360" fill="none" xmlns="http://www.w3.org/2000/svg">
<g opacity="0.2" filter="url(#filter0_f)">
<g clip-path="url(#clip0)">
<path d="M65.6499 200.048C89.4392 143.831 94.7411 81.4367 85.2987 21.9699C84.9247 18.4914 81.5294 17.0519 78.5986 17.2741C77.424 15.2138 75.2939 14.0178 72.518 14.7939C-56.2087 63.9206 -81.5985 210.759 -72.3065 331.777C-72.1516 332.331 -71.9968 332.885 -71.9968 332.885C-72.3971 333.594 -72.9523 333.749 -73.5075 333.904C-75.4185 335.633 -75.3543 338.004 -74.3345 339.51C-74.3345 339.51 -74.1797 340.064 -74.7349 340.219C-76.5816 344.319 -70.3462 347.353 -68.4994 343.253L-68.0991 342.544C-67.5439 342.389 -66.4335 342.079 -66.0332 341.37C-43.2293 315.884 -12.3318 300.08 13.9316 278.405C38.5295 257.196 53.2775 228.588 65.6499 200.048ZM-63.2537 314.914C-64.013 297.211 -64.2172 279.352 -63.1561 261.738C-60.7048 274.787 -58.8087 287.992 -56.5124 300.488C-58.7595 305.297 -61.0066 310.105 -63.2537 314.914ZM-57.4186 318.657C-56.3725 315.976 -54.7712 313.139 -53.725 310.458C-53.1698 310.303 -52.6146 310.148 -51.6591 309.284C-51.1039 309.128 -49.9936 308.818 -49.5933 308.109C-44.9063 305.604 -40.0645 303.653 -35.3776 301.149C-42.6214 307.354 -50.1748 312.452 -57.4186 318.657ZM-60.3766 235.282C-60.5315 234.728 -60.6863 234.174 -60.8412 233.62C-60.3238 226.907 -59.2513 220.038 -58.1788 213.169C-52.2944 234.217 -48.6307 255.885 -46.6326 278.019C-47.4332 279.437 -47.6787 280.7 -48.4794 282.119C-49.9901 283.138 -50.2355 284.401 -49.9258 285.509C-50.1713 286.772 -51.1268 287.636 -51.3723 288.899C-54.5072 271.263 -57.7969 253.073 -60.3766 235.282ZM37.655 44.2476C41.7454 61.0194 42.195 77.6147 38.0483 94.8979C38.2031 95.4517 38.2031 95.4517 37.8028 96.1608C37.8028 96.1608 37.2476 96.3161 37.4025 96.87C36.4469 97.7343 36.2015 98.9973 36.3563 99.5511C33.7089 105.069 31.0614 110.586 28.414 116.104C27.5904 96.0301 24.9465 75.868 21.9022 56.415C27.0801 51.3843 32.1674 48.1705 37.655 44.2476ZM51.561 36.1796C54.6844 43.0697 56.1423 50.4254 56.4898 58.0916C53.4421 64.3183 50.7946 69.8359 47.7468 76.0626C48.536 63.8983 47.1045 52.355 43.6978 40.1695C46.3188 38.8395 48.9399 37.5095 51.561 36.1796ZM78.9013 69.7413C69.0628 73.089 59.689 78.0984 51.18 84.0604C53.9823 79.0967 56.2294 74.2882 58.8769 68.7706C65.4748 64.5373 72.0728 60.3039 78.6708 56.0706C78.7992 60.8121 78.7728 64.9997 78.9013 69.7413ZM78.1613 99.2099C77.6061 99.3651 77.051 99.5203 76.4958 99.6755C61.4794 108.054 46.618 116.986 31.6016 125.365C35.6956 116.457 39.9443 108.103 44.0383 99.195C54.394 89.1336 66.0793 81.6865 79.094 76.8535C78.8863 84.6749 78.5238 91.9424 78.1613 99.2099ZM72.9271 138.296C72.0622 137.343 70.2418 137.255 69.2863 138.119C49.1827 149.711 29.6343 161.148 9.53067 172.741C15.2259 160.996 20.7663 148.698 26.4616 136.954C43.5438 127.401 60.4711 117.294 77.5533 107.74C76.6999 117.534 74.8909 128.192 72.9271 138.296ZM64.4788 172.308C63.9236 172.463 63.3685 172.618 62.8133 172.774C38.8234 185.452 15.5435 198.53 -8.44634 211.209C-4.50727 201.747 0.141837 192.684 4.08091 183.222C26.8056 170.3 48.9751 157.533 71.6997 144.61C69.5811 154.16 67.3075 163.157 64.4788 172.308ZM22.4732 129.111C16.5325 142.118 10.0366 155.281 4.09587 168.288C4.28065 138.975 2.24469 110.282 -3.43206 81.4132L-3.58692 80.8593C2.23679 73.8566 8.77052 67.2525 15.3043 60.6483C19.2776 83.4246 21.4306 106.113 22.4732 129.111ZM-3.82011 180.653C-4.77562 181.518 -4.31106 183.179 -3.44617 184.132C-6.33911 190.913 -9.78723 197.848 -12.6802 204.629C-14.7161 175.936 -20.0832 148.175 -28.9362 120.791C-28.9362 120.791 -28.9362 120.791 -29.091 120.237C-23.2409 109.047 -16.6808 98.2552 -8.70058 88.2608C-3.82448 118.548 -1.7243 149.611 -3.82011 180.653ZM-19.3309 217.237L-19.1761 217.791C-21.8235 223.309 -24.471 228.827 -27.1184 234.344C-28.1347 207.158 -33.7472 180.66 -44.5112 155.005C-41.5277 146.407 -37.9889 137.654 -34.2953 129.456C-25.6878 158.102 -20.5662 187.127 -19.3309 217.237ZM-33.8598 248.77C-36.5073 254.287 -38.5996 259.65 -41.247 265.167C-43.8003 243.188 -48.7292 221.276 -55.3236 199.83C-55.4785 199.276 -55.6334 198.722 -56.1885 198.877C-53.9792 187.51 -51.0599 176.542 -48.1406 165.574C-37.622 192.492 -33.3654 220.564 -33.8598 248.77ZM-38.15 276.245C-34.7019 269.309 -31.9638 261.975 -28.5157 255.039C-16.7662 249.962 -5.72674 244.487 5.86786 238.857C13.1759 235.022 21.039 231.033 28.347 227.198C33.5892 224.538 41.2333 217.623 47.8955 215.761C45.8938 219.306 44.4473 222.697 42.4457 226.242C15.6535 243.885 -10.7384 260.818 -38.15 276.245ZM51.0339 207.717C50.4787 207.873 50.3238 207.319 49.7687 207.474C39.3108 208.606 27.2895 219.133 18.4708 223.987C4.40995 231.501 -9.80572 238.462 -24.1762 244.868C-20.3278 237.223 -17.1894 229.18 -13.3409 221.535C11.6045 207.992 36.5499 194.448 61.4953 180.905C59.8033 185.559 58.1114 190.212 56.4194 194.865C54.7275 199.519 52.8807 203.618 51.0339 207.717ZM77.768 48.5596C73.236 51.6182 69.1042 53.9677 64.5721 57.0263C68.2657 48.8275 72.6693 41.0274 76.3629 32.8286C77.2014 37.9688 77.4847 43.2642 77.768 48.5596ZM71.5739 26.4042C68.1258 33.34 65.078 39.5667 61.6299 46.5025C60.9463 41.9162 59.5526 36.9312 57.7586 32.6553C61.8904 30.3059 66.7321 28.355 71.5739 26.4042ZM-4.363 279.34C-6.82921 281.224 -8.74023 282.952 -11.2065 284.836C-11.9165 284.437 -13.1817 284.194 -14.2921 284.504C-25.8867 290.135 -37.6361 295.211 -49.2308 300.841C-47.5388 296.188 -45.1368 291.933 -43.4449 287.28C-42.1797 287.524 -40.669 286.504 -39.8683 285.086C-15.0778 270.989 9.00275 256.493 32.0635 240.491C22.3914 255.139 10.4343 268.037 -4.363 279.34Z" fill="#5B4696"/>
</g>
</g>
<defs>
<filter id="filter0_f" x="-163" y="-2.00003" width="334.924" height="362.467" filterUnits="userSpaceOnUse" color-interpolation-filters="sRGB">
<feFlood flood-opacity="0" result="BackgroundImageFix"/>
<feBlend mode="normal" in="SourceGraphic" in2="BackgroundImageFix" result="shape"/>
<feGaussianBlur stdDeviation="7" result="effect1_foregroundBlur"/>
</filter>
<clipPath id="clip0">
<rect x="82.5112" y="12" width="280.086" height="240.389" transform="rotate(74.3803 82.5112 12)" fill="white"/>
</clipPath>
</defs>
</svg>
