<svg width="124" height="151" viewBox="0 0 124 151" fill="none" xmlns="http://www.w3.org/2000/svg">
<g opacity="0.2">
<g clip-path="url(#clip0)">
<path d="M88.1468 97.6951C110.413 81.253 126.892 58.1305 136.941 32.7454C137.598 31.3016 136.606 29.9558 135.411 29.3656C135.429 28.2904 134.874 27.3318 133.611 26.9935C72.035 16.4338 28.2155 67.8676 3.89217 117.236C3.82467 117.488 3.75718 117.74 3.75718 117.74C3.4372 117.924 3.18472 117.856 2.93223 117.789C1.78731 118.022 1.26484 118.962 1.31484 119.785C1.31484 119.785 1.24735 120.037 0.994863 119.969C-0.672527 121.142 1.05986 123.767 2.72725 122.593L3.04724 122.409C3.29972 122.477 3.80469 122.612 4.12466 122.428C18.9087 117.75 34.6152 118.719 49.8692 116.327C64.3658 113.731 76.7275 105.974 88.1468 97.6951ZM11.3192 112.747C15.1114 105.663 19.1561 98.6477 23.6383 92.0192C21.581 97.6775 19.2711 103.268 17.2813 108.674C15.2939 110.032 13.3065 111.389 11.3192 112.747ZM12.7316 115.555C13.759 114.75 15.0389 114.013 16.0664 113.209C16.3189 113.276 16.5714 113.344 17.1438 113.227C17.3963 113.295 17.9013 113.43 18.2212 113.246C20.6286 113.351 22.9684 113.708 25.3758 113.813C21.1161 114.562 16.9913 114.806 12.7316 115.555ZM30.8328 82.3379C30.9003 82.086 30.9678 81.8341 31.0353 81.5822C32.7877 79.082 34.7926 76.6494 36.7974 74.2168C34.2326 83.7888 30.6579 93.0902 26.3257 102.189C25.6857 102.557 25.2983 102.993 24.6583 103.362C23.8334 103.411 23.4459 103.847 23.3109 104.351C22.9234 104.787 22.351 104.903 21.9635 105.339C24.8133 97.7337 27.7306 89.876 30.8328 82.3379ZM113.205 30.435C110.928 37.9242 107.27 44.5037 101.661 50.29C101.593 50.5419 101.593 50.5419 101.273 50.7262C101.273 50.7262 101.021 50.6585 100.953 50.9104C100.381 51.027 99.9934 51.4631 99.9259 51.715C97.6185 53.2566 95.3112 54.7982 93.0038 56.3398C97.3185 48.3166 100.943 39.8385 104.248 31.5447C107.43 30.7776 110.158 30.6984 113.205 30.435ZM120.494 30.4984C120.122 33.9083 118.992 37.1153 117.357 40.187C114.73 41.9128 112.423 43.4544 109.795 45.1802C112.912 40.6159 115.02 35.7809 116.505 30.2393C117.835 30.3256 119.165 30.412 120.494 30.4984ZM123.412 49.9087C118.8 48.9428 113.985 48.7327 109.288 49.0939C111.528 47.8042 113.515 46.4469 115.822 44.9053C119.375 44.7772 122.927 44.6491 126.479 44.521C125.434 46.4009 124.457 48.0288 123.412 49.9087ZM116.317 61.2367C116.065 61.1691 115.812 61.1014 115.56 61.0338C107.765 60.8351 99.9034 60.8883 92.1089 60.6896C95.7636 58.1592 99.3509 55.8806 103.006 53.3502C109.37 51.8158 115.65 51.6086 121.844 52.7285C119.957 55.7325 118.137 58.4846 116.317 61.2367ZM105.248 75.2794C105.131 74.708 104.441 74.2531 103.868 74.3697C93.3463 74.2502 83.077 74.1983 72.5552 74.0788C77.4898 70.8114 82.492 67.2921 87.4267 64.0247C96.2986 64.2421 105.238 64.2076 114.11 64.425C111.515 68.0494 108.348 71.7904 105.248 75.2794ZM94.0963 86.6003C93.8439 86.5326 93.5914 86.4649 93.3389 86.3973C81.0497 85.8042 68.9454 85.5307 56.6562 84.9376C60.3785 82.1552 64.2857 79.6924 68.008 76.9101C79.8597 77.116 91.459 77.2542 103.311 77.4601C100.278 80.6973 97.3136 83.6826 94.0963 86.6003ZM87.6817 60.0433C82.3595 63.7469 76.7849 67.3828 71.4627 71.0863C78.3048 59.6906 84.1368 48.0243 88.589 35.4483L88.6565 35.1964C92.5463 33.8089 96.621 32.7409 100.696 31.6728C96.986 41.478 92.5863 50.8283 87.6817 60.0433ZM65.5181 74.0831C64.9457 74.1997 64.7432 74.9554 64.8607 75.5268C62.1658 77.5045 59.2185 79.4146 56.5237 81.3923C62.3558 69.726 66.673 57.6538 69.5428 44.9238C69.5428 44.9238 69.5428 44.9238 69.6103 44.6719C74.4774 41.6564 79.5296 38.9604 84.9518 36.9035C79.8596 49.848 73.5051 62.4542 65.5181 74.0831ZM51.0166 84.7763L50.9491 85.0282C48.6417 86.5698 46.3344 88.1114 44.027 89.653C49.9091 78.81 53.8388 67.1739 55.5637 54.6771C58.7135 52.0113 62.1158 49.4132 65.4505 47.067C62.1933 60.2332 57.4886 72.7415 51.0166 84.7763ZM38.0649 93.725C35.7576 95.2666 33.7027 96.8758 31.3954 98.4174C35.4751 89.2513 38.6123 79.5628 40.9922 69.6712C41.0597 69.4193 41.1271 69.1674 40.8747 69.0998C44.3619 65.1746 48.0342 61.5689 51.7064 57.9632C49.5941 70.8962 44.772 82.8331 38.0649 93.725ZM30.0455 103.455C32.9928 101.545 35.7551 99.3156 38.7024 97.4056C44.4595 98.1382 50.0317 98.5514 55.8563 99.0322C59.5936 99.2236 63.5833 99.4827 67.3206 99.6742C69.9804 99.8469 74.5601 98.9142 77.5899 99.726C75.99 100.647 74.6426 101.636 73.0427 102.557C58.5137 103.254 44.3046 103.766 30.0455 103.455ZM80.6722 97.3122C80.4197 97.2445 80.4872 96.9926 80.2348 96.925C75.8925 94.9516 68.7705 96.283 64.2083 96.1404C56.9862 95.8252 49.8317 95.258 42.7446 94.439C46.0119 92.3447 49.0942 89.9308 52.3615 87.8365C65.2232 88.313 78.0849 88.7895 90.9466 89.266C89.2117 90.691 87.4768 92.116 85.7419 93.541C84.007 94.966 82.3396 96.1391 80.6722 97.3122ZM127.862 41.3817C125.387 41.5285 123.232 41.4911 120.757 41.6379C124.092 39.2917 127.612 37.265 130.946 34.9188C130.086 37.1182 128.974 39.25 127.862 41.3817ZM130.561 31.3059C127.614 33.216 124.987 34.9418 122.039 36.8519C122.832 34.9044 123.439 32.6373 123.727 30.5545C125.882 30.592 128.221 30.949 130.561 31.3059ZM42.5147 112.466C41.1173 112.632 39.9724 112.865 38.575 113.03C38.39 112.711 37.9525 112.323 37.4475 112.188C31.6229 111.707 25.8658 110.975 20.0411 110.494C21.776 109.069 23.6959 107.963 25.4308 106.538C25.8682 106.926 26.6932 106.877 27.3331 106.508C40.2623 106.733 53.0065 106.638 65.7007 105.72C58.5437 109.202 50.8992 111.473 42.5147 112.466Z" fill="#5B4696"/>
</g>
</g>
<defs>
<clipPath id="clip0">
<rect x="138.156" y="28.2113" width="127" height="109" transform="rotate(105 138.156 28.2113)" fill="white"/>
</clipPath>
</defs>
</svg>
