<svg width="194" height="339" viewBox="0 0 194 339" fill="none" xmlns="http://www.w3.org/2000/svg">
<g opacity="0.2" filter="url(#filter0_f)">
<g clip-path="url(#clip0)">
<path d="M99.1637 198.086C130.28 145.569 143.905 84.4501 142.526 24.2542C142.622 20.757 139.451 18.875 136.517 18.702C135.629 16.5027 133.679 15.0317 130.824 15.4283C-3.32994 46.8405 -48.1905 188.945 -55.2187 310.116C-55.1395 310.685 -55.0604 311.255 -55.0604 311.255C-55.5523 311.904 -56.1232 311.983 -56.6942 312.062C-58.8199 313.519 -59.0743 315.877 -58.2659 317.507C-58.2659 317.507 -58.1868 318.076 -58.7577 318.156C-61.1378 321.97 -55.3658 325.814 -52.9857 321.999L-52.4939 321.35C-51.9229 321.271 -50.7809 321.112 -50.2891 320.463C-24.2722 298.268 8.46636 286.752 37.4003 268.796C64.6213 251.079 83.074 224.709 99.1637 198.086ZM-43.9854 294.619C-42.3627 276.974 -40.169 259.25 -36.7543 241.937C-36.076 255.198 -35.9687 268.538 -35.3696 281.229C-38.2415 285.692 -41.1134 290.156 -43.9854 294.619ZM-38.7052 299.112C-37.3088 296.595 -35.3414 293.999 -33.945 291.483C-33.374 291.403 -32.803 291.324 -31.7402 290.596C-31.1692 290.516 -30.0272 290.358 -29.5354 289.709C-24.5548 287.855 -19.495 286.572 -14.5144 284.719C-22.5253 289.896 -30.6944 293.934 -38.7052 299.112ZM-30.4505 216.093C-30.5297 215.524 -30.6088 214.954 -30.688 214.384C-29.2746 207.801 -27.2902 201.138 -25.3058 194.475C-22.2985 216.122 -21.575 238.086 -22.5646 260.288C-23.5483 261.586 -23.961 262.805 -24.9447 264.103C-26.5785 264.911 -26.9912 266.129 -26.8329 267.268C-27.2456 268.487 -28.3084 269.215 -28.7211 270.434C-29.4616 252.537 -30.2811 234.07 -30.4505 216.093ZM92.3246 39.9384C94.1278 57.1074 92.3469 73.613 85.9189 90.1835C85.998 90.7532 85.998 90.7532 85.5062 91.4022C85.5062 91.4022 84.9352 91.4815 85.0143 92.0512C83.9515 92.7795 83.5388 93.9981 83.6179 94.5678C80.2542 99.6803 76.8904 104.793 73.5266 109.905C75.4037 89.9025 75.4887 69.5679 75.0818 49.8824C80.8878 45.5919 86.3603 43.0896 92.3246 39.9384ZM107.187 33.809C109.358 41.0559 109.816 48.5407 109.132 56.1842C105.276 61.9457 101.912 67.0582 98.0568 72.8197C100.471 60.8713 100.601 49.2403 98.8599 36.7079C101.636 35.7416 104.411 34.7753 107.187 33.809ZM129.778 70.7354C119.579 72.7329 109.618 76.4394 100.386 81.2059C103.829 76.663 106.701 72.1995 110.064 67.0869C117.171 63.7771 124.277 60.4672 131.383 57.1574C130.874 61.8732 130.286 66.0195 129.778 70.7354ZM125.091 99.8383C124.52 99.9176 123.949 99.997 123.378 100.076C107.373 106.364 91.4476 113.222 75.443 119.51C80.695 111.232 86.0262 103.524 91.2782 95.2455C102.89 86.6644 115.469 80.8523 129.014 77.8092C127.759 85.532 126.425 92.6851 125.091 99.8383ZM114.66 137.868C113.931 136.808 112.139 136.477 111.076 137.205C89.5987 145.995 68.6926 154.706 47.2155 163.496C54.4349 152.622 61.5751 141.179 68.7946 130.305C87.004 123.13 105.134 115.385 123.344 108.21C121.184 117.801 117.962 128.119 114.66 137.868ZM101.725 170.44C101.154 170.519 100.583 170.598 100.012 170.678C74.5379 180.023 49.714 189.859 24.24 199.205C29.4129 190.357 35.2359 182 40.4088 173.152C64.6617 163.395 88.3436 153.718 112.596 143.962C109.216 153.141 105.756 161.751 101.725 170.44ZM65.8945 121.998C58.2624 134.091 50.0592 146.263 42.4271 158.355C46.543 129.332 48.375 100.625 46.6227 71.2557L46.5436 70.686C53.2541 64.5279 60.6148 58.8601 67.9755 53.1923C68.8572 76.2957 67.9468 99.0675 65.8945 121.998ZM32.9238 169.547C31.8609 170.275 32.0984 171.984 32.8276 173.044C29.0511 179.375 24.7037 185.785 20.9272 192.117C22.7591 163.41 21.1651 135.18 16.0661 106.856C16.0661 106.856 16.0661 106.856 15.987 106.286C23.2855 95.9819 31.2342 86.1678 40.4831 77.3345C41.2517 108.002 39.1653 139.066 32.9238 169.547ZM12.6449 203.719L12.7241 204.289C9.36029 209.401 5.99651 214.514 2.63273 219.626C5.27309 192.549 3.2664 165.538 -3.9583 138.67C0.151734 130.551 4.83278 122.352 9.59295 114.723C14.2793 144.266 15.4606 173.715 12.6449 203.719ZM-5.98308 233.017C-9.34685 238.129 -12.1396 243.162 -15.5034 248.275C-15.0849 226.152 -17.0294 203.777 -20.6869 181.64C-20.7661 181.07 -20.8452 180.501 -21.4162 180.58C-17.7019 169.612 -13.3374 159.135 -8.97292 148.657C-2.16091 176.743 -1.7089 205.132 -5.98308 233.017ZM-13.9206 259.668C-9.57313 253.258 -5.87579 246.357 -1.52831 239.946C10.796 236.492 22.4702 232.548 34.7153 228.524C42.4717 225.704 50.7991 222.805 58.5555 219.986C64.1071 218.053 72.6098 212.227 79.4617 211.275C77.0024 214.52 75.1142 217.685 72.6549 220.93C43.738 234.819 15.3129 248.058 -13.9206 259.668ZM83.6509 203.725C83.0799 203.805 83.0007 203.235 82.4297 203.314C71.9145 203.033 58.5895 211.852 49.1993 215.479C34.2575 221.039 19.2365 226.029 4.13642 230.45C8.97573 223.39 13.1649 215.84 18.0043 208.781C44.5411 198.707 71.078 188.633 97.6148 178.559C95.3139 182.943 93.0129 187.328 90.712 191.712C88.411 196.096 86.0309 199.911 83.6509 203.725ZM131.496 49.5932C126.595 52.0161 122.185 53.79 117.284 56.2129C122.044 48.5838 127.454 41.445 132.215 33.8159C132.356 39.0221 131.926 44.3077 131.496 49.5932ZM128.331 26.807C123.983 33.2175 120.128 38.979 115.78 45.3895C115.718 40.7529 115.006 35.6261 113.802 31.1482C118.211 29.3742 123.271 28.0906 128.331 26.807ZM19.1457 267.268C16.449 268.804 14.3234 270.26 11.6267 271.796C10.9766 271.306 9.75546 270.895 8.61349 271.054C-3.63168 275.077 -15.956 278.532 -28.2011 282.555C-25.9002 278.171 -22.9491 274.277 -20.6482 269.893C-19.4271 270.304 -17.7932 269.496 -16.8095 268.199C9.64818 257.555 35.4558 246.421 60.4549 233.658C48.905 246.875 35.3256 258.052 19.1457 267.268Z" fill="#5B4696"/>
</g>
</g>
<defs>
<filter id="filter0_f" x="-111" y="0" width="304.644" height="338.501" filterUnits="userSpaceOnUse" color-interpolation-filters="sRGB">
<feFlood flood-opacity="0" result="BackgroundImageFix"/>
<feBlend mode="normal" in="SourceGraphic" in2="BackgroundImageFix" result="shape"/>
<feGaussianBlur stdDeviation="7" result="effect1_foregroundBlur"/>
</filter>
<clipPath id="clip0">
<rect x="141.102" y="14" width="280.086" height="240.389" transform="rotate(82.0906 141.102 14)" fill="white"/>
</clipPath>
</defs>
</svg>
