<svg width="156" height="145" viewBox="0 0 156 145" fill="none" xmlns="http://www.w3.org/2000/svg">
<g opacity="0.2">
<g clip-path="url(#clip0)">
<path d="M101.304 54.7215C86.4503 31.3657 64.5302 13.3183 39.9056 1.52745C38.5111 0.771155 37.0995 1.66757 36.4276 2.81855C35.3562 2.7263 34.3613 3.21324 33.936 4.44907C19.1184 65.1415 67.3794 112.433 114.936 140.131C115.183 140.216 115.429 140.301 115.429 140.301C115.591 140.633 115.506 140.88 115.421 141.127C115.574 142.286 116.475 142.872 117.3 142.88C117.3 142.88 117.547 142.965 117.461 143.212C118.516 144.957 121.254 143.411 120.2 141.666L120.038 141.334C120.123 141.087 120.293 140.593 120.132 140.261C116.494 125.187 118.553 109.586 117.227 94.2024C115.647 79.5604 108.769 66.6891 101.304 54.7215ZM110.974 132.41C104.172 128.134 97.4547 123.611 91.1542 118.679C96.6556 121.125 102.072 123.818 107.327 126.179C108.543 128.256 109.758 130.333 110.974 132.41ZM113.874 131.196C113.143 130.115 112.497 128.787 111.765 127.706C111.851 127.459 111.936 127.212 111.859 126.633C111.944 126.386 112.114 125.891 111.953 125.559C112.225 123.165 112.744 120.856 113.016 118.462C113.467 122.763 113.424 126.895 113.874 131.196ZM81.9967 110.828C81.7502 110.743 81.5036 110.659 81.257 110.574C78.8847 108.652 76.5975 106.482 74.3103 104.313C83.6807 107.538 92.7108 111.751 101.486 116.705C101.809 117.369 102.217 117.786 102.54 118.45C102.532 119.277 102.94 119.694 103.433 119.863C103.841 120.28 103.917 120.859 104.326 121.276C96.9365 117.904 89.3008 114.447 81.9967 110.828ZM35.9497 25.0452C43.2623 27.838 49.5714 31.9441 54.9535 37.9426C55.2001 38.0275 55.2001 38.0275 55.3616 38.3595C55.3616 38.3595 55.2766 38.6067 55.5232 38.6915C55.5997 39.2707 56.0078 39.6876 56.2544 39.7725C57.6317 42.1815 59.0091 44.5905 60.3864 46.9994C52.6828 42.1371 44.4774 37.9314 36.4336 34.0577C35.8897 30.8297 36.0004 28.1035 35.9497 25.0452ZM36.52 17.7778C39.8957 18.3865 43.0163 19.7368 45.9668 21.5814C47.5057 24.3224 48.8831 26.7314 50.4219 29.4724C46.0855 26.0452 41.4089 23.6066 35.9839 21.7398C36.1626 20.4191 36.3413 19.0984 36.52 17.7778ZM56.0862 16.2177C54.8018 20.7515 54.2572 25.54 54.2909 30.2509C53.1601 27.9268 51.9443 25.8498 50.567 23.4408C50.6863 19.8882 50.8056 16.3356 50.9249 12.7831C52.7276 13.9562 54.2836 15.0445 56.0862 16.2177ZM66.8933 24.083C66.8082 24.3302 66.7232 24.5774 66.6381 24.8245C65.8977 32.5863 65.4039 40.433 64.6635 48.1948C62.3934 44.3729 60.3699 40.6358 58.0998 36.8139C57.0119 30.3579 57.242 24.0791 58.7901 17.9774C61.6555 20.0692 64.2744 22.0761 66.8933 24.083ZM80.1319 36.1023C79.5537 36.1798 79.052 36.8364 79.1285 37.4156C78.2773 47.9036 77.5112 58.1445 76.66 68.6325C73.7438 63.4825 70.581 58.2477 67.6648 53.0976C68.4988 44.2623 69.0862 35.3421 69.9202 26.5068C73.3553 29.3475 76.8669 32.7673 80.1319 36.1023ZM90.6496 48.0146C90.5645 48.2617 90.4795 48.5089 90.3944 48.7561C88.9479 60.9743 87.833 73.0302 86.3865 85.2484C83.8698 81.3416 81.6848 77.2725 79.1681 73.3657C80.198 61.557 81.1427 49.9954 82.1726 38.1867C85.191 41.4368 87.9628 44.6021 90.6496 48.0146ZM63.7108 52.5663C67.0351 58.1332 70.2744 63.9473 73.5988 69.5142C62.7066 61.896 51.4743 55.2665 39.2385 49.9503L38.9919 49.8654C37.8783 45.8886 37.0963 41.7494 36.3143 37.6102C45.8377 41.9931 54.8593 47.0325 63.7108 52.5663ZM76.1748 75.6528C76.2513 76.232 76.991 76.4866 77.5693 76.4091C79.3547 79.235 81.0551 82.308 82.8406 85.1339C71.6083 78.5044 59.8656 73.3579 47.3661 69.6095C47.3661 69.6095 47.3661 69.6095 47.1195 69.5247C44.4498 64.4595 42.1118 59.232 40.4371 53.6799C52.996 59.6602 65.1297 66.8763 76.1748 75.6528ZM85.8333 90.8631L86.0799 90.948C87.4572 93.357 88.8346 95.766 90.2119 98.175C79.8044 91.5528 68.4699 86.8232 56.1233 84.2332C53.6831 80.9056 51.328 77.3309 49.2194 73.8409C62.1271 78.0062 74.2779 83.5696 85.8333 90.8631ZM93.8594 104.406C95.2367 106.815 96.6991 108.977 98.0764 111.386C89.2164 106.678 79.7695 102.875 70.0675 99.8125C69.8209 99.7276 69.5743 99.6428 69.4892 99.8899C65.8161 96.1381 62.4746 92.2239 59.1331 88.3097C71.8879 91.3166 83.4604 96.9574 93.8594 104.406ZM103.008 113.083C101.308 110.01 99.2758 107.099 97.5753 104.026C98.7067 98.3338 99.5065 92.8039 100.391 87.0268C100.842 83.3119 101.378 79.3498 101.829 75.6349C102.187 72.9936 101.575 68.3601 102.595 65.3941C103.403 67.0542 104.296 68.4671 105.103 70.1272C104.788 84.6696 104.31 98.8799 103.008 113.083ZM100.402 62.1513C100.317 62.3985 100.07 62.3136 99.9851 62.5608C97.7143 66.7552 98.5471 73.9527 98.0876 78.4939C97.2707 85.6765 96.2072 92.7743 94.8971 99.7872C93.0352 96.3821 90.8416 93.1394 88.9796 89.7343C90.3497 76.9369 91.7197 64.1396 93.0898 51.3422C94.3906 53.172 95.6915 55.0018 96.9923 56.8316C98.2932 58.6614 99.3475 60.4064 100.402 62.1513ZM47.8894 11.1856C47.8637 13.6647 47.6764 15.8117 47.6507 18.2908C45.5422 14.8009 43.7653 11.1486 41.6568 7.65873C43.791 8.66958 45.8402 9.9276 47.8894 11.1856ZM38.0258 7.79146C39.7263 10.8645 41.2651 13.6055 42.9655 16.6786C41.0779 15.7526 38.8586 14.9889 36.8008 14.5572C36.9881 12.4102 37.5069 10.1008 38.0258 7.79146ZM112.864 101.271C112.932 102.676 113.085 103.834 113.153 105.24C112.822 105.402 112.405 105.812 112.235 106.306C111.35 112.083 110.219 117.775 109.334 123.553C108.033 121.723 107.064 119.731 105.763 117.901C106.18 117.491 106.188 116.665 105.865 116.001C106.989 103.119 107.78 90.3988 107.747 77.6714C110.723 85.0533 112.457 92.8373 112.864 101.271Z" fill="white"/>
</g>
</g>
<defs>
<clipPath id="clip0">
<rect x="35.4669" width="127" height="109" transform="rotate(18.9889 35.4669 0)" fill="white"/>
</clipPath>
</defs>
</svg>
