<svg width="161" height="265" viewBox="0 0 161 265" fill="none" xmlns="http://www.w3.org/2000/svg">
<g opacity="0.2" filter="url(#filter0_f)">
<g clip-path="url(#clip0)">
<path d="M20.1733 51.3741C22.01 51.477 22.8661 52.9067 22.8039 54.2851C25.1738 57.8723 25.4254 62.4925 22.7442 65.7969C22.2642 66.2306 22.0243 66.4475 21.5443 66.8812C32.7478 88.9268 38.1387 112.259 37.7378 136.418C45.8619 114.534 52.41 91.8704 60.0749 69.9603C58.7181 69.4237 57.622 68.2108 57.0266 66.1047C55.8566 61.4332 55.208 55.409 58.8284 51.6966C61.7288 48.6348 67.7606 47.5908 70.5689 51.6632C71.425 53.093 71.3628 54.4713 70.4029 55.3387C70.8621 55.3645 71.7804 55.4159 72.4381 56.1436C77.5009 61.2635 72.1384 67.8723 66.5244 69.8609C66.5036 70.3203 66.5036 70.3203 66.4828 70.7798C63.8133 78.9212 61.1437 87.0625 58.4742 95.2039C67.0094 89.6941 75.9624 85.1288 85.3538 81.0488C85.5938 80.8319 85.3745 80.5893 85.6145 80.3724C91.2792 72.1685 94.011 62.6488 93.7685 52.7322C91.0133 52.5779 88.5604 50.8284 88.0065 47.8034C87.118 41.9961 91.8228 34.6596 97.7923 34.9939C102.624 35.0342 107.906 40.3967 105.382 45.322C104.662 45.9726 104.422 46.1895 103.942 46.6232C103.661 47.7589 102.92 48.869 102.2 49.5196C101.459 50.6296 100.28 51.2545 98.8611 52.0962C98.8611 52.0962 99.0803 52.3388 98.8403 52.5556C99.1244 61.5533 97.3525 70.2056 93.3261 77.8104C97.7818 75.9872 102.457 74.4066 106.892 73.0429C107.277 69.6099 109.061 65.7947 111.659 64.3281C114.977 62.2109 119.548 62.9275 121.719 65.8127C131.73 73.5127 115.349 89.6377 108.177 80.2542C107.958 80.0117 107.52 79.5265 107.54 79.0671C88.8613 84.93 71.2161 93.3842 54.8447 104.213C54.6048 104.43 54.1456 104.404 54.1456 104.404C46.6999 126.557 39.2542 148.709 29.794 169.598C27.2282 175.442 24.4432 181.043 21.199 186.619C24.7986 183.366 28.3982 180.113 32.4363 177.346C39.2917 173.354 47.1603 172.413 54.7473 172.607C56.1132 167.847 59.3366 162.731 64.4085 162.554C69.4804 162.378 72.7271 166.935 71.1628 170.993C71.6012 171.478 72.0396 171.964 71.9981 172.882C72.4275 178.664 69.4025 184.482 63.3707 185.526C59.1757 186.673 55.8875 183.035 55.1559 178.848C46.1913 178.576 38.2605 180.896 30.8836 186.24C24.9465 190.284 20.7632 196.267 14.3876 199.826C14.1477 200.042 13.6885 200.017 13.4485 200.234C1.13851 217.968 -14.0836 233.928 -31.2579 247.245C-34.3568 249.605 -38.3028 245.238 -35.2039 242.878C-18.9687 229.969 -4.48723 215.12 7.32207 198.278C11.4198 183.999 10.9256 169.462 6.27795 155.153C3.56432 154.08 1.15291 151.412 1.51742 148.438C1.96494 143.627 7.02514 138.613 12.097 138.437C16.9289 138.477 21.5117 144.031 18.3298 148.228C18.0898 148.445 17.8499 148.662 17.3699 149.096C16.567 151.584 15.0856 153.804 12.5082 154.811C15.5059 164.882 16.4268 175.067 15.7302 185.392C19.9551 178.489 23.5015 171.318 26.8287 163.904C28.3516 160.765 29.4152 157.601 30.6981 154.679C30.2597 154.193 30.2805 153.734 30.322 152.815C34.3847 124.024 29.4621 95.4215 16.1287 69.5718C14.052 69.6858 12.4552 69.3661 10.6599 68.3443C6.39099 66.0325 5.72167 60.4678 7.74524 56.4357C9.78956 51.9441 15.8213 50.9001 20.1733 51.3741ZM67.8578 60.7235C66.7618 59.5106 66.824 58.1322 67.5647 57.0222C67.1055 56.9965 66.4271 56.7282 66.0094 55.7836C65.3725 54.5964 63.9742 54.9787 63.2543 55.6293C61.8144 56.9305 62.1491 59.7128 62.306 61.3337C62.2645 62.2526 62.463 62.9547 62.6407 64.1161C62.8184 65.2776 63.2983 64.8439 64.2375 64.4359C65.3958 64.2704 69.3924 62.4215 67.8578 60.7235ZM93.4221 45.1128C93.4014 45.5722 93.1407 46.2486 93.1199 46.708C93.3391 46.9506 93.0992 47.1674 93.0992 47.1674C94.4767 47.2446 95.6558 46.6197 96.835 45.9948C98.0141 45.37 99.9961 42.2568 97.9609 41.4519C97.5017 41.4261 97.0633 40.941 96.844 40.6984C95.2057 41.2976 93.9436 43.7602 93.4221 45.1128ZM119.832 71.9252C119.154 71.6569 118.037 70.9034 117.859 69.742L117.64 69.4994C117.421 69.2568 117.201 69.0142 116.982 68.7716C116.304 68.5033 115.146 68.6688 114.426 69.3194C112.986 70.6205 112.621 73.5941 112.997 75.4575C113.791 78.2656 119.927 74.9244 119.832 71.9252ZM65.978 178.763C66.9587 177.437 67.2609 175.841 67.3439 174.004C66.0079 173.008 65.4125 170.901 66.8523 169.6C67.833 168.273 65.2555 169.281 64.7963 169.255C63.8572 169.663 63.1165 170.773 62.6158 171.666C61.6352 172.993 61.3329 174.588 61.0307 176.183C61.0099 176.643 61.0099 176.643 60.9892 177.102C60.7492 177.319 60.9684 177.562 60.7285 177.778C60.5832 180.995 64.5174 180.524 65.978 178.763ZM7.50766 148.313C7.68536 149.475 9.52214 149.577 10.2213 149.386C12.0996 148.57 11.9841 146.03 11.8272 144.41C11.8272 144.41 11.5872 144.626 11.368 144.384C10.2096 144.549 7.35071 146.692 7.50766 148.313ZM13.4449 62.7427C14.7602 64.1982 16.6385 63.3822 18.0576 62.5405C19.7374 61.0224 19.142 58.9164 18.0667 57.244C14.3724 57.4977 10.1566 59.104 13.4449 62.7427Z" fill="white"/>
</g>
</g>
<defs>
<filter id="filter0_f" x="-125" y="-14" width="299.634" height="292.02" filterUnits="userSpaceOnUse" color-interpolation-filters="sRGB">
<feFlood flood-opacity="0" result="BackgroundImageFix"/>
<feBlend mode="normal" in="SourceGraphic" in2="BackgroundImageFix" result="shape"/>
<feGaussianBlur stdDeviation="7" result="effect1_foregroundBlur"/>
</filter>
<clipPath id="clip0">
<rect width="136.342" height="242.907" transform="matrix(-0.670478 -0.74193 -0.74193 0.670478 160.634 101.156)" fill="white"/>
</clipPath>
</defs>
</svg>
