<svg width="161" height="339" viewBox="0 0 161 339" fill="none" xmlns="http://www.w3.org/2000/svg">
<g opacity="0.2" filter="url(#filter0_f)">
<g clip-path="url(#clip0)">
<path d="M210.164 198.086C241.28 145.569 254.905 84.4501 253.526 24.2542C253.623 20.757 250.451 18.875 247.517 18.702C246.629 16.5027 244.679 15.0317 241.824 15.4283C107.67 46.8405 62.8096 188.945 55.7814 310.116C55.8606 310.685 55.9397 311.255 55.9397 311.255C55.4479 311.904 54.8769 311.983 54.3059 312.062C52.1802 313.519 51.9258 315.877 52.7342 317.507C52.7342 317.507 52.8134 318.076 52.2424 318.156C49.8623 321.97 55.6343 325.814 58.0144 321.999L58.5062 321.35C59.0772 321.271 60.2192 321.112 60.711 320.463C86.7279 298.268 119.466 286.752 148.4 268.796C175.621 251.079 194.074 224.709 210.164 198.086ZM67.0148 294.619C68.6374 276.974 70.8311 259.25 74.2459 241.937C74.9241 255.198 75.0314 268.538 75.6306 281.229C72.7586 285.692 69.8867 290.156 67.0148 294.619ZM72.2949 299.112C73.6913 296.595 75.6587 293.999 77.0551 291.483C77.6261 291.403 78.1971 291.324 79.2599 290.596C79.8309 290.516 80.9729 290.358 81.4647 289.709C86.4453 287.855 91.5051 286.572 96.4857 284.719C88.4749 289.896 80.3058 293.934 72.2949 299.112ZM80.5496 216.093C80.4704 215.524 80.3913 214.954 80.3121 214.384C81.7255 207.801 83.7099 201.138 85.6943 194.475C88.7017 216.122 89.4251 238.086 88.4356 260.288C87.4519 261.586 87.0392 262.805 86.0555 264.103C84.4216 264.911 84.0089 266.129 84.1672 267.268C83.7545 268.487 82.6917 269.215 82.279 270.434C81.5386 252.537 80.719 234.07 80.5496 216.093ZM203.325 39.9384C205.128 57.1074 203.347 73.613 196.919 90.1835C196.998 90.7532 196.998 90.7532 196.506 91.4022C196.506 91.4022 195.935 91.4815 196.014 92.0512C194.952 92.7795 194.539 93.9981 194.618 94.5678C191.254 99.6803 187.89 104.793 184.527 109.905C186.404 89.9025 186.489 69.5679 186.082 49.8824C191.888 45.5919 197.36 43.0896 203.325 39.9384ZM218.187 33.809C220.358 41.0559 220.816 48.5407 220.132 56.1842C216.276 61.9457 212.913 67.0582 209.057 72.8197C211.471 60.8713 211.601 49.2403 209.86 36.7079C212.636 35.7416 215.412 34.7753 218.187 33.809ZM240.778 70.7354C230.579 72.7329 220.618 76.4394 211.386 81.2059C214.829 76.663 217.701 72.1995 221.065 67.0869C228.171 63.7771 235.277 60.4672 242.383 57.1574C241.875 61.8732 241.287 66.0195 240.778 70.7354ZM236.091 99.8383C235.52 99.9176 234.949 99.997 234.378 100.076C218.373 106.364 202.448 113.222 186.443 119.51C191.695 111.232 197.026 103.524 202.278 95.2455C213.89 86.6644 226.469 80.8523 240.015 77.8092C238.759 85.532 237.425 92.6851 236.091 99.8383ZM225.66 137.868C224.931 136.808 223.139 136.477 222.076 137.205C200.599 145.995 179.693 154.706 158.216 163.496C165.435 152.622 172.575 141.179 179.795 130.305C198.004 123.13 216.134 115.385 234.344 108.21C232.184 117.801 228.962 128.119 225.66 137.868ZM212.725 170.44C212.154 170.519 211.583 170.598 211.012 170.678C185.538 180.023 160.714 189.859 135.24 199.205C140.413 190.357 146.236 182 151.409 173.152C175.662 163.395 199.344 153.718 223.597 143.962C220.216 153.141 216.756 161.751 212.725 170.44ZM176.895 121.998C169.262 134.091 161.059 146.263 153.427 158.355C157.543 129.332 159.375 100.625 157.623 71.2557L157.544 70.686C164.254 64.5279 171.615 58.8601 178.976 53.1923C179.857 76.2957 178.947 99.0675 176.895 121.998ZM143.924 169.547C142.861 170.275 143.098 171.984 143.828 173.044C140.051 179.375 135.704 185.785 131.927 192.117C133.759 163.41 132.165 135.18 127.066 106.856C127.066 106.856 127.066 106.856 126.987 106.286C134.286 95.9819 142.234 86.1678 151.483 77.3345C152.252 108.002 150.165 139.066 143.924 169.547ZM123.645 203.719L123.724 204.289C120.36 209.401 116.997 214.514 113.633 219.626C116.273 192.549 114.267 165.538 107.042 138.67C111.152 130.551 115.833 122.352 120.593 114.723C125.279 144.266 126.461 173.715 123.645 203.719ZM105.017 233.017C101.653 238.129 98.8605 243.162 95.4967 248.275C95.9152 226.152 93.9707 203.777 90.3132 181.64C90.2341 181.07 90.1549 180.501 89.5839 180.58C93.2983 169.612 97.6627 159.135 102.027 148.657C108.839 176.743 109.291 205.132 105.017 233.017ZM97.0795 259.668C101.427 253.258 105.124 246.357 109.472 239.946C121.796 236.492 133.47 232.548 145.715 228.524C153.472 225.704 161.799 222.805 169.556 219.986C175.107 218.053 183.61 212.227 190.462 211.275C188.003 214.52 186.114 217.685 183.655 220.93C154.738 234.819 126.313 248.058 97.0795 259.668ZM194.651 203.725C194.08 203.805 194.001 203.235 193.43 203.314C182.915 203.033 169.59 211.852 160.199 215.479C145.258 221.039 130.237 226.029 115.137 230.45C119.976 223.39 124.165 215.84 129.004 208.781C155.541 198.707 182.078 188.633 208.615 178.559C206.314 182.943 204.013 187.328 201.712 191.712C199.411 196.096 197.031 199.911 194.651 203.725ZM242.497 49.5932C237.595 52.0161 233.185 53.79 228.284 56.2129C233.044 48.5838 238.455 41.445 243.215 33.8159C243.356 39.0221 242.926 44.3077 242.497 49.5932ZM239.331 26.807C234.983 33.2175 231.128 38.979 226.78 45.3895C226.718 40.7529 226.006 35.6261 224.802 31.1482C229.211 29.3742 234.271 28.0906 239.331 26.807ZM130.146 267.268C127.449 268.804 125.324 270.26 122.627 271.796C121.977 271.306 120.756 270.895 119.614 271.054C107.368 275.077 95.0441 278.532 82.799 282.555C85.0999 278.171 88.051 274.277 90.3519 269.893C91.5731 270.304 93.2069 269.496 94.1906 268.199C120.648 257.555 146.456 246.421 171.455 233.658C159.905 246.875 146.326 258.052 130.146 267.268Z" fill="#5B4696"/>
</g>
</g>
<defs>
<filter id="filter0_f" x="0" y="0" width="304.644" height="338.501" filterUnits="userSpaceOnUse" color-interpolation-filters="sRGB">
<feFlood flood-opacity="0" result="BackgroundImageFix"/>
<feBlend mode="normal" in="SourceGraphic" in2="BackgroundImageFix" result="shape"/>
<feGaussianBlur stdDeviation="7" result="effect1_foregroundBlur"/>
</filter>
<clipPath id="clip0">
<rect x="252.102" y="14" width="280.086" height="240.389" transform="rotate(82.0906 252.102 14)" fill="white"/>
</clipPath>
</defs>
</svg>
