<svg width="126" height="174" viewBox="0 0 126 174" fill="none" xmlns="http://www.w3.org/2000/svg">
<g opacity="0.2">
<g clip-path="url(#clip0)">
<path d="M15.0665 65.9429C15.6647 64.9197 16.7359 64.8484 17.5081 65.2886C20.2611 64.9825 22.9846 66.1943 24.0927 68.7019C24.2005 69.1044 24.2545 69.3057 24.3623 69.7083C40.294 69.754 55.2575 73.5109 68.9952 80.8322C58.8291 69.7494 47.7536 59.3417 37.4379 48.5147C36.7319 49.1353 35.7146 49.4079 34.332 49.1312C31.3094 48.431 27.6642 47.0347 26.5978 43.8687C25.6932 41.3066 26.8649 37.5409 30.0248 37.1257C31.096 37.0544 31.8682 37.4946 32.084 38.2998C32.2335 38.044 32.5326 37.5324 33.143 37.3688C37.5653 35.9681 39.7814 40.9833 39.274 44.7867C39.5314 44.9335 39.5314 44.9335 39.7888 45.0803C43.6743 49.001 47.5599 52.9217 51.4454 56.8424C50.7908 50.3301 50.8005 43.8555 51.2172 37.2719C51.1633 37.0707 50.9598 37.1252 50.9059 36.9239C47.8636 31.2671 43.2059 26.9061 37.4475 24.1344C36.5503 25.6692 34.827 26.5625 32.9296 25.9922C29.3383 24.7972 26.5117 19.9455 28.4557 16.6201C29.8971 13.8609 34.5229 12.4057 36.6066 15.299C36.7684 15.9029 36.8223 16.1042 36.9302 16.5067C37.4989 17.0015 37.9181 17.7521 38.0799 18.356C38.4991 19.1066 38.5114 19.9662 38.5776 21.0271C38.5776 21.0271 38.7811 20.9726 38.835 21.1739C44.0786 23.652 48.5206 27.2079 51.7001 31.7493C51.9624 28.6587 52.4281 25.5137 52.9478 22.5699C51.092 21.3413 49.4275 19.1986 49.3491 17.278C49.1088 14.7536 50.8615 12.3424 53.1536 11.9439C60.5078 8.46327 64.9474 22.5906 57.4608 23.9494C57.2574 24.004 56.8504 24.113 56.593 23.9662C54.4727 36.3996 54.1419 49.0007 55.5466 61.5682C55.6006 61.7695 55.451 62.0253 55.451 62.0253C65.9701 72.7978 76.4892 83.5703 85.6919 95.127C88.2905 98.3139 90.6855 101.555 92.931 105.053C92.122 102.033 91.3131 99.0141 90.911 95.8859C90.6339 90.7826 92.4038 85.9937 94.7424 81.6996C92.4135 79.5191 90.4254 76.1687 91.8129 73.2081C93.2004 70.2476 96.7672 69.7233 98.6352 71.8116C99.0421 71.7025 99.449 71.5935 99.9638 71.887C103.406 73.3378 105.855 76.7805 104.683 80.5462C104.109 83.2887 101.057 84.1065 98.4416 83.2972C95.6544 88.3587 94.6567 93.5878 95.5564 99.3872C96.1326 103.979 98.3364 108.135 98.5056 112.835C98.5596 113.037 98.41 113.292 98.464 113.494C105.022 125.759 109.706 139.174 112.303 152.932C112.746 155.402 109.084 156.383 108.64 153.913C106.002 140.813 101.737 128.149 95.5444 116.433C88.5578 109.892 80.0759 105.908 70.5055 104.374C69.0935 105.615 66.8554 106.215 65.2571 105.133C62.6292 103.464 61.2392 99.0903 62.6266 96.1298C64.068 93.3705 68.5982 92.3724 70.0716 95.4293C70.1255 95.6306 70.1794 95.8319 70.2873 96.2344C71.4787 97.4253 72.3171 98.9265 72.1381 100.7C78.7937 101.937 84.9051 104.399 90.6218 107.829C87.9032 103.38 84.8315 99.2407 81.5564 95.1565C80.2032 93.3617 78.7005 91.8228 77.4012 90.2294C76.9943 90.3384 76.7369 90.1916 76.2221 89.8981C60.9031 79.1173 43.0544 73.5448 24.3158 73.6039C23.7716 74.8284 23.1195 75.6503 22.0066 76.38C19.4277 78.1497 16.0399 76.9001 14.3214 74.5561C12.3455 72.0652 13.5173 68.2996 15.0665 65.9429ZM34.4251 41.3399C33.4078 41.6125 32.6356 41.1722 32.2164 40.4216C32.0668 40.6774 31.7138 40.9877 31.0495 40.95C30.1817 40.9668 29.9905 41.881 30.1523 42.4848C30.4759 43.6925 32.1698 44.3172 33.1455 44.703C33.6603 44.9965 34.1212 45.0888 34.8394 45.3278C35.5577 45.5668 35.4498 45.1642 35.4915 44.5059C35.7366 43.793 35.8494 40.9583 34.4251 41.3399ZM32.9761 22.0966C33.2335 22.2433 33.5449 22.5914 33.8023 22.7381C34.0057 22.6836 34.0597 22.8849 34.0597 22.8849C34.5083 22.1175 34.496 21.2579 34.4837 20.3982C34.4715 19.5386 33.2678 17.4881 32.2088 18.419C32.0593 18.6748 31.6523 18.7838 31.4489 18.8384C31.3116 19.9538 32.3535 21.4005 32.9761 22.0966ZM56.1051 14.8205C55.7521 15.1308 54.9922 15.5502 54.2739 15.3112L54.0704 15.3657C53.867 15.4202 53.6635 15.4747 53.46 15.5293C53.107 15.8396 52.8619 16.5525 53.0237 17.1563C53.3473 18.364 54.9456 19.4458 56.1248 19.7771C57.9682 20.1461 57.853 15.6466 56.1051 14.8205ZM101.57 77.0658C101.096 76.1139 100.27 75.4723 99.2407 74.8853C98.2773 75.3592 96.8947 75.0824 96.5711 73.8748C96.098 72.9229 95.919 74.6967 95.7695 74.9525C95.7278 75.6108 96.147 76.3614 96.5123 76.9107C96.9854 77.8626 97.8115 78.5042 98.6377 79.1458C98.8951 79.2925 98.8951 79.2925 99.1525 79.4393C99.2064 79.6406 99.4099 79.5861 99.4638 79.7873C101.266 80.8147 102.151 78.4202 101.57 77.0658ZM66.9436 101.661C67.6619 101.9 68.26 100.877 68.3556 100.419C68.439 99.1027 66.9485 98.4234 65.9728 98.0377C65.9728 98.0377 66.0268 98.239 65.8233 98.2935C65.5782 99.0064 65.9679 101.275 66.9436 101.661ZM19.6115 73.1386C20.8323 72.8115 20.9157 71.4947 20.8495 70.4338C20.4719 69.0249 19.0893 68.7481 17.8146 68.874C16.8757 71.0671 16.5595 73.9564 19.6115 73.1386Z" fill="#5B4696"/>
</g>
</g>
<defs>
<clipPath id="clip0">
<rect width="87.8386" height="156.494" transform="matrix(-0.965926 0.258819 0.258819 0.965926 84.8455 0)" fill="white"/>
</clipPath>
</defs>
</svg>
