<svg width="149" height="157" viewBox="0 0 149 157" fill="none" xmlns="http://www.w3.org/2000/svg">
<g opacity="0.2">
<g clip-path="url(#clip0)">
<path d="M84.7243 76.6354C84.7564 76.755 84.9079 76.8427 85.0594 76.9304C101.835 86.0298 118.292 66.2302 129.492 56.4319C130.113 55.8809 129.984 55.4023 129.737 54.9556C129.705 54.836 129.792 54.6843 129.792 54.6843C129.235 50.2166 126.324 48.4315 122.747 47.9793C122.874 43.1999 122.151 39.5461 118.847 35.8145C115.575 32.2025 110.538 30.6024 105.798 30.59C105.527 30.5343 105.32 30.718 105.081 30.782C102.337 28.1829 99.0038 26.2545 95.4728 25.0204C91.6027 16.3104 81.4786 11.9694 72.5616 14.9999C72.4422 15.0319 72.3227 15.0639 72.2354 15.2156C71.5332 14.506 70.7436 13.9481 69.9541 13.3901C69.7296 12.5525 68.8206 12.0266 68.1448 12.8489C61.4514 21.3114 58.5832 30.6727 57.7486 41.4128C57.0623 50.3177 57.0782 59.9322 64.0913 66.5175C64.2749 66.7248 64.6973 66.8681 64.9362 66.8041C65.7698 69.9152 67.1365 72.627 69.8082 74.4761C62.9401 83.242 56.3749 92.1831 50.2642 101.387C49.9379 101.603 49.4602 101.731 49.1339 101.947C48.5688 102.226 48.4261 102.649 48.5544 103.128C48.3796 103.431 48.2369 103.854 48.4525 104.181C45.9098 108.069 43.3992 112.076 40.9206 116.203C39.7526 118.055 38.7362 119.994 37.7518 122.054C40.1271 108.464 42.0567 95.1219 36.9363 81.7452C36.5283 80.7002 34.9114 80.877 34.7455 81.6909C34.6261 81.7229 34.5387 81.8746 34.5708 81.9943C30.3447 89.1544 28.4696 96.967 28.73 105.105C28.859 110.842 30.5006 120.79 35.0167 125.223C34.9294 125.375 34.9614 125.495 34.874 125.646C34.7634 126.189 35.0111 126.635 35.4656 126.898C31.5777 136.276 29.77 146.251 33.8412 156.19C34.3454 157.594 36.335 156.419 35.8308 155.016C29.8799 140.451 37.2804 126.027 44.7803 113.886C46.5599 110.972 48.3715 108.179 50.1511 105.265C61.4728 111.209 76.8074 106.33 87.8655 102.213C88.5501 101.902 88.7481 101.207 88.6198 100.729C88.8499 100.154 88.7449 99.2843 87.9321 99.1174C76.7097 95.4554 64.8966 95.7992 53.8938 99.6451C59.4803 91.351 65.4891 83.2002 71.7136 75.3763C75.9236 77.711 80.4246 77.7875 84.7243 76.6354ZM30.7108 103.42C30.4768 96.814 32.3142 90.2939 35.4829 84.4431C39.4058 96.2169 37.8402 108.051 35.7968 120.012C34.6826 111.077 34.7076 102.093 35.7522 93.0919C35.886 92.1583 34.3566 92.1834 34.2227 93.117C33.2102 102.238 33.2173 111.341 34.3635 120.397C31.6069 115.364 30.9096 107.984 30.7108 103.42ZM85.5609 100.779C75.7525 104.305 62.862 108.272 52.8894 104.018C59.5082 103.399 66.159 102.899 72.8973 102.248C73.8848 102.112 73.8905 100.7 72.8708 100.716C66.252 101.335 59.4817 101.867 52.863 102.486C63.2597 98.2898 74.6183 97.683 85.5609 100.779ZM127.482 54.6621C127.514 54.7817 127.578 55.021 127.61 55.1407C122.201 59.7963 116.943 64.5396 111.502 69.0756C106.148 73.46 99.4946 77.2947 92.7066 76.805C102.777 72.8241 111.123 66.2275 119.491 59.2398C120.112 58.6888 119.043 57.5646 118.303 58.1476C109.64 65.4706 100.881 72.4346 89.9652 76.1288C89.8457 76.1609 89.7263 76.1929 89.7584 76.3125C89.065 76.1136 88.2201 75.8269 87.4947 75.5083C98.0662 71.0084 107.972 59.2483 113.233 51.1699C113.352 51.1379 113.472 51.1059 113.472 51.1059C117.891 49.9217 126.586 47.9765 127.482 54.6621ZM117.193 37.2838C120.121 40.0902 120.518 43.9596 120.372 47.7178C119.233 47.7665 117.975 47.8472 116.748 48.0476C117.488 47.4646 118.196 46.7619 118.904 46.0592C119.612 45.3566 118.542 44.2324 117.835 44.935C116.745 46.1247 115.385 47.2587 114.112 48.241C113.905 48.4247 113.818 48.5763 113.85 48.696C113.73 48.728 113.611 48.76 113.611 48.76C113.579 48.6403 113.46 48.6723 113.34 48.7043C114.945 46.0941 116.462 43.6355 118.067 41.0252C118.623 40.2349 117.26 39.446 116.704 40.2363C115.448 42.2399 114.312 44.2115 113.057 46.2151C113.048 45.7045 112.888 45.1062 112.76 44.6276C113.561 42.361 114.361 40.0944 115.194 37.9475C115.48 37.1015 114.093 36.7036 113.688 37.5816C113.205 39.1219 112.57 40.5745 112.086 42.1147C111.926 41.5165 111.646 40.9502 111.518 40.4715C111.606 40.3199 111.693 40.1682 111.748 39.8969C111.684 39.6576 111.707 39.2666 111.643 39.0273L111.731 38.8756C111.961 38.301 112.159 37.6067 112.389 37.032C112.794 36.154 111.287 35.7881 110.883 36.6661C110.74 37.0891 110.51 37.6637 110.367 38.0867C109.464 36.1485 108.266 34.5457 106.949 32.9748C110.94 33.0596 114.297 34.5971 117.193 37.2838ZM92.4283 24.1689C90.6512 23.7473 88.8187 23.5971 87.0183 23.5665C87.3999 23.0795 87.63 22.5049 87.7406 21.9622C87.8745 21.0286 86.4877 20.6307 86.2344 21.5963C86.0685 22.4103 85.5995 23.0489 84.9149 23.3606C84.6761 23.4246 84.5887 23.5763 84.5013 23.7279C84.143 23.824 83.8721 23.7683 83.5137 23.8643C84.3642 22.7387 84.9759 21.677 85.6428 20.3441C86.0476 19.4661 84.8036 18.6452 84.2793 19.5552C83.525 21.0398 82.6512 22.5564 81.5939 23.8657C81.5065 24.0174 81.5065 24.0174 81.4192 24.1691C80.7025 24.3611 79.9859 24.5531 79.2693 24.7451C79.8168 23.4442 80.5158 22.2309 81.3342 20.9856C82.0421 20.2829 80.6785 19.494 80.1222 20.2843C79.1843 21.5616 78.43 23.0462 77.7951 24.4989C77.6669 24.0202 77.5386 23.5416 77.291 23.095C77.687 21.7063 78.2345 20.4054 78.814 19.2241C79.2188 18.3461 78.0068 17.6449 77.4505 18.4352C77.0136 19.1935 76.6088 20.0715 76.3235 20.9174C75.5483 19.4579 74.8053 18.118 73.7039 16.8741C81.1091 14.8899 88.5703 17.8924 92.4283 24.1689ZM63.479 62.3211C63.5663 62.1694 63.5343 62.0498 63.5022 61.9301C61.2339 48.6869 65.4825 35.8778 70.5527 23.7462C70.9575 22.8682 69.594 22.0793 69.1892 22.9573C64.349 34.5142 60.4179 46.5971 61.5937 59.107C59.2507 53.7071 59.5906 47.3317 59.9073 41.3474C60.5206 31.6925 63.1035 23.1772 68.8502 15.4814C72.4951 18.0958 74.9311 21.9318 75.8464 26.3035C70.0123 34.151 66.2672 43.106 64.7536 52.7455C64.2967 55.8177 63.9127 59.6399 64.2774 63.3897C64.0297 62.943 63.6946 62.648 63.479 62.3211ZM67.9168 48.307C69.6171 40.7977 73.1265 33.8295 77.7286 27.5947C83.2692 25.3406 88.8772 25.2487 93.8824 26.729C94.098 27.056 94.4884 27.0797 94.8467 26.9836C104.021 30.1684 111.037 38.6766 111.199 49.791C111.231 49.9107 111.295 50.15 111.327 50.2697C104.136 61.1741 88.7828 78.8824 74.5713 74.0976C84.6827 70.747 93.5236 65.0436 100.887 57.1711C101.595 56.4684 100.526 55.3442 99.8178 56.0469C92.6611 63.7357 83.9076 69.2875 74.0351 72.5741C83.9069 64.0294 92.1586 53.7386 98.2894 42.2207C98.6942 41.3427 97.4822 40.6415 96.9259 41.4318C90.7951 52.9497 82.6307 63.0889 72.759 71.6335C75.3675 59.3921 80.0562 47.7475 86.6823 37.1228C87.2386 36.3325 85.8751 35.5436 85.3188 36.3339C78.4305 47.4136 73.5992 59.4811 71.0315 72.3529C71.0315 72.3529 71.0315 72.3529 70.9994 72.2332C69.6345 60.9282 71.6867 49.4771 76.9669 39.0848C77.3717 38.2068 76.1597 37.5056 75.6034 38.2959C70.4105 48.5365 68.2621 59.6287 69.2367 70.91C64.5515 65.3682 66.6125 54.4277 67.9168 48.307Z" fill="#5B4696"/>
</g>
</g>
<defs>
<clipPath id="clip0">
<rect x="115.139" width="130.445" height="119.2" transform="rotate(75 115.139 0)" fill="white"/>
</clipPath>
</defs>
</svg>
