<svg width="162" height="270" viewBox="0 0 162 270" fill="none" xmlns="http://www.w3.org/2000/svg">
<g opacity="0.2" filter="url(#filter0_f)">
<g clip-path="url(#clip0)">
<path d="M23.3864 102.354C24.3148 100.766 25.9776 100.655 27.1762 101.339C31.4493 100.864 35.6767 102.744 37.3966 106.637C37.564 107.262 37.6477 107.574 37.8152 108.199C62.5441 108.27 85.7701 114.101 107.094 125.465C91.314 108.263 74.1227 92.1081 58.1109 75.3025C57.0151 76.2659 55.436 76.689 53.2899 76.2595C48.5983 75.1726 42.9402 73.0053 41.285 68.0911C39.8809 64.1142 41.6996 58.2692 46.6043 57.6247C48.2671 57.514 49.4657 58.1974 49.8006 59.4471C50.0327 59.0501 50.4969 58.256 51.4443 58.0021C58.3086 55.828 61.7484 63.6125 60.9608 69.5161C61.3604 69.7439 61.3604 69.7439 61.7599 69.9717C67.7909 76.0573 73.822 82.143 79.853 88.2286C78.837 78.1204 78.8521 68.0707 79.4989 57.8517C79.4152 57.5393 79.0993 57.6239 79.0156 57.3115C74.2935 48.5311 67.0638 41.7621 58.1258 37.4599C56.7331 39.8422 54.0582 41.2287 51.1131 40.3435C45.5387 38.4886 41.1514 30.958 44.1688 25.7964C46.4061 21.5135 53.5862 19.2547 56.8205 23.7457C57.0717 24.683 57.1554 24.9954 57.3228 25.6203C58.2056 26.3883 58.8562 27.5534 59.1074 28.4907C59.7581 29.6557 59.7771 30.9901 59.8799 32.6368C59.8799 32.6368 60.1957 32.5522 60.2794 32.8646C68.4184 36.7112 75.3132 42.2305 80.2484 49.2795C80.6555 44.4825 81.3784 39.6008 82.185 35.0315C79.3046 33.1245 76.7209 29.7985 76.5991 26.8175C76.2262 22.8991 78.9468 19.1565 82.5045 18.538C93.9195 13.1354 100.811 35.0636 89.1901 37.1728C88.8743 37.2574 88.2426 37.4267 87.8431 37.1989C84.5519 56.4978 84.0384 76.0569 86.2189 95.564C86.3026 95.8764 86.0705 96.2735 86.0705 96.2735C102.398 112.994 118.726 129.715 133.01 147.653C137.043 152.6 140.761 157.631 144.246 163.06C142.991 158.373 141.735 153.687 141.111 148.831C140.681 140.91 143.428 133.477 147.058 126.812C143.443 123.427 140.357 118.227 142.511 113.631C144.664 109.036 150.201 108.222 153.1 111.464C153.732 111.294 154.363 111.125 155.163 111.581C160.505 113.833 164.306 119.176 162.487 125.021C161.597 129.278 156.86 130.548 152.8 129.291C148.474 137.148 146.925 145.264 148.321 154.266C149.216 161.393 152.637 167.843 152.899 175.14C152.983 175.452 152.751 175.849 152.834 176.162C163.013 195.2 170.285 216.022 174.314 237.377C175.003 241.211 169.319 242.734 168.63 238.901C164.535 218.567 157.914 198.91 148.303 180.725C137.458 170.571 124.293 164.388 109.438 162.006C107.246 163.933 103.772 164.864 101.291 163.184C97.2123 160.594 95.0548 153.805 97.2084 149.21C99.4457 144.927 106.477 143.378 108.764 148.123C108.848 148.435 108.932 148.747 109.099 149.372C110.948 151.221 112.25 153.551 111.972 156.304C122.303 158.224 131.789 162.045 140.662 167.369C136.442 160.463 131.674 154.039 126.591 147.699C124.49 144.913 122.158 142.525 120.141 140.051C119.51 140.221 119.11 139.993 118.311 139.537C94.5332 122.803 66.8286 114.154 37.7429 114.246C36.8982 116.146 35.8861 117.422 34.1586 118.555C30.1558 121.301 24.8972 119.362 22.2298 115.724C19.1629 111.857 20.9817 106.012 23.3864 102.354ZM53.4344 64.166C51.8553 64.5891 50.6567 63.9057 50.0061 62.7406C49.774 63.1376 49.226 63.6193 48.1949 63.5608C46.8479 63.5868 46.5511 65.0058 46.8023 65.943C47.3045 67.8176 49.9338 68.7873 51.4482 69.3861C52.2473 69.8417 52.9626 69.9849 54.0775 70.3559C55.1924 70.7269 55.025 70.102 55.0897 69.0801C55.4701 67.9736 55.6451 63.5736 53.4344 64.166ZM51.1854 34.2968C51.5849 34.5246 52.0681 35.0648 52.4677 35.2926C52.7835 35.208 52.8672 35.5204 52.8672 35.5204C53.5635 34.3293 53.5445 32.9949 53.5254 31.6606C53.5064 30.3263 51.6381 27.1435 49.9943 28.5885C49.7622 28.9856 49.1306 29.1548 48.8148 29.2394C48.6017 30.9708 50.2189 33.2163 51.1854 34.2968ZM87.0858 23.003C86.5379 23.4847 85.3583 24.1356 84.2434 23.7646L83.9276 23.8492C83.6118 23.9339 83.296 24.0185 82.9802 24.1031C82.4322 24.5848 82.0517 25.6913 82.3029 26.6286C82.8052 28.5031 85.2861 30.1823 87.1163 30.6965C89.9777 31.2692 89.7988 24.2852 87.0858 23.003ZM157.655 119.619C156.921 118.142 155.638 117.146 154.04 116.235C152.545 116.97 150.399 116.541 149.896 114.666C149.162 113.189 148.884 115.942 148.652 116.339C148.587 117.361 149.238 118.526 149.805 119.378C150.54 120.856 151.822 121.852 153.104 122.848C153.504 123.075 153.504 123.075 153.903 123.303C153.987 123.616 154.303 123.531 154.386 123.843C157.183 125.438 158.557 121.721 157.655 119.619ZM103.909 157.795C105.024 158.166 105.952 156.578 106.101 155.868C106.23 153.824 103.917 152.77 102.402 152.171C102.402 152.171 102.486 152.484 102.17 152.568C101.79 153.675 102.395 157.196 103.909 157.795ZM30.441 113.523C32.336 113.016 32.4653 110.972 32.3626 109.325C31.7766 107.138 29.6305 106.709 27.6519 106.904C26.1946 110.308 25.7038 114.793 30.441 113.523Z" fill="#5B4696"/>
</g>
</g>
<defs>
<filter id="filter0_f" x="-14" y="-14" width="222.565" height="297.918" filterUnits="userSpaceOnUse" color-interpolation-filters="sRGB">
<feFlood flood-opacity="0" result="BackgroundImageFix"/>
<feBlend mode="normal" in="SourceGraphic" in2="BackgroundImageFix" result="shape"/>
<feGaussianBlur stdDeviation="7" result="effect1_foregroundBlur"/>
</filter>
<clipPath id="clip0">
<rect width="136.342" height="242.907" transform="matrix(-0.965926 0.258819 0.258819 0.965926 131.696 0)" fill="white"/>
</clipPath>
</defs>
</svg>
